%TF.GenerationSoftware,KiCad,Pcbnew,9.0.6*%
%TF.CreationDate,2025-12-21T18:04:29+09:00*%
%TF.ProjectId,winder_led,77696e64-6572-45f6-9c65-642e6b696361,rev?*%
%TF.SameCoordinates,Original*%
%TF.FileFunction,Copper,L2,Bot*%
%TF.FilePolarity,Positive*%
%FSLAX46Y46*%
G04 Gerber Fmt 4.6, Leading zero omitted, Abs format (unit mm)*
G04 Created by KiCad (PCBNEW 9.0.6) date 2025-12-21 18:04:29*
%MOMM*%
%LPD*%
G01*
G04 APERTURE LIST*
%TA.AperFunction,ComponentPad*%
%ADD10R,1.800000X1.800000*%
%TD*%
%TA.AperFunction,ComponentPad*%
%ADD11C,1.800000*%
%TD*%
%TA.AperFunction,ComponentPad*%
%ADD12R,1.700000X1.700000*%
%TD*%
%TA.AperFunction,ComponentPad*%
%ADD13C,1.700000*%
%TD*%
%TA.AperFunction,Conductor*%
%ADD14C,1.000000*%
%TD*%
%TA.AperFunction,Conductor*%
%ADD15C,0.200000*%
%TD*%
G04 APERTURE END LIST*
D10*
%TO.P,D2,1,K*%
%TO.N,GND*%
X103750000Y-71750000D03*
D11*
%TO.P,D2,2,A*%
%TO.N,Net-(D2-A)*%
X106290000Y-71750000D03*
%TD*%
D10*
%TO.P,D1,1,K*%
%TO.N,GND*%
X126250000Y-71750000D03*
D11*
%TO.P,D1,2,A*%
%TO.N,Net-(D1-A)*%
X123710000Y-71750000D03*
%TD*%
D12*
%TO.P,J1,1*%
%TO.N,GND*%
X118000000Y-62000000D03*
D13*
%TO.P,J1,2*%
%TO.N,/GPIO4*%
X115460000Y-62000000D03*
%TO.P,J1,3*%
%TO.N,/GPIO5*%
X112920000Y-62000000D03*
%TD*%
D14*
%TO.N,GND*%
X126250000Y-71750000D02*
X124649000Y-73351000D01*
X126250000Y-70250000D02*
X126250000Y-71750000D01*
X124649000Y-73351000D02*
X105351000Y-73351000D01*
X118000000Y-62000000D02*
X126250000Y-70250000D01*
D15*
X103730000Y-70770000D02*
X103730000Y-71500000D01*
D14*
X105351000Y-73351000D02*
X103750000Y-71750000D01*
%TD*%
%TA.AperFunction,Conductor*%
%TO.N,GND*%
G36*
X111003368Y-61003368D02*
G01*
X111496632Y-61496632D01*
X111500000Y-61504764D01*
X111500000Y-63651301D01*
X112000000Y-64077831D01*
X116500000Y-63982902D01*
X117000000Y-63500000D01*
X117000000Y-61504764D01*
X117003368Y-61496632D01*
X117130368Y-61369632D01*
X117138500Y-61366264D01*
X117146632Y-61369632D01*
X117150000Y-61377764D01*
X117150000Y-62849999D01*
X117150001Y-62850000D01*
X118849999Y-62850000D01*
X118850000Y-62849999D01*
X118850000Y-61150001D01*
X118849999Y-61150000D01*
X117377764Y-61150000D01*
X117369632Y-61146632D01*
X117366264Y-61138500D01*
X117369632Y-61130368D01*
X117496632Y-61003368D01*
X117504764Y-61000000D01*
X126995236Y-61000000D01*
X127003368Y-61003368D01*
X127496632Y-61496632D01*
X127500000Y-61504764D01*
X127500000Y-73477970D01*
X127496769Y-73485962D01*
X127003390Y-73996492D01*
X126995317Y-73999998D01*
X126995121Y-74000000D01*
X103004764Y-74000000D01*
X102996632Y-73996632D01*
X102503368Y-73503368D01*
X102500000Y-73495236D01*
X102500000Y-70850001D01*
X102850000Y-70850001D01*
X102850000Y-72649999D01*
X102850001Y-72650000D01*
X104649999Y-72650000D01*
X104650000Y-72649999D01*
X104650000Y-71663386D01*
X105189500Y-71663386D01*
X105189500Y-71836613D01*
X105216597Y-72007698D01*
X105270125Y-72172441D01*
X105270126Y-72172444D01*
X105270127Y-72172445D01*
X105348768Y-72326788D01*
X105450586Y-72466928D01*
X105573072Y-72589414D01*
X105713212Y-72691232D01*
X105867555Y-72769873D01*
X106032299Y-72823402D01*
X106117844Y-72836951D01*
X106203387Y-72850500D01*
X106203389Y-72850500D01*
X106376613Y-72850500D01*
X106445047Y-72839660D01*
X106547701Y-72823402D01*
X106712445Y-72769873D01*
X106866788Y-72691232D01*
X107006928Y-72589414D01*
X107129414Y-72466928D01*
X107231232Y-72326788D01*
X107309873Y-72172445D01*
X107363402Y-72007701D01*
X107390500Y-71836611D01*
X107390500Y-71663389D01*
X107390500Y-71663386D01*
X122609500Y-71663386D01*
X122609500Y-71836613D01*
X122636597Y-72007698D01*
X122690125Y-72172441D01*
X122690126Y-72172444D01*
X122690127Y-72172445D01*
X122768768Y-72326788D01*
X122870586Y-72466928D01*
X122993072Y-72589414D01*
X123133212Y-72691232D01*
X123287555Y-72769873D01*
X123452299Y-72823402D01*
X123537844Y-72836951D01*
X123623387Y-72850500D01*
X123623389Y-72850500D01*
X123796613Y-72850500D01*
X123865047Y-72839660D01*
X123967701Y-72823402D01*
X124132445Y-72769873D01*
X124286788Y-72691232D01*
X124426928Y-72589414D01*
X124549414Y-72466928D01*
X124651232Y-72326788D01*
X124729873Y-72172445D01*
X124783402Y-72007701D01*
X124810500Y-71836611D01*
X124810500Y-71663389D01*
X124783402Y-71492299D01*
X124729873Y-71327555D01*
X124651232Y-71173212D01*
X124549414Y-71033072D01*
X124426928Y-70910586D01*
X124343540Y-70850001D01*
X125350000Y-70850001D01*
X125350000Y-72649999D01*
X125350001Y-72650000D01*
X127149999Y-72650000D01*
X127150000Y-72649999D01*
X127150000Y-70850001D01*
X127149999Y-70850000D01*
X125350001Y-70850000D01*
X125350000Y-70850001D01*
X124343540Y-70850001D01*
X124286788Y-70808768D01*
X124132445Y-70730127D01*
X124132444Y-70730126D01*
X124132441Y-70730125D01*
X123967698Y-70676597D01*
X123796613Y-70649500D01*
X123796611Y-70649500D01*
X123623389Y-70649500D01*
X123623387Y-70649500D01*
X123452301Y-70676597D01*
X123287558Y-70730125D01*
X123133210Y-70808769D01*
X122993072Y-70910586D01*
X122870586Y-71033072D01*
X122768769Y-71173210D01*
X122690125Y-71327558D01*
X122636597Y-71492301D01*
X122609500Y-71663386D01*
X107390500Y-71663386D01*
X107363402Y-71492299D01*
X107309873Y-71327555D01*
X107231232Y-71173212D01*
X107129414Y-71033072D01*
X107006928Y-70910586D01*
X106866788Y-70808768D01*
X106712445Y-70730127D01*
X106712444Y-70730126D01*
X106712441Y-70730125D01*
X106547698Y-70676597D01*
X106376613Y-70649500D01*
X106376611Y-70649500D01*
X106203389Y-70649500D01*
X106203387Y-70649500D01*
X106032301Y-70676597D01*
X105867558Y-70730125D01*
X105713210Y-70808769D01*
X105573072Y-70910586D01*
X105450586Y-71033072D01*
X105348769Y-71173210D01*
X105270125Y-71327558D01*
X105216597Y-71492301D01*
X105189500Y-71663386D01*
X104650000Y-71663386D01*
X104650000Y-70850001D01*
X104649999Y-70850000D01*
X102850001Y-70850000D01*
X102850000Y-70850001D01*
X102500000Y-70850001D01*
X102500000Y-61504764D01*
X102503368Y-61496632D01*
X102996632Y-61003368D01*
X103004764Y-61000000D01*
X110995236Y-61000000D01*
X111003368Y-61003368D01*
G37*
%TD.AperFunction*%
%TD*%
M02*
