%TF.GenerationSoftware,KiCad,Pcbnew,9.0.6*%
%TF.CreationDate,2025-12-21T18:04:29+09:00*%
%TF.ProjectId,winder_led,77696e64-6572-45f6-9c65-642e6b696361,rev?*%
%TF.SameCoordinates,Original*%
%TF.FileFunction,Legend,Top*%
%TF.FilePolarity,Positive*%
%FSLAX46Y46*%
G04 Gerber Fmt 4.6, Leading zero omitted, Abs format (unit mm)*
G04 Created by KiCad (PCBNEW 9.0.6) date 2025-12-21 18:04:29*
%MOMM*%
%LPD*%
G01*
G04 APERTURE LIST*
%ADD10C,0.075000*%
%ADD11C,0.100000*%
%ADD12C,0.150000*%
%ADD13C,0.120000*%
G04 APERTURE END LIST*
D10*
G36*
X110097815Y-74469194D02*
G01*
X110151656Y-74470039D01*
X110188452Y-74472822D01*
X110190774Y-74473127D01*
X110190774Y-74365611D01*
X110162307Y-74368321D01*
X110128596Y-74369380D01*
X110097815Y-74369519D01*
X109962309Y-74369519D01*
X109962309Y-74091839D01*
X109963079Y-74042148D01*
X109966779Y-74003374D01*
X109844706Y-74003374D01*
X109847575Y-74032983D01*
X109848933Y-74065732D01*
X109849176Y-74093524D01*
X109849176Y-74389131D01*
X109848259Y-74435675D01*
X109844967Y-74469325D01*
X109844706Y-74470879D01*
X109927578Y-74469194D01*
X110097815Y-74469194D01*
G37*
G36*
X110579975Y-74368420D02*
G01*
X110550526Y-74370951D01*
X110514393Y-74372158D01*
X110488677Y-74372327D01*
X110344207Y-74372327D01*
X110344207Y-74278489D01*
X110465181Y-74278489D01*
X110510362Y-74279334D01*
X110546289Y-74282118D01*
X110549176Y-74282422D01*
X110549176Y-74178814D01*
X110508433Y-74182044D01*
X110465181Y-74182746D01*
X110344207Y-74182746D01*
X110344207Y-74100265D01*
X110489801Y-74100265D01*
X110534504Y-74101110D01*
X110570427Y-74103894D01*
X110573258Y-74104198D01*
X110573258Y-74000248D01*
X110535935Y-74002571D01*
X110489801Y-74003374D01*
X110311161Y-74003374D01*
X110228852Y-74001713D01*
X110232117Y-74035890D01*
X110233283Y-74072993D01*
X110233321Y-74083461D01*
X110233321Y-74389131D01*
X110232404Y-74435083D01*
X110229113Y-74469117D01*
X110228852Y-74470879D01*
X110311161Y-74469194D01*
X110487578Y-74469194D01*
X110541228Y-74470039D01*
X110577323Y-74472822D01*
X110579975Y-74473127D01*
X110579975Y-74368420D01*
G37*
G36*
X110719706Y-74003374D02*
G01*
X110836748Y-74003374D01*
X110867558Y-74004720D01*
X110908202Y-74011290D01*
X110943348Y-74022765D01*
X110973362Y-74038685D01*
X110998583Y-74058817D01*
X111016095Y-74078831D01*
X111025883Y-74093167D01*
X111034451Y-74108569D01*
X111042005Y-74125551D01*
X111048255Y-74143631D01*
X111053367Y-74163580D01*
X111057061Y-74184675D01*
X111059400Y-74207923D01*
X111060181Y-74232376D01*
X111057268Y-74278434D01*
X111048922Y-74319234D01*
X111035635Y-74355081D01*
X111017709Y-74386318D01*
X110995237Y-74413214D01*
X110982099Y-74424909D01*
X110968540Y-74434779D01*
X110953956Y-74443422D01*
X110937958Y-74451002D01*
X110920918Y-74457277D01*
X110902207Y-74462387D01*
X110882419Y-74466082D01*
X110860707Y-74468414D01*
X110837871Y-74469194D01*
X110719706Y-74469194D01*
X110637397Y-74470879D01*
X110637658Y-74468950D01*
X110640949Y-74434263D01*
X110641866Y-74389131D01*
X110641866Y-74371204D01*
X110752752Y-74371204D01*
X110827784Y-74371204D01*
X110839863Y-74370830D01*
X110867540Y-74366333D01*
X110890232Y-74356886D01*
X110900606Y-74349922D01*
X110910118Y-74341528D01*
X110920651Y-74328709D01*
X110927767Y-74316914D01*
X110933712Y-74303805D01*
X110938682Y-74288658D01*
X110942301Y-74272215D01*
X110944610Y-74253753D01*
X110945387Y-74234062D01*
X110943732Y-74203605D01*
X110937410Y-74172567D01*
X110927066Y-74148498D01*
X110912903Y-74129941D01*
X110908262Y-74125614D01*
X110899025Y-74118643D01*
X110888763Y-74112894D01*
X110876564Y-74108077D01*
X110862956Y-74104584D01*
X110845621Y-74102179D01*
X110826123Y-74101389D01*
X110752752Y-74101389D01*
X110752752Y-74371204D01*
X110641866Y-74371204D01*
X110641866Y-74084096D01*
X110641691Y-74061694D01*
X110640251Y-74030273D01*
X110636835Y-74001811D01*
X110719706Y-74003374D01*
G37*
G36*
X111603621Y-74469194D02*
G01*
X111612838Y-74431643D01*
X111627704Y-74386909D01*
X111682023Y-74233500D01*
X111700896Y-74171946D01*
X111705199Y-74156720D01*
X111707229Y-74149529D01*
X111704982Y-74187582D01*
X111702173Y-74260367D01*
X111702173Y-74382415D01*
X111701256Y-74429994D01*
X111697965Y-74467174D01*
X111697704Y-74469194D01*
X111808028Y-74469194D01*
X111805274Y-74445080D01*
X111803874Y-74415943D01*
X111803534Y-74382415D01*
X111803534Y-74090740D01*
X111804441Y-74044606D01*
X111807664Y-74006337D01*
X111808028Y-74003374D01*
X111659626Y-74003374D01*
X111655030Y-74028606D01*
X111647264Y-74056976D01*
X111638914Y-74082338D01*
X111555457Y-74323650D01*
X111471461Y-74082338D01*
X111459605Y-74045746D01*
X111452745Y-74017693D01*
X111450188Y-74003374D01*
X111302348Y-74003374D01*
X111306545Y-74067567D01*
X111306817Y-74090740D01*
X111306817Y-74382415D01*
X111305900Y-74429550D01*
X111302609Y-74467213D01*
X111302348Y-74469194D01*
X111412672Y-74469194D01*
X111408610Y-74417414D01*
X111408178Y-74382415D01*
X111408178Y-74260928D01*
X111405397Y-74185767D01*
X111402585Y-74150066D01*
X111411549Y-74178081D01*
X111430575Y-74237408D01*
X111482110Y-74386347D01*
X111498285Y-74434738D01*
X111505822Y-74466725D01*
X111506193Y-74469194D01*
X111603621Y-74469194D01*
G37*
G36*
X112064838Y-74115262D02*
G01*
X112101006Y-74121330D01*
X112132824Y-74132641D01*
X112160312Y-74148771D01*
X112183458Y-74169453D01*
X112193392Y-74181486D01*
X112202146Y-74194570D01*
X112209766Y-74208835D01*
X112216107Y-74224101D01*
X112221203Y-74240597D01*
X112224906Y-74258048D01*
X112227204Y-74276754D01*
X112227979Y-74296368D01*
X112226924Y-74318999D01*
X112220531Y-74354448D01*
X112208770Y-74386018D01*
X112192051Y-74413553D01*
X112181929Y-74425758D01*
X112170683Y-74436875D01*
X112158308Y-74446898D01*
X112144885Y-74455741D01*
X112130344Y-74463416D01*
X112114825Y-74469808D01*
X112098202Y-74474919D01*
X112080669Y-74478634D01*
X112062066Y-74480925D01*
X112042623Y-74481699D01*
X112020493Y-74480738D01*
X111984672Y-74474571D01*
X111953123Y-74463153D01*
X111925827Y-74446889D01*
X111913771Y-74437016D01*
X111902804Y-74426021D01*
X111892908Y-74413866D01*
X111884184Y-74400647D01*
X111876582Y-74386217D01*
X111870254Y-74370768D01*
X111865163Y-74354057D01*
X111861463Y-74336370D01*
X111859166Y-74317397D01*
X111858391Y-74297491D01*
X111858415Y-74296930D01*
X111965345Y-74296930D01*
X111967955Y-74327147D01*
X111975427Y-74352094D01*
X111986872Y-74371162D01*
X112001868Y-74384904D01*
X112010753Y-74389882D01*
X112020500Y-74393514D01*
X112031418Y-74395807D01*
X112043185Y-74396581D01*
X112061147Y-74394752D01*
X112080293Y-74387583D01*
X112088663Y-74381948D01*
X112096095Y-74375014D01*
X112102838Y-74366411D01*
X112108503Y-74356465D01*
X112113307Y-74344472D01*
X112116828Y-74331056D01*
X112119127Y-74315301D01*
X112119902Y-74298053D01*
X112117479Y-74268398D01*
X112110217Y-74243093D01*
X112099024Y-74223869D01*
X112084338Y-74210076D01*
X112075624Y-74205087D01*
X112066063Y-74201451D01*
X112055324Y-74199153D01*
X112043747Y-74198378D01*
X112024690Y-74200417D01*
X112005337Y-74207873D01*
X111996857Y-74213656D01*
X111989320Y-74220732D01*
X111982503Y-74229435D01*
X111976776Y-74239452D01*
X111971949Y-74251396D01*
X111968411Y-74264698D01*
X111966119Y-74280121D01*
X111965345Y-74296930D01*
X111858415Y-74296930D01*
X111859326Y-74275780D01*
X111865445Y-74240142D01*
X111876819Y-74208761D01*
X111893053Y-74181602D01*
X111902923Y-74169598D01*
X111913922Y-74158677D01*
X111926100Y-74148813D01*
X111939352Y-74140116D01*
X111953840Y-74132530D01*
X111969360Y-74126214D01*
X111986173Y-74121127D01*
X112003979Y-74117431D01*
X112023106Y-74115133D01*
X112043185Y-74114358D01*
X112064838Y-74115262D01*
G37*
G36*
X112509420Y-74128427D02*
G01*
X112512484Y-74161769D01*
X112513785Y-74194955D01*
X112513914Y-74211982D01*
X112513914Y-74326141D01*
X112504914Y-74339337D01*
X112495081Y-74351016D01*
X112484738Y-74360910D01*
X112473846Y-74369141D01*
X112463011Y-74375377D01*
X112451898Y-74379908D01*
X112441255Y-74382544D01*
X112430558Y-74383510D01*
X112429895Y-74383514D01*
X112419923Y-74382743D01*
X112411078Y-74380476D01*
X112403769Y-74377008D01*
X112397538Y-74372312D01*
X112393503Y-74367907D01*
X112389294Y-74360888D01*
X112386533Y-74352389D01*
X112384539Y-74326141D01*
X112384539Y-74211982D01*
X112385446Y-74169188D01*
X112388669Y-74131375D01*
X112389033Y-74128427D01*
X112272554Y-74128427D01*
X112275338Y-74158756D01*
X112276831Y-74193393D01*
X112277023Y-74211982D01*
X112277023Y-74351762D01*
X112277820Y-74372311D01*
X112280271Y-74390445D01*
X112283771Y-74404353D01*
X112288620Y-74416908D01*
X112294476Y-74427684D01*
X112301629Y-74437605D01*
X112308946Y-74445674D01*
X112328733Y-74460599D01*
X112352820Y-74470883D01*
X112381759Y-74476309D01*
X112397997Y-74477010D01*
X112417019Y-74476207D01*
X112434556Y-74473714D01*
X112449064Y-74470009D01*
X112462906Y-74464802D01*
X112488973Y-74449917D01*
X112514476Y-74428870D01*
X112513914Y-74443988D01*
X112513914Y-74468071D01*
X112625338Y-74468071D01*
X112622665Y-74444587D01*
X112621260Y-74417212D01*
X112620868Y-74384051D01*
X112620868Y-74211982D01*
X112621773Y-74168767D01*
X112624976Y-74131315D01*
X112625338Y-74128427D01*
X112509420Y-74128427D01*
G37*
G36*
X112799752Y-74469194D02*
G01*
X112796690Y-74435668D01*
X112795388Y-74402059D01*
X112795258Y-74384588D01*
X112795258Y-74271406D01*
X112805477Y-74256253D01*
X112816138Y-74243352D01*
X112826330Y-74233470D01*
X112836882Y-74225496D01*
X112847066Y-74219764D01*
X112857552Y-74215700D01*
X112867944Y-74213359D01*
X112878606Y-74212568D01*
X112878715Y-74212568D01*
X112888998Y-74213338D01*
X112898097Y-74215603D01*
X112905469Y-74219028D01*
X112911619Y-74223653D01*
X112915669Y-74228273D01*
X112920137Y-74236150D01*
X112922945Y-74245498D01*
X112924633Y-74269721D01*
X112924633Y-74384588D01*
X112923726Y-74428129D01*
X112920503Y-74466229D01*
X112920139Y-74469194D01*
X113036618Y-74469194D01*
X113033837Y-74438727D01*
X113032342Y-74403923D01*
X113032149Y-74385150D01*
X113032149Y-74244515D01*
X113031352Y-74223885D01*
X113028901Y-74205696D01*
X113025404Y-74191768D01*
X113020561Y-74179203D01*
X113014714Y-74168429D01*
X113007572Y-74158513D01*
X113000226Y-74150408D01*
X112981262Y-74135831D01*
X112957544Y-74125551D01*
X112928487Y-74119911D01*
X112910052Y-74119048D01*
X112891897Y-74119843D01*
X112874858Y-74122286D01*
X112860121Y-74126024D01*
X112846000Y-74131266D01*
X112819525Y-74146165D01*
X112794696Y-74166651D01*
X112794992Y-74158275D01*
X112795258Y-74150970D01*
X112795258Y-74128427D01*
X112683834Y-74128427D01*
X112687881Y-74178502D01*
X112688304Y-74212788D01*
X112688304Y-74384857D01*
X112687399Y-74428680D01*
X112684196Y-74466300D01*
X112683834Y-74469194D01*
X112799752Y-74469194D01*
G37*
G36*
X113138785Y-74128427D02*
G01*
X113118635Y-74128427D01*
X113093076Y-74127639D01*
X113070061Y-74125255D01*
X113068785Y-74125080D01*
X113068785Y-74218577D01*
X113092517Y-74216070D01*
X113117512Y-74215230D01*
X113138785Y-74215230D01*
X113138785Y-74385663D01*
X113139601Y-74404675D01*
X113142183Y-74420483D01*
X113145580Y-74431035D01*
X113150291Y-74440262D01*
X113163140Y-74455105D01*
X113167899Y-74458985D01*
X113187084Y-74469411D01*
X113213066Y-74476059D01*
X113250233Y-74478573D01*
X113273838Y-74477767D01*
X113295052Y-74475247D01*
X113327512Y-74467387D01*
X113319110Y-74382317D01*
X113306121Y-74388083D01*
X113293771Y-74391309D01*
X113279909Y-74392355D01*
X113269661Y-74391598D01*
X113260852Y-74389422D01*
X113254141Y-74386225D01*
X113249779Y-74382228D01*
X113246734Y-74376954D01*
X113244131Y-74362034D01*
X113244054Y-74357819D01*
X113244054Y-74215230D01*
X113267575Y-74215230D01*
X113293689Y-74216009D01*
X113317258Y-74218335D01*
X113319110Y-74218577D01*
X113319110Y-74125642D01*
X113295282Y-74127833D01*
X113266767Y-74128425D01*
X113264228Y-74128427D01*
X113244054Y-74128427D01*
X113244054Y-74116678D01*
X113246907Y-74055174D01*
X113248548Y-74039962D01*
X113134316Y-74039962D01*
X113137284Y-74069570D01*
X113138612Y-74098982D01*
X113138785Y-74116678D01*
X113138785Y-74128427D01*
G37*
D11*
G36*
X110587142Y-72458436D02*
G01*
X110593845Y-72515278D01*
X110597376Y-72581953D01*
X110598377Y-72664760D01*
X110598377Y-72896120D01*
X110126561Y-72896120D01*
X110126561Y-72664760D01*
X110128822Y-72557387D01*
X110136831Y-72465649D01*
X110137735Y-72458436D01*
X109836767Y-72458436D01*
X109844219Y-72527593D01*
X109847517Y-72607766D01*
X109847941Y-72664760D01*
X109847941Y-73415075D01*
X109845649Y-73531755D01*
X109837419Y-73618459D01*
X109836767Y-73622986D01*
X110137735Y-73622986D01*
X110130281Y-73550142D01*
X110126974Y-73469001D01*
X110126561Y-73415075D01*
X110126561Y-73142561D01*
X110598377Y-73142561D01*
X110598377Y-73415075D01*
X110596109Y-73529656D01*
X110588052Y-73616480D01*
X110587142Y-73622986D01*
X110888171Y-73622986D01*
X110879781Y-73534201D01*
X110876979Y-73433771D01*
X110876936Y-73415075D01*
X110876936Y-72664760D01*
X110879204Y-72550031D01*
X110887261Y-72464745D01*
X110888171Y-72458436D01*
X110587142Y-72458436D01*
G37*
G36*
X111770213Y-72476895D02*
G01*
X111786084Y-72532544D01*
X111813241Y-72609745D01*
X112117079Y-73452566D01*
X112184246Y-73622986D01*
X111856655Y-73622986D01*
X111840917Y-73540218D01*
X111823072Y-73472105D01*
X111785275Y-73353342D01*
X111386243Y-73353342D01*
X111348447Y-73472105D01*
X111339530Y-73500785D01*
X111323914Y-73562025D01*
X111313459Y-73622986D01*
X110985868Y-73622986D01*
X111014742Y-73557697D01*
X111053096Y-73452566D01*
X111173055Y-73118197D01*
X111453471Y-73118197D01*
X111716643Y-73118197D01*
X111583653Y-72697978D01*
X111453471Y-73118197D01*
X111173055Y-73118197D01*
X111355469Y-72609745D01*
X111374688Y-72555249D01*
X111400287Y-72458436D01*
X111765675Y-72458436D01*
X111770213Y-72476895D01*
G37*
G36*
X112250802Y-73312554D02*
G01*
X112313627Y-73305277D01*
X112379640Y-73302801D01*
X112386601Y-73302784D01*
X112663756Y-73302784D01*
X112731379Y-73304888D01*
X112794476Y-73311800D01*
X112799555Y-73312554D01*
X112799555Y-73046573D01*
X112744631Y-73053366D01*
X112685757Y-73056170D01*
X112663756Y-73056343D01*
X112386601Y-73056343D01*
X112316719Y-73054213D01*
X112254211Y-73047118D01*
X112250802Y-73046573D01*
X112250802Y-73312554D01*
G37*
G36*
X113689759Y-73198920D02*
G01*
X113689759Y-73357922D01*
X113645751Y-73378051D01*
X113602754Y-73392834D01*
X113564428Y-73401672D01*
X113524826Y-73406719D01*
X113486732Y-73408175D01*
X113446720Y-73406237D01*
X113409689Y-73400487D01*
X113377178Y-73391519D01*
X113347564Y-73379241D01*
X113321866Y-73364368D01*
X113299012Y-73346579D01*
X113285109Y-73332826D01*
X113249724Y-73282537D01*
X113222473Y-73216086D01*
X113205024Y-73131157D01*
X113199747Y-73040711D01*
X113201691Y-72985367D01*
X113207489Y-72934288D01*
X113216397Y-72890262D01*
X113228611Y-72850139D01*
X113243070Y-72816034D01*
X113260375Y-72785496D01*
X113279417Y-72759837D01*
X113300960Y-72737497D01*
X113324220Y-72719041D01*
X113349774Y-72703797D01*
X113407473Y-72683160D01*
X113476901Y-72675812D01*
X113513243Y-72677781D01*
X113546235Y-72683741D01*
X113573439Y-72692687D01*
X113598140Y-72705060D01*
X113618318Y-72719166D01*
X113638726Y-72737522D01*
X113655159Y-72758763D01*
X113678048Y-72809426D01*
X113681332Y-72819733D01*
X113966913Y-72754092D01*
X113947270Y-72701911D01*
X113925450Y-72658384D01*
X113884298Y-72601624D01*
X113855964Y-72570348D01*
X113825282Y-72542361D01*
X113792743Y-72517985D01*
X113757908Y-72496774D01*
X113680908Y-72463651D01*
X113592339Y-72442799D01*
X113489703Y-72435009D01*
X113483923Y-72434989D01*
X113429161Y-72436928D01*
X113376657Y-72442687D01*
X113327274Y-72451998D01*
X113280233Y-72464839D01*
X113236210Y-72480878D01*
X113194616Y-72500189D01*
X113155895Y-72522457D01*
X113119702Y-72547775D01*
X113086245Y-72575939D01*
X113055438Y-72606974D01*
X113001960Y-72677500D01*
X112959693Y-72759322D01*
X112929398Y-72852541D01*
X112912154Y-72957243D01*
X112908548Y-73036498D01*
X112910489Y-73096125D01*
X112916259Y-73153812D01*
X112925636Y-73208632D01*
X112938594Y-73261098D01*
X112954664Y-73309930D01*
X112974018Y-73356072D01*
X112995893Y-73398110D01*
X113020734Y-73437210D01*
X113073717Y-73500560D01*
X113104920Y-73529423D01*
X113138504Y-73555154D01*
X113212724Y-73597245D01*
X113297927Y-73627439D01*
X113396236Y-73645445D01*
X113489541Y-73650341D01*
X113610688Y-73642697D01*
X113670690Y-73633139D01*
X113728960Y-73619936D01*
X113786357Y-73602775D01*
X113846072Y-73580269D01*
X113903876Y-73551149D01*
X113964105Y-73514603D01*
X113957213Y-73444582D01*
X113954622Y-73366644D01*
X113954335Y-73306325D01*
X113954335Y-73149888D01*
X113956439Y-73043815D01*
X113963351Y-72965364D01*
X113964105Y-72959501D01*
X113804498Y-72966397D01*
X113779335Y-72966461D01*
X113667349Y-72966461D01*
X113558303Y-72964912D01*
X113483923Y-72958096D01*
X113483923Y-73205881D01*
X113542740Y-73200293D01*
X113622531Y-73198920D01*
X113689759Y-73198920D01*
G37*
G36*
X114828134Y-72476895D02*
G01*
X114844004Y-72532544D01*
X114871161Y-72609745D01*
X115175000Y-73452566D01*
X115242166Y-73622986D01*
X114914576Y-73622986D01*
X114898837Y-73540218D01*
X114880992Y-73472105D01*
X114843196Y-73353342D01*
X114444164Y-73353342D01*
X114406367Y-73472105D01*
X114397450Y-73500785D01*
X114381835Y-73562025D01*
X114371379Y-73622986D01*
X114043789Y-73622986D01*
X114072663Y-73557697D01*
X114111017Y-73452566D01*
X114230976Y-73118197D01*
X114511392Y-73118197D01*
X114774563Y-73118197D01*
X114641573Y-72697978D01*
X114511392Y-73118197D01*
X114230976Y-73118197D01*
X114413389Y-72609745D01*
X114432609Y-72555249D01*
X114458208Y-72458436D01*
X114823595Y-72458436D01*
X114828134Y-72476895D01*
G37*
G36*
X115769120Y-73272376D02*
G01*
X115782928Y-73349030D01*
X115799895Y-73402557D01*
X115814980Y-73437852D01*
X115833123Y-73470355D01*
X115853930Y-73499656D01*
X115877538Y-73526182D01*
X115932858Y-73570822D01*
X115951081Y-73581770D01*
X116019725Y-73612459D01*
X116112159Y-73636632D01*
X116222734Y-73649372D01*
X116263285Y-73650341D01*
X116323617Y-73648393D01*
X116380018Y-73642569D01*
X116429771Y-73633516D01*
X116475970Y-73621046D01*
X116516633Y-73606028D01*
X116554048Y-73587964D01*
X116586987Y-73567719D01*
X116616891Y-73544693D01*
X116631481Y-73531395D01*
X116674478Y-73478539D01*
X116705688Y-73415537D01*
X116724387Y-73342374D01*
X116729483Y-73273780D01*
X116727529Y-73231202D01*
X116721667Y-73191302D01*
X116712509Y-73155945D01*
X116699843Y-73122926D01*
X116684193Y-73093081D01*
X116665238Y-73065382D01*
X116617425Y-73016321D01*
X116578297Y-72988260D01*
X116543908Y-72968919D01*
X116504772Y-72951579D01*
X116403562Y-72920309D01*
X116351517Y-72908454D01*
X116203445Y-72877496D01*
X116158321Y-72862292D01*
X116135159Y-72849279D01*
X116117125Y-72834355D01*
X116105317Y-72819461D01*
X116097374Y-72802980D01*
X116092498Y-72772716D01*
X116094409Y-72753664D01*
X116099972Y-72735920D01*
X116121763Y-72704322D01*
X116157821Y-72679460D01*
X116207467Y-72664614D01*
X116240875Y-72662135D01*
X116279942Y-72664124D01*
X116313518Y-72670229D01*
X116337754Y-72678715D01*
X116358499Y-72690391D01*
X116374663Y-72704065D01*
X116388166Y-72720644D01*
X116408029Y-72763797D01*
X116414532Y-72790912D01*
X116711287Y-72758672D01*
X116694503Y-72695140D01*
X116675181Y-72645495D01*
X116641311Y-72590694D01*
X116594032Y-72538291D01*
X116534444Y-72495552D01*
X116461580Y-72462698D01*
X116374191Y-72440727D01*
X116271120Y-72431293D01*
X116252110Y-72431081D01*
X116196302Y-72433016D01*
X116143576Y-72438748D01*
X116095318Y-72447875D01*
X116050251Y-72460395D01*
X116009740Y-72475671D01*
X115972471Y-72493945D01*
X115939592Y-72514403D01*
X115909974Y-72537497D01*
X115884413Y-72562389D01*
X115862135Y-72589611D01*
X115843565Y-72618508D01*
X115828345Y-72649498D01*
X115816631Y-72682293D01*
X115808410Y-72717011D01*
X115802704Y-72782486D01*
X115804646Y-72821441D01*
X115810429Y-72858667D01*
X115819750Y-72893336D01*
X115832626Y-72926115D01*
X115848764Y-72956513D01*
X115868243Y-72984849D01*
X115916872Y-73034803D01*
X115938503Y-73051214D01*
X115974734Y-73073869D01*
X116015608Y-73092483D01*
X116111821Y-73120614D01*
X116163878Y-73132424D01*
X116312477Y-73168473D01*
X116373927Y-73189822D01*
X116404551Y-73212171D01*
X116425234Y-73245951D01*
X116430813Y-73266168D01*
X116432728Y-73287824D01*
X116430795Y-73310507D01*
X116425083Y-73331224D01*
X116416049Y-73349348D01*
X116403693Y-73365430D01*
X116368926Y-73391381D01*
X116319186Y-73408337D01*
X116260476Y-73413792D01*
X116226151Y-73411864D01*
X116194233Y-73406180D01*
X116165901Y-73397224D01*
X116140469Y-73385019D01*
X116119212Y-73370485D01*
X116101145Y-73353245D01*
X116096711Y-73347969D01*
X116080737Y-73322959D01*
X116069626Y-73294982D01*
X116060319Y-73244410D01*
X115769120Y-73272376D01*
G37*
G36*
X116970917Y-72771067D02*
G01*
X116920542Y-72771067D01*
X116856644Y-72769099D01*
X116799106Y-72763139D01*
X116795917Y-72762702D01*
X116795917Y-72996442D01*
X116855245Y-72990176D01*
X116917733Y-72988077D01*
X116970917Y-72988077D01*
X116970917Y-73414159D01*
X116972956Y-73461688D01*
X116979411Y-73501209D01*
X116987904Y-73527589D01*
X116999680Y-73550656D01*
X117031805Y-73587764D01*
X117043702Y-73597463D01*
X117091665Y-73623529D01*
X117156619Y-73640149D01*
X117249537Y-73646434D01*
X117308549Y-73644417D01*
X117361585Y-73638119D01*
X117442733Y-73618468D01*
X117421728Y-73405793D01*
X117389256Y-73420208D01*
X117358382Y-73428272D01*
X117323726Y-73430889D01*
X117298107Y-73428996D01*
X117276085Y-73423556D01*
X117259307Y-73415563D01*
X117248402Y-73405571D01*
X117240789Y-73392387D01*
X117234281Y-73355085D01*
X117234089Y-73344549D01*
X117234089Y-72988077D01*
X117292890Y-72988077D01*
X117358178Y-72990024D01*
X117417098Y-72995838D01*
X117421728Y-72996442D01*
X117421728Y-72764106D01*
X117362160Y-72769582D01*
X117290872Y-72771062D01*
X117284525Y-72771067D01*
X117234089Y-72771067D01*
X117234089Y-72741697D01*
X117241222Y-72587936D01*
X117245324Y-72549905D01*
X116959743Y-72549905D01*
X116967164Y-72623925D01*
X116970484Y-72697456D01*
X116970917Y-72741697D01*
X116970917Y-72771067D01*
G37*
G36*
X118121301Y-72771067D02*
G01*
X118128961Y-72854423D01*
X118132213Y-72937389D01*
X118132536Y-72979956D01*
X118132536Y-73265354D01*
X118110035Y-73298344D01*
X118085452Y-73327540D01*
X118059595Y-73352276D01*
X118032365Y-73372854D01*
X118005277Y-73388443D01*
X117977496Y-73399771D01*
X117950889Y-73406360D01*
X117924145Y-73408777D01*
X117922487Y-73408785D01*
X117897557Y-73406859D01*
X117875444Y-73401192D01*
X117857173Y-73392520D01*
X117841595Y-73380780D01*
X117831507Y-73369767D01*
X117820986Y-73352221D01*
X117814084Y-73330973D01*
X117809098Y-73265354D01*
X117809098Y-72979956D01*
X117811365Y-72872970D01*
X117819422Y-72778439D01*
X117820333Y-72771067D01*
X117529134Y-72771067D01*
X117536094Y-72846891D01*
X117539828Y-72933484D01*
X117540308Y-72979956D01*
X117540308Y-73329406D01*
X117542300Y-73380777D01*
X117548427Y-73426113D01*
X117557178Y-73460882D01*
X117569300Y-73492272D01*
X117583939Y-73519210D01*
X117601822Y-73544013D01*
X117620115Y-73564185D01*
X117669584Y-73601497D01*
X117729800Y-73627208D01*
X117802147Y-73640772D01*
X117842742Y-73642526D01*
X117890299Y-73640519D01*
X117934140Y-73634286D01*
X117970410Y-73625024D01*
X118005016Y-73612006D01*
X118070184Y-73574792D01*
X118133941Y-73522175D01*
X118132536Y-73559972D01*
X118132536Y-73620177D01*
X118411095Y-73620177D01*
X118404412Y-73561468D01*
X118400900Y-73493030D01*
X118399921Y-73410129D01*
X118399921Y-72979956D01*
X118402182Y-72871919D01*
X118410191Y-72778289D01*
X118411095Y-72771067D01*
X118121301Y-72771067D01*
G37*
G36*
X119486013Y-72464977D02*
G01*
X119477956Y-72559113D01*
X119475689Y-72678011D01*
X119475689Y-73403168D01*
X119476100Y-73458782D01*
X119479419Y-73544387D01*
X119486924Y-73622986D01*
X119211113Y-73622986D01*
X119211113Y-73580366D01*
X119212517Y-73549591D01*
X119170083Y-73581323D01*
X119102645Y-73619345D01*
X119067692Y-73632431D01*
X119031162Y-73641683D01*
X118983152Y-73648282D01*
X118929684Y-73650341D01*
X118905748Y-73649828D01*
X118821162Y-73638809D01*
X118747177Y-73614442D01*
X118683159Y-73577530D01*
X118654687Y-73554363D01*
X118628775Y-73528198D01*
X118605109Y-73498578D01*
X118584226Y-73465998D01*
X118565757Y-73429557D01*
X118550364Y-73390151D01*
X118537789Y-73346498D01*
X118528642Y-73299861D01*
X118522883Y-73248718D01*
X118521033Y-73197088D01*
X118792541Y-73197088D01*
X118793034Y-73217398D01*
X118803414Y-73286514D01*
X118825312Y-73341291D01*
X118856899Y-73382712D01*
X118886875Y-73406502D01*
X118911176Y-73419298D01*
X118937518Y-73428658D01*
X118992698Y-73436202D01*
X119021991Y-73434229D01*
X119049810Y-73428453D01*
X119076497Y-73418853D01*
X119101275Y-73405732D01*
X119124412Y-73388932D01*
X119145162Y-73368930D01*
X119163568Y-73345610D01*
X119179101Y-73319487D01*
X119191593Y-73290690D01*
X119200766Y-73259569D01*
X119206385Y-73226573D01*
X119208304Y-73191775D01*
X119208304Y-73191406D01*
X119206344Y-73157574D01*
X119200678Y-73125612D01*
X119191568Y-73095934D01*
X119179177Y-73068541D01*
X119145745Y-73021952D01*
X119102273Y-72987213D01*
X119077335Y-72974666D01*
X119050366Y-72965468D01*
X119021668Y-72959834D01*
X118991294Y-72957913D01*
X118943385Y-72963079D01*
X118917686Y-72970854D01*
X118894072Y-72981996D01*
X118872409Y-72996577D01*
X118853100Y-73014365D01*
X118835776Y-73035929D01*
X118821190Y-73060642D01*
X118809062Y-73089519D01*
X118800156Y-73121506D01*
X118794470Y-73157788D01*
X118792541Y-73197088D01*
X118521033Y-73197088D01*
X118520943Y-73194584D01*
X118521699Y-73161202D01*
X118533355Y-73065472D01*
X118557840Y-72982807D01*
X118593990Y-72912238D01*
X118641294Y-72852950D01*
X118694638Y-72809101D01*
X118727132Y-72789719D01*
X118761817Y-72773664D01*
X118799309Y-72760774D01*
X118838833Y-72751449D01*
X118881249Y-72745656D01*
X118925532Y-72743712D01*
X118979491Y-72746210D01*
X119056388Y-72760953D01*
X119093479Y-72774139D01*
X119129720Y-72791422D01*
X119170800Y-72816407D01*
X119212517Y-72847332D01*
X119211113Y-72794148D01*
X119211113Y-72678011D01*
X119210280Y-72599051D01*
X119206798Y-72524226D01*
X119199938Y-72458436D01*
X119486924Y-72458436D01*
X119486013Y-72464977D01*
G37*
G36*
X119638110Y-72458436D02*
G01*
X119638110Y-72668485D01*
X119922348Y-72668485D01*
X119922348Y-72458436D01*
X119638110Y-72458436D01*
G37*
G36*
X119633958Y-72771067D02*
G01*
X119641095Y-72840477D01*
X119644510Y-72917123D01*
X119645132Y-72981971D01*
X119645132Y-73412144D01*
X119642871Y-73521778D01*
X119634862Y-73615473D01*
X119633958Y-73622986D01*
X119926561Y-73622986D01*
X119916067Y-73467478D01*
X119915326Y-73412144D01*
X119915326Y-72981971D01*
X119917593Y-72865052D01*
X119925651Y-72777406D01*
X119926561Y-72771067D01*
X119633958Y-72771067D01*
G37*
G36*
X120554297Y-72738156D02*
G01*
X120644718Y-72753326D01*
X120724262Y-72781604D01*
X120792982Y-72821928D01*
X120850847Y-72873633D01*
X120875682Y-72903715D01*
X120897568Y-72936425D01*
X120916616Y-72972087D01*
X120932469Y-73010252D01*
X120945211Y-73051492D01*
X120954467Y-73095121D01*
X120960213Y-73141886D01*
X120962151Y-73190921D01*
X120959514Y-73247497D01*
X120943531Y-73336121D01*
X120914127Y-73415047D01*
X120872329Y-73483884D01*
X120847024Y-73514396D01*
X120818909Y-73542189D01*
X120787973Y-73567245D01*
X120754415Y-73589353D01*
X120718063Y-73608540D01*
X120679266Y-73624521D01*
X120637708Y-73637298D01*
X120593875Y-73646586D01*
X120547366Y-73652314D01*
X120498761Y-73654249D01*
X120443435Y-73651846D01*
X120353882Y-73636428D01*
X120275011Y-73607883D01*
X120206771Y-73567222D01*
X120176630Y-73542541D01*
X120149213Y-73515054D01*
X120124472Y-73484667D01*
X120102662Y-73451617D01*
X120083658Y-73415542D01*
X120067836Y-73376920D01*
X120055109Y-73335144D01*
X120045861Y-73290926D01*
X120040117Y-73243493D01*
X120038180Y-73193729D01*
X120038240Y-73192325D01*
X120305565Y-73192325D01*
X120312090Y-73267867D01*
X120330769Y-73330235D01*
X120359382Y-73377905D01*
X120396872Y-73412260D01*
X120419086Y-73424705D01*
X120443453Y-73433786D01*
X120470746Y-73439517D01*
X120500165Y-73441453D01*
X120545070Y-73436881D01*
X120592935Y-73418958D01*
X120613860Y-73404870D01*
X120632439Y-73387537D01*
X120649299Y-73366028D01*
X120663459Y-73341164D01*
X120675469Y-73311180D01*
X120684273Y-73277641D01*
X120690019Y-73238254D01*
X120691957Y-73195134D01*
X120685900Y-73120995D01*
X120667744Y-73057733D01*
X120639761Y-73009673D01*
X120603048Y-72975192D01*
X120581263Y-72962719D01*
X120557361Y-72953628D01*
X120530512Y-72947882D01*
X120501570Y-72945945D01*
X120453927Y-72951044D01*
X120405544Y-72969682D01*
X120384344Y-72984140D01*
X120365503Y-73001830D01*
X120348461Y-73023588D01*
X120334141Y-73048631D01*
X120322075Y-73078490D01*
X120313229Y-73111745D01*
X120307500Y-73150303D01*
X120305565Y-73192325D01*
X120038240Y-73192325D01*
X120040516Y-73139450D01*
X120055814Y-73050356D01*
X120084249Y-72971904D01*
X120124835Y-72904006D01*
X120149510Y-72873995D01*
X120177008Y-72846693D01*
X120207452Y-72822033D01*
X120240583Y-72800291D01*
X120276803Y-72781326D01*
X120315602Y-72765535D01*
X120357635Y-72752819D01*
X120402149Y-72743578D01*
X120449968Y-72737833D01*
X120500165Y-72735896D01*
X120554297Y-72738156D01*
G37*
D12*
X130190476Y-63454819D02*
X130190476Y-62454819D01*
X130190476Y-62454819D02*
X130523809Y-63169104D01*
X130523809Y-63169104D02*
X130857142Y-62454819D01*
X130857142Y-62454819D02*
X130857142Y-63454819D01*
X131238095Y-62454819D02*
X131857142Y-62454819D01*
X131857142Y-62454819D02*
X131523809Y-62835771D01*
X131523809Y-62835771D02*
X131666666Y-62835771D01*
X131666666Y-62835771D02*
X131761904Y-62883390D01*
X131761904Y-62883390D02*
X131809523Y-62931009D01*
X131809523Y-62931009D02*
X131857142Y-63026247D01*
X131857142Y-63026247D02*
X131857142Y-63264342D01*
X131857142Y-63264342D02*
X131809523Y-63359580D01*
X131809523Y-63359580D02*
X131761904Y-63407200D01*
X131761904Y-63407200D02*
X131666666Y-63454819D01*
X131666666Y-63454819D02*
X131380952Y-63454819D01*
X131380952Y-63454819D02*
X131285714Y-63407200D01*
X131285714Y-63407200D02*
X131238095Y-63359580D01*
X119833333Y-70204819D02*
X119500000Y-69728628D01*
X119261905Y-70204819D02*
X119261905Y-69204819D01*
X119261905Y-69204819D02*
X119642857Y-69204819D01*
X119642857Y-69204819D02*
X119738095Y-69252438D01*
X119738095Y-69252438D02*
X119785714Y-69300057D01*
X119785714Y-69300057D02*
X119833333Y-69395295D01*
X119833333Y-69395295D02*
X119833333Y-69538152D01*
X119833333Y-69538152D02*
X119785714Y-69633390D01*
X119785714Y-69633390D02*
X119738095Y-69681009D01*
X119738095Y-69681009D02*
X119642857Y-69728628D01*
X119642857Y-69728628D02*
X119261905Y-69728628D01*
X120785714Y-70204819D02*
X120214286Y-70204819D01*
X120500000Y-70204819D02*
X120500000Y-69204819D01*
X120500000Y-69204819D02*
X120404762Y-69347676D01*
X120404762Y-69347676D02*
X120309524Y-69442914D01*
X120309524Y-69442914D02*
X120214286Y-69490533D01*
X108261905Y-72204819D02*
X108261905Y-71204819D01*
X108261905Y-71204819D02*
X108500000Y-71204819D01*
X108500000Y-71204819D02*
X108642857Y-71252438D01*
X108642857Y-71252438D02*
X108738095Y-71347676D01*
X108738095Y-71347676D02*
X108785714Y-71442914D01*
X108785714Y-71442914D02*
X108833333Y-71633390D01*
X108833333Y-71633390D02*
X108833333Y-71776247D01*
X108833333Y-71776247D02*
X108785714Y-71966723D01*
X108785714Y-71966723D02*
X108738095Y-72061961D01*
X108738095Y-72061961D02*
X108642857Y-72157200D01*
X108642857Y-72157200D02*
X108500000Y-72204819D01*
X108500000Y-72204819D02*
X108261905Y-72204819D01*
X109214286Y-71300057D02*
X109261905Y-71252438D01*
X109261905Y-71252438D02*
X109357143Y-71204819D01*
X109357143Y-71204819D02*
X109595238Y-71204819D01*
X109595238Y-71204819D02*
X109690476Y-71252438D01*
X109690476Y-71252438D02*
X109738095Y-71300057D01*
X109738095Y-71300057D02*
X109785714Y-71395295D01*
X109785714Y-71395295D02*
X109785714Y-71490533D01*
X109785714Y-71490533D02*
X109738095Y-71633390D01*
X109738095Y-71633390D02*
X109166667Y-72204819D01*
X109166667Y-72204819D02*
X109785714Y-72204819D01*
X109833333Y-70204819D02*
X109500000Y-69728628D01*
X109261905Y-70204819D02*
X109261905Y-69204819D01*
X109261905Y-69204819D02*
X109642857Y-69204819D01*
X109642857Y-69204819D02*
X109738095Y-69252438D01*
X109738095Y-69252438D02*
X109785714Y-69300057D01*
X109785714Y-69300057D02*
X109833333Y-69395295D01*
X109833333Y-69395295D02*
X109833333Y-69538152D01*
X109833333Y-69538152D02*
X109785714Y-69633390D01*
X109785714Y-69633390D02*
X109738095Y-69681009D01*
X109738095Y-69681009D02*
X109642857Y-69728628D01*
X109642857Y-69728628D02*
X109261905Y-69728628D01*
X110214286Y-69300057D02*
X110261905Y-69252438D01*
X110261905Y-69252438D02*
X110357143Y-69204819D01*
X110357143Y-69204819D02*
X110595238Y-69204819D01*
X110595238Y-69204819D02*
X110690476Y-69252438D01*
X110690476Y-69252438D02*
X110738095Y-69300057D01*
X110738095Y-69300057D02*
X110785714Y-69395295D01*
X110785714Y-69395295D02*
X110785714Y-69490533D01*
X110785714Y-69490533D02*
X110738095Y-69633390D01*
X110738095Y-69633390D02*
X110166667Y-70204819D01*
X110166667Y-70204819D02*
X110785714Y-70204819D01*
X98190476Y-63454819D02*
X98190476Y-62454819D01*
X98190476Y-62454819D02*
X98523809Y-63169104D01*
X98523809Y-63169104D02*
X98857142Y-62454819D01*
X98857142Y-62454819D02*
X98857142Y-63454819D01*
X99238095Y-62454819D02*
X99857142Y-62454819D01*
X99857142Y-62454819D02*
X99523809Y-62835771D01*
X99523809Y-62835771D02*
X99666666Y-62835771D01*
X99666666Y-62835771D02*
X99761904Y-62883390D01*
X99761904Y-62883390D02*
X99809523Y-62931009D01*
X99809523Y-62931009D02*
X99857142Y-63026247D01*
X99857142Y-63026247D02*
X99857142Y-63264342D01*
X99857142Y-63264342D02*
X99809523Y-63359580D01*
X99809523Y-63359580D02*
X99761904Y-63407200D01*
X99761904Y-63407200D02*
X99666666Y-63454819D01*
X99666666Y-63454819D02*
X99380952Y-63454819D01*
X99380952Y-63454819D02*
X99285714Y-63407200D01*
X99285714Y-63407200D02*
X99238095Y-63359580D01*
X120241905Y-72204819D02*
X120241905Y-71204819D01*
X120241905Y-71204819D02*
X120480000Y-71204819D01*
X120480000Y-71204819D02*
X120622857Y-71252438D01*
X120622857Y-71252438D02*
X120718095Y-71347676D01*
X120718095Y-71347676D02*
X120765714Y-71442914D01*
X120765714Y-71442914D02*
X120813333Y-71633390D01*
X120813333Y-71633390D02*
X120813333Y-71776247D01*
X120813333Y-71776247D02*
X120765714Y-71966723D01*
X120765714Y-71966723D02*
X120718095Y-72061961D01*
X120718095Y-72061961D02*
X120622857Y-72157200D01*
X120622857Y-72157200D02*
X120480000Y-72204819D01*
X120480000Y-72204819D02*
X120241905Y-72204819D01*
X121765714Y-72204819D02*
X121194286Y-72204819D01*
X121480000Y-72204819D02*
X121480000Y-71204819D01*
X121480000Y-71204819D02*
X121384762Y-71347676D01*
X121384762Y-71347676D02*
X121289524Y-71442914D01*
X121289524Y-71442914D02*
X121194286Y-71490533D01*
D13*
%TO.C,R1*%
X118472936Y-65890000D02*
X121527064Y-65890000D01*
X118472936Y-68610000D02*
X121527064Y-68610000D01*
%TO.C,D2*%
X103460000Y-70514000D02*
X103460000Y-70670000D01*
X103460000Y-72830000D02*
X103460000Y-72986000D01*
X103460000Y-70514484D02*
G75*
G02*
X106691437Y-70670000I1560000J-1235516D01*
G01*
X103979039Y-70670000D02*
G75*
G02*
X106060961Y-70670000I1040961J-1080000D01*
G01*
X106060961Y-72830000D02*
G75*
G02*
X103979039Y-72830000I-1040961J1080000D01*
G01*
X106691437Y-72830000D02*
G75*
G02*
X103460000Y-72985516I-1671437J1080000D01*
G01*
%TO.C,R2*%
X111527064Y-65890000D02*
X108472936Y-65890000D01*
X111527064Y-68610000D02*
X108472936Y-68610000D01*
%TO.C,D1*%
X126540000Y-70670000D02*
X126540000Y-70514000D01*
X126540000Y-72986000D02*
X126540000Y-72830000D01*
X123308563Y-70670000D02*
G75*
G02*
X126540000Y-70514484I1671437J-1080000D01*
G01*
X123939039Y-70670000D02*
G75*
G02*
X126020961Y-70670000I1040961J-1080000D01*
G01*
X126020961Y-72830000D02*
G75*
G02*
X123939039Y-72830000I-1040961J1080000D01*
G01*
X126540000Y-72985516D02*
G75*
G02*
X123308563Y-72830000I-1560000J1235516D01*
G01*
%TD*%
M02*
