%TF.GenerationSoftware,KiCad,Pcbnew,9.0.6*%
%TF.CreationDate,2025-12-21T18:03:19+09:00*%
%TF.ProjectId,re_winder_pcb,72655f77-696e-4646-9572-5f7063622e6b,rev?*%
%TF.SameCoordinates,Original*%
%TF.FileFunction,Copper,L1,Top*%
%TF.FilePolarity,Positive*%
%FSLAX46Y46*%
G04 Gerber Fmt 4.6, Leading zero omitted, Abs format (unit mm)*
G04 Created by KiCad (PCBNEW 9.0.6) date 2025-12-21 18:03:19*
%MOMM*%
%LPD*%
G01*
G04 APERTURE LIST*
G04 Aperture macros list*
%AMRoundRect*
0 Rectangle with rounded corners*
0 $1 Rounding radius*
0 $2 $3 $4 $5 $6 $7 $8 $9 X,Y pos of 4 corners*
0 Add a 4 corners polygon primitive as box body*
4,1,4,$2,$3,$4,$5,$6,$7,$8,$9,$2,$3,0*
0 Add four circle primitives for the rounded corners*
1,1,$1+$1,$2,$3*
1,1,$1+$1,$4,$5*
1,1,$1+$1,$6,$7*
1,1,$1+$1,$8,$9*
0 Add four rect primitives between the rounded corners*
20,1,$1+$1,$2,$3,$4,$5,0*
20,1,$1+$1,$4,$5,$6,$7,0*
20,1,$1+$1,$6,$7,$8,$9,0*
20,1,$1+$1,$8,$9,$2,$3,0*%
G04 Aperture macros list end*
%ADD10C,0.300000*%
%ADD11C,0.125000*%
%TA.AperFunction,ComponentPad*%
%ADD12C,1.600000*%
%TD*%
%TA.AperFunction,SMDPad,CuDef*%
%ADD13RoundRect,0.250000X-0.350000X-0.450000X0.350000X-0.450000X0.350000X0.450000X-0.350000X0.450000X0*%
%TD*%
%TA.AperFunction,SMDPad,CuDef*%
%ADD14RoundRect,0.250000X0.450000X-0.350000X0.450000X0.350000X-0.450000X0.350000X-0.450000X-0.350000X0*%
%TD*%
%TA.AperFunction,ComponentPad*%
%ADD15RoundRect,0.250000X0.625000X-0.350000X0.625000X0.350000X-0.625000X0.350000X-0.625000X-0.350000X0*%
%TD*%
%TA.AperFunction,ComponentPad*%
%ADD16O,1.750000X1.200000*%
%TD*%
%TA.AperFunction,SMDPad,CuDef*%
%ADD17RoundRect,0.250000X0.350000X0.450000X-0.350000X0.450000X-0.350000X-0.450000X0.350000X-0.450000X0*%
%TD*%
%TA.AperFunction,ComponentPad*%
%ADD18RoundRect,0.250000X-0.625000X0.350000X-0.625000X-0.350000X0.625000X-0.350000X0.625000X0.350000X0*%
%TD*%
%TA.AperFunction,SMDPad,CuDef*%
%ADD19RoundRect,0.250000X0.295000X-0.407500X0.295000X0.407500X-0.295000X0.407500X-0.295000X-0.407500X0*%
%TD*%
%TA.AperFunction,ComponentPad*%
%ADD20R,2.000000X2.000000*%
%TD*%
%TA.AperFunction,ComponentPad*%
%ADD21C,2.000000*%
%TD*%
%TA.AperFunction,SMDPad,CuDef*%
%ADD22RoundRect,0.250000X1.000000X0.650000X-1.000000X0.650000X-1.000000X-0.650000X1.000000X-0.650000X0*%
%TD*%
%TA.AperFunction,ComponentPad*%
%ADD23RoundRect,0.190500X1.079500X0.444500X-1.079500X0.444500X-1.079500X-0.444500X1.079500X-0.444500X0*%
%TD*%
%TA.AperFunction,ComponentPad*%
%ADD24RoundRect,0.250000X-0.600000X-0.750000X0.600000X-0.750000X0.600000X0.750000X-0.600000X0.750000X0*%
%TD*%
%TA.AperFunction,ComponentPad*%
%ADD25O,1.700000X2.000000*%
%TD*%
%TA.AperFunction,ComponentPad*%
%ADD26RoundRect,0.250000X0.350000X0.625000X-0.350000X0.625000X-0.350000X-0.625000X0.350000X-0.625000X0*%
%TD*%
%TA.AperFunction,ComponentPad*%
%ADD27O,1.200000X1.750000*%
%TD*%
%TA.AperFunction,SMDPad,CuDef*%
%ADD28RoundRect,0.250000X-0.450000X0.350000X-0.450000X-0.350000X0.450000X-0.350000X0.450000X0.350000X0*%
%TD*%
%TA.AperFunction,SMDPad,CuDef*%
%ADD29RoundRect,0.150000X-0.587500X-0.150000X0.587500X-0.150000X0.587500X0.150000X-0.587500X0.150000X0*%
%TD*%
%TA.AperFunction,SMDPad,CuDef*%
%ADD30RoundRect,0.250000X0.407500X0.295000X-0.407500X0.295000X-0.407500X-0.295000X0.407500X-0.295000X0*%
%TD*%
%TA.AperFunction,ComponentPad*%
%ADD31RoundRect,0.190500X0.444500X-0.762000X0.444500X0.762000X-0.444500X0.762000X-0.444500X-0.762000X0*%
%TD*%
%TA.AperFunction,ComponentPad*%
%ADD32RoundRect,0.250000X0.750000X0.750000X-0.750000X0.750000X-0.750000X-0.750000X0.750000X-0.750000X0*%
%TD*%
%TA.AperFunction,SMDPad,CuDef*%
%ADD33RoundRect,0.250000X-0.295000X0.407500X-0.295000X-0.407500X0.295000X-0.407500X0.295000X0.407500X0*%
%TD*%
%TA.AperFunction,SMDPad,CuDef*%
%ADD34RoundRect,0.150000X-0.150000X0.587500X-0.150000X-0.587500X0.150000X-0.587500X0.150000X0.587500X0*%
%TD*%
%TA.AperFunction,Conductor*%
%ADD35C,2.000000*%
%TD*%
%TA.AperFunction,Conductor*%
%ADD36C,1.500000*%
%TD*%
%TA.AperFunction,Conductor*%
%ADD37C,1.000000*%
%TD*%
%TA.AperFunction,Conductor*%
%ADD38C,0.500000*%
%TD*%
G04 APERTURE END LIST*
D10*
G36*
X98070565Y-89203409D02*
G01*
X98000304Y-89211735D01*
X97919324Y-89216063D01*
X97820631Y-89217258D01*
X97545345Y-89217258D01*
X97545345Y-88655768D01*
X97820631Y-88655768D01*
X97949633Y-88658513D01*
X98061637Y-88668354D01*
X98070565Y-88669470D01*
X98070565Y-88302959D01*
X97985513Y-88312195D01*
X97888655Y-88316228D01*
X97820631Y-88316734D01*
X96920254Y-88316734D01*
X96780075Y-88313941D01*
X96674045Y-88303770D01*
X96668415Y-88302959D01*
X96668415Y-88669543D01*
X96757745Y-88660315D01*
X96855523Y-88656268D01*
X96920254Y-88655768D01*
X97244926Y-88655768D01*
X97244926Y-89217258D01*
X96920254Y-89217258D01*
X96782603Y-89214496D01*
X96676495Y-89204540D01*
X96668415Y-89203409D01*
X96668415Y-89569993D01*
X96777525Y-89559648D01*
X96899095Y-89556263D01*
X96920254Y-89556218D01*
X97820631Y-89556218D01*
X97958460Y-89558980D01*
X98062721Y-89568935D01*
X98070565Y-89570066D01*
X98070565Y-89203409D01*
G37*
G36*
X96749574Y-89716868D02*
G01*
X96876071Y-89763067D01*
X97887456Y-90125914D01*
X97952675Y-90148926D01*
X98015736Y-90167948D01*
X98070565Y-90179916D01*
X98070565Y-90622191D01*
X98047316Y-90627911D01*
X97979861Y-90647124D01*
X97887456Y-90679637D01*
X96876071Y-91044243D01*
X96830193Y-91060915D01*
X96668415Y-91126308D01*
X96668415Y-90727558D01*
X96769321Y-90708415D01*
X96851158Y-90686964D01*
X96991988Y-90642195D01*
X96991988Y-90558297D01*
X97278852Y-90558297D01*
X97772930Y-90401933D01*
X97278852Y-90248866D01*
X97278852Y-90558297D01*
X96991988Y-90558297D01*
X96991988Y-90166727D01*
X96851085Y-90121884D01*
X96818100Y-90111624D01*
X96743660Y-90092635D01*
X96668415Y-90079752D01*
X96668415Y-89680782D01*
X96749574Y-89716868D01*
G37*
G36*
X97040568Y-91200168D02*
G01*
X97049662Y-91278338D01*
X97052644Y-91358584D01*
X97052658Y-91365471D01*
X97052658Y-91698057D01*
X97050093Y-91779332D01*
X97041512Y-91856985D01*
X97040568Y-91863360D01*
X97365240Y-91863360D01*
X97356715Y-91795205D01*
X97353278Y-91723989D01*
X97353077Y-91698057D01*
X97353077Y-91365471D01*
X97355684Y-91281477D01*
X97364553Y-91204460D01*
X97365240Y-91200168D01*
X97040568Y-91200168D01*
G37*
G36*
X97177295Y-92926916D02*
G01*
X96990303Y-92926916D01*
X96966508Y-92874872D01*
X96949011Y-92823799D01*
X96938525Y-92777986D01*
X96932557Y-92730500D01*
X96930879Y-92685628D01*
X96933205Y-92637588D01*
X96940113Y-92593216D01*
X96950857Y-92554438D01*
X96965568Y-92519159D01*
X96983385Y-92488585D01*
X97004706Y-92461403D01*
X97020565Y-92445440D01*
X97080763Y-92403095D01*
X97160318Y-92370556D01*
X97262112Y-92349784D01*
X97369490Y-92343590D01*
X97436012Y-92345925D01*
X97497342Y-92352886D01*
X97550065Y-92363563D01*
X97598065Y-92378203D01*
X97638774Y-92395515D01*
X97675188Y-92416233D01*
X97705731Y-92439020D01*
X97732290Y-92464803D01*
X97754203Y-92492650D01*
X97772264Y-92523249D01*
X97796610Y-92592438D01*
X97805024Y-92673831D01*
X97802660Y-92717433D01*
X97795495Y-92756905D01*
X97784775Y-92789277D01*
X97769946Y-92818652D01*
X97753513Y-92842066D01*
X97731407Y-92866599D01*
X97705621Y-92886324D01*
X97643903Y-92913730D01*
X97631880Y-92917537D01*
X97711748Y-93264923D01*
X97775842Y-93240863D01*
X97828816Y-93214460D01*
X97897934Y-93164466D01*
X97935460Y-93130491D01*
X97969062Y-93093684D01*
X98023926Y-93012733D01*
X98063885Y-92920168D01*
X98089119Y-92813759D01*
X98098666Y-92690655D01*
X98098702Y-92682258D01*
X98096375Y-92616538D01*
X98089465Y-92553512D01*
X98078288Y-92494188D01*
X98062875Y-92437663D01*
X98043614Y-92384728D01*
X98020425Y-92334701D01*
X97993679Y-92288100D01*
X97963269Y-92244528D01*
X97929436Y-92204230D01*
X97892157Y-92167110D01*
X97807452Y-92102630D01*
X97709213Y-92051611D01*
X97597352Y-92014970D01*
X97471795Y-91993993D01*
X97374546Y-91989463D01*
X97303006Y-91991792D01*
X97233753Y-91998715D01*
X97167862Y-92009974D01*
X97104772Y-92025533D01*
X97046011Y-92044836D01*
X96990468Y-92068083D01*
X96939860Y-92094355D01*
X96892781Y-92124188D01*
X96815987Y-92188325D01*
X96781342Y-92225777D01*
X96750440Y-92266099D01*
X96699787Y-92355312D01*
X96663375Y-92457747D01*
X96641597Y-92575841D01*
X96635589Y-92688999D01*
X96644759Y-92834421D01*
X96656230Y-92906512D01*
X96672072Y-92976516D01*
X96692815Y-93045911D01*
X96719729Y-93117418D01*
X96754682Y-93186872D01*
X96799647Y-93260967D01*
X96885026Y-93252563D01*
X96979281Y-93249432D01*
X97050753Y-93249096D01*
X97238478Y-93249096D01*
X97365952Y-93251662D01*
X97462240Y-93260243D01*
X97469581Y-93261186D01*
X97463132Y-93165456D01*
X97461014Y-93067274D01*
X97460935Y-93036752D01*
X97460935Y-92902369D01*
X97462840Y-92771330D01*
X97471339Y-92679913D01*
X97168649Y-92679913D01*
X97175610Y-92752654D01*
X97177295Y-92848587D01*
X97177295Y-92926916D01*
G37*
G36*
X96749574Y-93386373D02*
G01*
X96876071Y-93432572D01*
X97887456Y-93795419D01*
X97952675Y-93818431D01*
X98015736Y-93837453D01*
X98070565Y-93849421D01*
X98070565Y-94291696D01*
X98047316Y-94297416D01*
X97979861Y-94316629D01*
X97887456Y-94349142D01*
X96876071Y-94713747D01*
X96830193Y-94730420D01*
X96668415Y-94795813D01*
X96668415Y-94397062D01*
X96769321Y-94377920D01*
X96851158Y-94356469D01*
X96991988Y-94311699D01*
X96991988Y-94227802D01*
X97278852Y-94227802D01*
X97772930Y-94071438D01*
X97278852Y-93918371D01*
X97278852Y-94227802D01*
X96991988Y-94227802D01*
X96991988Y-93836232D01*
X96851085Y-93791389D01*
X96818100Y-93781128D01*
X96743660Y-93762139D01*
X96668415Y-93749257D01*
X96668415Y-93350286D01*
X96749574Y-93386373D01*
G37*
G36*
X94960308Y-88471852D02*
G01*
X94894068Y-88488191D01*
X94843431Y-88507264D01*
X94788483Y-88539923D01*
X94731226Y-88593159D01*
X94685100Y-88661884D01*
X94650108Y-88748363D01*
X94627502Y-88855641D01*
X94619589Y-88983663D01*
X94621925Y-89054812D01*
X94628896Y-89121110D01*
X94639676Y-89179004D01*
X94654491Y-89232158D01*
X94671990Y-89277475D01*
X94692954Y-89318284D01*
X94715741Y-89352326D01*
X94741514Y-89382111D01*
X94742834Y-89383440D01*
X94796354Y-89425502D01*
X94863893Y-89454989D01*
X94943140Y-89469086D01*
X94968368Y-89469902D01*
X95011230Y-89467550D01*
X95050789Y-89460464D01*
X95084727Y-89449576D01*
X95115959Y-89434512D01*
X95169232Y-89393134D01*
X95213896Y-89334264D01*
X95228487Y-89307309D01*
X95250822Y-89257822D01*
X95270698Y-89196599D01*
X95309600Y-89031217D01*
X95339046Y-88913361D01*
X95351997Y-88876910D01*
X95365158Y-88852641D01*
X95376892Y-88840318D01*
X95390059Y-88833659D01*
X95406833Y-88831475D01*
X95421748Y-88833788D01*
X95435198Y-88840600D01*
X95457615Y-88867896D01*
X95473163Y-88918394D01*
X95477028Y-88970254D01*
X95474633Y-89010409D01*
X95467247Y-89043126D01*
X95457497Y-89064326D01*
X95444176Y-89081259D01*
X95409618Y-89102121D01*
X95377304Y-89109326D01*
X95413207Y-89438614D01*
X95477439Y-89417646D01*
X95528343Y-89394198D01*
X95559510Y-89374057D01*
X95587607Y-89350183D01*
X95608773Y-89327972D01*
X95654460Y-89264186D01*
X95688373Y-89184069D01*
X95709865Y-89083913D01*
X95716923Y-88968569D01*
X95714601Y-88903639D01*
X95707723Y-88843059D01*
X95696934Y-88789061D01*
X95682172Y-88739423D01*
X95664468Y-88696222D01*
X95643351Y-88657293D01*
X95620089Y-88624228D01*
X95593898Y-88595318D01*
X95565966Y-88571501D01*
X95535478Y-88551771D01*
X95503164Y-88536495D01*
X95468546Y-88525366D01*
X95392523Y-88515972D01*
X95389980Y-88515963D01*
X95312803Y-88525017D01*
X95275324Y-88536298D01*
X95240450Y-88551734D01*
X95228487Y-88558388D01*
X95180042Y-88599913D01*
X95137366Y-88661877D01*
X95107806Y-88727501D01*
X95085592Y-88802671D01*
X95061127Y-88907740D01*
X95047063Y-88976556D01*
X95025777Y-89070922D01*
X95008448Y-89113576D01*
X94996767Y-89129309D01*
X94982430Y-89140678D01*
X94949830Y-89149333D01*
X94932683Y-89147006D01*
X94917540Y-89140094D01*
X94893837Y-89113619D01*
X94877217Y-89065080D01*
X94871208Y-88993775D01*
X94873592Y-88948971D01*
X94880902Y-88910810D01*
X94890985Y-88883743D01*
X94904826Y-88860938D01*
X94920948Y-88843609D01*
X94940458Y-88829574D01*
X94991336Y-88810546D01*
X94997897Y-88809201D01*
X94960308Y-88471852D01*
G37*
G36*
X95679408Y-89742184D02*
G01*
X95679408Y-89684078D01*
X95681812Y-89607239D01*
X95689260Y-89536207D01*
X95689812Y-89532184D01*
X95403902Y-89532184D01*
X95411742Y-89605539D01*
X95414307Y-89680708D01*
X95414307Y-89742184D01*
X94905353Y-89742184D01*
X94848509Y-89744625D01*
X94801040Y-89752336D01*
X94769040Y-89762545D01*
X94741020Y-89776697D01*
X94695993Y-89815220D01*
X94683483Y-89830478D01*
X94652105Y-89888116D01*
X94631993Y-89966179D01*
X94624279Y-90078873D01*
X94626707Y-90149649D01*
X94634325Y-90213570D01*
X94658497Y-90313199D01*
X94919055Y-90287480D01*
X94900630Y-90246286D01*
X94890652Y-90208458D01*
X94887621Y-90167899D01*
X94889894Y-90137246D01*
X94896426Y-90111112D01*
X94905646Y-90091915D01*
X94917577Y-90078971D01*
X94933445Y-90070065D01*
X94978705Y-90062822D01*
X94988884Y-90062679D01*
X95414307Y-90062679D01*
X95414307Y-90130896D01*
X95411929Y-90209395D01*
X95404666Y-90282017D01*
X95403902Y-90287847D01*
X95688054Y-90287847D01*
X95681204Y-90213726D01*
X95679412Y-90127044D01*
X95679408Y-90120858D01*
X95679408Y-90062679D01*
X95712307Y-90062679D01*
X95897866Y-90071381D01*
X95944802Y-90076455D01*
X95944802Y-89728482D01*
X95853661Y-89737641D01*
X95764559Y-89741677D01*
X95712307Y-89742184D01*
X95679408Y-89742184D01*
G37*
G36*
X95679408Y-91122351D02*
G01*
X95577197Y-91131789D01*
X95476982Y-91135744D01*
X95426397Y-91136127D01*
X95084579Y-91136127D01*
X95045152Y-91109225D01*
X95010299Y-91079835D01*
X94980842Y-91048955D01*
X94956381Y-91016435D01*
X94937910Y-90984101D01*
X94924547Y-90950935D01*
X94916849Y-90919159D01*
X94914148Y-90887211D01*
X94914146Y-90886413D01*
X94916460Y-90856507D01*
X94923278Y-90830138D01*
X94933649Y-90808587D01*
X94947694Y-90790260D01*
X94960015Y-90779068D01*
X94981089Y-90766520D01*
X95006733Y-90758363D01*
X95083919Y-90752690D01*
X95426397Y-90752690D01*
X95554933Y-90755444D01*
X95670289Y-90765341D01*
X95679408Y-90766465D01*
X95679408Y-90411751D01*
X95586145Y-90420355D01*
X95481424Y-90424890D01*
X95426397Y-90425453D01*
X95007056Y-90425453D01*
X94945487Y-90427842D01*
X94891034Y-90435185D01*
X94849084Y-90445700D01*
X94811172Y-90460268D01*
X94778620Y-90477856D01*
X94748649Y-90499335D01*
X94723637Y-90521954D01*
X94678769Y-90581388D01*
X94647690Y-90653866D01*
X94631178Y-90740841D01*
X94628968Y-90790718D01*
X94631362Y-90847732D01*
X94638741Y-90900279D01*
X94649795Y-90944198D01*
X94665279Y-90985908D01*
X94709298Y-91063732D01*
X94769432Y-91136859D01*
X94730378Y-91136127D01*
X94655786Y-91136127D01*
X94655786Y-91475453D01*
X94728225Y-91467156D01*
X94811215Y-91462850D01*
X94910189Y-91461678D01*
X95426397Y-91461678D01*
X95556195Y-91464423D01*
X95670468Y-91474264D01*
X95679408Y-91475380D01*
X95679408Y-91122351D01*
G37*
G36*
X95209928Y-91603170D02*
G01*
X95324889Y-91617316D01*
X95424294Y-91646873D01*
X95509194Y-91690422D01*
X95580489Y-91747295D01*
X95633712Y-91812223D01*
X95656990Y-91851422D01*
X95676280Y-91893256D01*
X95691757Y-91938423D01*
X95702956Y-91986008D01*
X95709902Y-92036943D01*
X95712234Y-92090066D01*
X95709328Y-92154007D01*
X95691732Y-92247238D01*
X95676078Y-92291815D01*
X95655645Y-92335094D01*
X95626539Y-92383303D01*
X95590748Y-92431737D01*
X95649366Y-92430418D01*
X95788731Y-92430418D01*
X95883420Y-92429411D01*
X95973780Y-92425142D01*
X96054565Y-92416643D01*
X96054565Y-92766448D01*
X96046443Y-92765316D01*
X95931562Y-92755361D01*
X95788731Y-92752599D01*
X94918542Y-92752599D01*
X94852638Y-92753083D01*
X94749010Y-92757118D01*
X94652415Y-92766374D01*
X94652415Y-92430418D01*
X94705905Y-92430418D01*
X94737412Y-92431517D01*
X94701271Y-92383078D01*
X94656404Y-92302884D01*
X94640858Y-92260814D01*
X94629835Y-92216603D01*
X94623609Y-92170666D01*
X94881247Y-92170666D01*
X94890068Y-92237324D01*
X94901331Y-92269267D01*
X94916817Y-92298921D01*
X94936709Y-92326598D01*
X94960447Y-92351419D01*
X94988187Y-92373447D01*
X95019308Y-92392038D01*
X95053698Y-92407008D01*
X95090908Y-92418001D01*
X95130457Y-92424745D01*
X95172213Y-92427048D01*
X95249563Y-92418373D01*
X95317980Y-92393069D01*
X95373768Y-92353456D01*
X95415367Y-92301741D01*
X95430408Y-92271983D01*
X95441435Y-92239764D01*
X95448197Y-92205395D01*
X95450503Y-92168981D01*
X95444706Y-92113403D01*
X95422523Y-92054333D01*
X95405308Y-92028422D01*
X95384246Y-92005331D01*
X95358645Y-91984610D01*
X95329252Y-91967163D01*
X95294796Y-91952634D01*
X95256567Y-91941964D01*
X95213050Y-91935137D01*
X95165838Y-91932822D01*
X95142890Y-91933345D01*
X95060004Y-91945517D01*
X94994442Y-91971531D01*
X94944774Y-92009319D01*
X94916869Y-92044313D01*
X94901528Y-92073209D01*
X94890312Y-92104560D01*
X94881247Y-92170666D01*
X94623609Y-92170666D01*
X94622042Y-92159106D01*
X94619589Y-92095048D01*
X94620298Y-92064269D01*
X94633857Y-91962869D01*
X94663447Y-91874064D01*
X94708116Y-91797150D01*
X94736113Y-91762926D01*
X94767706Y-91731776D01*
X94803443Y-91703327D01*
X94842726Y-91678223D01*
X94886617Y-91656030D01*
X94934051Y-91637533D01*
X94986530Y-91622435D01*
X95042566Y-91611451D01*
X95103928Y-91604542D01*
X95168842Y-91602215D01*
X95209928Y-91603170D01*
G37*
G36*
X96054565Y-92942815D02*
G01*
X95797817Y-92942815D01*
X95797817Y-93288590D01*
X96054565Y-93288590D01*
X96054565Y-92942815D01*
G37*
G36*
X95679408Y-92937466D02*
G01*
X95594261Y-92946304D01*
X95501816Y-92950488D01*
X95423979Y-92951242D01*
X94907771Y-92951242D01*
X94776056Y-92948496D01*
X94661704Y-92938656D01*
X94652415Y-92937540D01*
X94652415Y-93293939D01*
X94841864Y-93281045D01*
X94907771Y-93280164D01*
X95423979Y-93280164D01*
X95564436Y-93282926D01*
X95671528Y-93292881D01*
X95679408Y-93294012D01*
X95679408Y-92937466D01*
G37*
G36*
X95237076Y-93425889D02*
G01*
X95343913Y-93444572D01*
X95438085Y-93479031D01*
X95519647Y-93528089D01*
X95555710Y-93557882D01*
X95588521Y-93591061D01*
X95618155Y-93627766D01*
X95644283Y-93667691D01*
X95667066Y-93711299D01*
X95686035Y-93757991D01*
X95701302Y-93808520D01*
X95712397Y-93862010D01*
X95719288Y-93919403D01*
X95721613Y-93979626D01*
X95718718Y-94046683D01*
X95700190Y-94155103D01*
X95665920Y-94250578D01*
X95617178Y-94333122D01*
X95554772Y-94402656D01*
X95518501Y-94432499D01*
X95479083Y-94458799D01*
X95436144Y-94481681D01*
X95390213Y-94500725D01*
X95340633Y-94516022D01*
X95288205Y-94527135D01*
X95232072Y-94534029D01*
X95173239Y-94536353D01*
X95103318Y-94532993D01*
X94997016Y-94513487D01*
X94902262Y-94477864D01*
X94819567Y-94427352D01*
X94782903Y-94396806D01*
X94749502Y-94362890D01*
X94719395Y-94325597D01*
X94692828Y-94285165D01*
X94669781Y-94241404D01*
X94650584Y-94194719D01*
X94635244Y-94144761D01*
X94624095Y-94092091D01*
X94617221Y-94036262D01*
X94614967Y-93979626D01*
X94874945Y-93979626D01*
X94880050Y-94031598D01*
X94901040Y-94088946D01*
X94917656Y-94113969D01*
X94938163Y-94136183D01*
X94963678Y-94156343D01*
X94993233Y-94173275D01*
X95028998Y-94187660D01*
X95069077Y-94198205D01*
X95116343Y-94205106D01*
X95168183Y-94207432D01*
X95254735Y-94200594D01*
X95330810Y-94179267D01*
X95388462Y-94146160D01*
X95429782Y-94102563D01*
X95444738Y-94076612D01*
X95455637Y-94048105D01*
X95462539Y-94015981D01*
X95464865Y-93981311D01*
X95459144Y-93926050D01*
X95437293Y-93868089D01*
X95420229Y-93842735D01*
X95399289Y-93820206D01*
X95373467Y-93799826D01*
X95343689Y-93782701D01*
X95308066Y-93768249D01*
X95268323Y-93757652D01*
X95222060Y-93750773D01*
X95171554Y-93748450D01*
X95083270Y-93755836D01*
X95008299Y-93777790D01*
X94951127Y-93811654D01*
X94909962Y-93856186D01*
X94895039Y-93882655D01*
X94884152Y-93911722D01*
X94877268Y-93944383D01*
X94874945Y-93979626D01*
X94614967Y-93979626D01*
X94614900Y-93977941D01*
X94617972Y-93909472D01*
X94636798Y-93802084D01*
X94671390Y-93707411D01*
X94720536Y-93625440D01*
X94750335Y-93589222D01*
X94783500Y-93556272D01*
X94820136Y-93526543D01*
X94859963Y-93500332D01*
X94903397Y-93477504D01*
X94949875Y-93458498D01*
X95000097Y-93443218D01*
X95053230Y-93432115D01*
X95110164Y-93425223D01*
X95169868Y-93422899D01*
X95237076Y-93425889D01*
G37*
D11*
G36*
X95786272Y-98506985D02*
G01*
X95706497Y-98541602D01*
X95675727Y-98554954D01*
X95196425Y-98743119D01*
X95141910Y-98763281D01*
X95101610Y-98773551D01*
X95101610Y-99021360D01*
X95141910Y-99031631D01*
X95196425Y-99051793D01*
X95675727Y-99239958D01*
X95786272Y-99286803D01*
X95786272Y-99034354D01*
X95719629Y-99021610D01*
X95689014Y-99012958D01*
X95342727Y-98908862D01*
X95338981Y-98907658D01*
X95329293Y-98904319D01*
X95318205Y-98901046D01*
X95314377Y-98900125D01*
X95302720Y-98896992D01*
X95317260Y-98892868D01*
X95329391Y-98889420D01*
X95336659Y-98886809D01*
X95341701Y-98884926D01*
X95689014Y-98780830D01*
X95744256Y-98765974D01*
X95786272Y-98759434D01*
X95786272Y-98506985D01*
G37*
G36*
X95484649Y-99321265D02*
G01*
X95557040Y-99333230D01*
X95621353Y-99355908D01*
X95677247Y-99388368D01*
X95724396Y-99429877D01*
X95744578Y-99453870D01*
X95762380Y-99479903D01*
X95777782Y-99508034D01*
X95790607Y-99538057D01*
X95800841Y-99570153D01*
X95808278Y-99603998D01*
X95812861Y-99639871D01*
X95814408Y-99677348D01*
X95814390Y-99681553D01*
X95807867Y-99753405D01*
X95790362Y-99817007D01*
X95762657Y-99872664D01*
X95745085Y-99897604D01*
X95725084Y-99920572D01*
X95702501Y-99941674D01*
X95677548Y-99960640D01*
X95649779Y-99977679D01*
X95619660Y-99992372D01*
X95586464Y-100004907D01*
X95550919Y-100014842D01*
X95487837Y-100025375D01*
X95403836Y-100031695D01*
X95379852Y-100032965D01*
X95379852Y-99816468D01*
X95537535Y-99816468D01*
X95560469Y-99809874D01*
X95595734Y-99790972D01*
X95609777Y-99778399D01*
X95621491Y-99763726D01*
X95631134Y-99746316D01*
X95638187Y-99726689D01*
X95642813Y-99703262D01*
X95644367Y-99677348D01*
X95642903Y-99650801D01*
X95632540Y-99608729D01*
X95612803Y-99575999D01*
X95598854Y-99562249D01*
X95582343Y-99550629D01*
X95561465Y-99540386D01*
X95537535Y-99532609D01*
X95537535Y-99816468D01*
X95379852Y-99816468D01*
X95379852Y-99528995D01*
X95375276Y-99529600D01*
X95328134Y-99541750D01*
X95292492Y-99562186D01*
X95278295Y-99575487D01*
X95266472Y-99590845D01*
X95256754Y-99608922D01*
X95249661Y-99629160D01*
X95245022Y-99653150D01*
X95243466Y-99679546D01*
X95246542Y-99714073D01*
X95260410Y-99756351D01*
X95284646Y-99791605D01*
X95296538Y-99802999D01*
X95315435Y-99815062D01*
X95342775Y-99825261D01*
X95286795Y-100023293D01*
X95225022Y-99992515D01*
X95195622Y-99972302D01*
X95169070Y-99948360D01*
X95162034Y-99940948D01*
X95142276Y-99917070D01*
X95124963Y-99891182D01*
X95109819Y-99862696D01*
X95097275Y-99832206D01*
X95087072Y-99798668D01*
X95079689Y-99763098D01*
X95075032Y-99724045D01*
X95073473Y-99682916D01*
X95073875Y-99661706D01*
X95082382Y-99588267D01*
X95101165Y-99524982D01*
X95129877Y-99469996D01*
X95148176Y-99445071D01*
X95169070Y-99421967D01*
X95182008Y-99409925D01*
X95207347Y-99389747D01*
X95234738Y-99372011D01*
X95264648Y-99356498D01*
X95296438Y-99343628D01*
X95330637Y-99333287D01*
X95366521Y-99325803D01*
X95404574Y-99321183D01*
X95444087Y-99319630D01*
X95484649Y-99321265D01*
G37*
G36*
X95785832Y-100679818D02*
G01*
X95797312Y-100627910D01*
X95801493Y-100588932D01*
X95801903Y-100567027D01*
X95800324Y-100528690D01*
X95795523Y-100493626D01*
X95788332Y-100464540D01*
X95778362Y-100437731D01*
X95766227Y-100414162D01*
X95751450Y-100392324D01*
X95713539Y-100353034D01*
X95702985Y-100344570D01*
X95786272Y-100344570D01*
X95786272Y-100118353D01*
X95727401Y-100124646D01*
X95657800Y-100127282D01*
X95615986Y-100127536D01*
X95271847Y-100127536D01*
X95184006Y-100125706D01*
X95107914Y-100119145D01*
X95101610Y-100118401D01*
X95101610Y-100353754D01*
X95166598Y-100347378D01*
X95236173Y-100344783D01*
X95270724Y-100344570D01*
X95444967Y-100344570D01*
X95483549Y-100349905D01*
X95512613Y-100358817D01*
X95543494Y-100377836D01*
X95561254Y-100393599D01*
X95575934Y-100410967D01*
X95587095Y-100429074D01*
X95595533Y-100448761D01*
X95604412Y-100493508D01*
X95604995Y-100509923D01*
X95603289Y-100540626D01*
X95597601Y-100573021D01*
X95583306Y-100625205D01*
X95785832Y-100679818D01*
G37*
G36*
X95001568Y-100683726D02*
G01*
X94920040Y-100683726D01*
X94920040Y-101247927D01*
X95001568Y-101247927D01*
X95001568Y-100683726D01*
G37*
G36*
X95833655Y-101404242D02*
G01*
X95839361Y-101467763D01*
X95841612Y-101526491D01*
X95841715Y-101542435D01*
X95841715Y-101585666D01*
X95272238Y-101585666D01*
X95184729Y-101583810D01*
X95105801Y-101577068D01*
X95101610Y-101576531D01*
X95101610Y-101824193D01*
X95165048Y-101818118D01*
X95230292Y-101815415D01*
X95272238Y-101815059D01*
X95858958Y-101815059D01*
X95951555Y-101816758D01*
X96034295Y-101822402D01*
X96041017Y-101823021D01*
X96036956Y-101765075D01*
X96036376Y-101682435D01*
X96036376Y-101540188D01*
X96036407Y-101463642D01*
X96042922Y-101404242D01*
X95833655Y-101404242D01*
G37*
G36*
X95330954Y-102166427D02*
G01*
X95101610Y-102166427D01*
X95101610Y-102395771D01*
X95330954Y-102395771D01*
X95330954Y-102166427D01*
G37*
G36*
X95646133Y-102488474D02*
G01*
X95742113Y-102504331D01*
X95820921Y-102528125D01*
X95877374Y-102555163D01*
X95914322Y-102580268D01*
X95939974Y-102601991D01*
X95963176Y-102625709D01*
X95983980Y-102651458D01*
X96002216Y-102679025D01*
X96017979Y-102708610D01*
X96031028Y-102739848D01*
X96041432Y-102773081D01*
X96048951Y-102807802D01*
X96053580Y-102844445D01*
X96055134Y-102882400D01*
X96054445Y-102907879D01*
X96044424Y-102980321D01*
X96023178Y-103046318D01*
X95991604Y-103105000D01*
X95950501Y-103155659D01*
X95935705Y-103169709D01*
X95881923Y-103210082D01*
X95825595Y-103237773D01*
X95764020Y-103257062D01*
X95717274Y-103267674D01*
X95669242Y-103275292D01*
X95618929Y-103279979D01*
X95567381Y-103281542D01*
X95486657Y-103277326D01*
X95390268Y-103261382D01*
X95311378Y-103237612D01*
X95255190Y-103210760D01*
X95219573Y-103186442D01*
X95194263Y-103164867D01*
X95171326Y-103141212D01*
X95150669Y-103115380D01*
X95132533Y-103087653D01*
X95116820Y-103057813D01*
X95103796Y-103026260D01*
X95093409Y-102992694D01*
X95085896Y-102957603D01*
X95081279Y-102920662D01*
X95079772Y-102883524D01*
X95273215Y-102883524D01*
X95274051Y-102900333D01*
X95283878Y-102939437D01*
X95293043Y-102956922D01*
X95305027Y-102972882D01*
X95320789Y-102988112D01*
X95339709Y-103001622D01*
X95363972Y-103014402D01*
X95391998Y-103025120D01*
X95427345Y-103034559D01*
X95467286Y-103041466D01*
X95516776Y-103046142D01*
X95571875Y-103047704D01*
X95634488Y-103045408D01*
X95711682Y-103034117D01*
X95769033Y-103015506D01*
X95810431Y-102991169D01*
X95839000Y-102961590D01*
X95849147Y-102944521D01*
X95856492Y-102925970D01*
X95861160Y-102904981D01*
X95862720Y-102882400D01*
X95861926Y-102866997D01*
X95858298Y-102847013D01*
X95851783Y-102828320D01*
X95842127Y-102810477D01*
X95829536Y-102794074D01*
X95813015Y-102778267D01*
X95793321Y-102764170D01*
X95768625Y-102750939D01*
X95740418Y-102739801D01*
X95706262Y-102730219D01*
X95668261Y-102723190D01*
X95623793Y-102718597D01*
X95575246Y-102717048D01*
X95503151Y-102719826D01*
X95424655Y-102731542D01*
X95366885Y-102750293D01*
X95325445Y-102774578D01*
X95296929Y-102804037D01*
X95286791Y-102821086D01*
X95279457Y-102839634D01*
X95274777Y-102860756D01*
X95273215Y-102883524D01*
X95079772Y-102883524D01*
X95079726Y-102882400D01*
X95080490Y-102854973D01*
X95090506Y-102782870D01*
X95111457Y-102718108D01*
X95142781Y-102660564D01*
X95162280Y-102634466D01*
X95184311Y-102610216D01*
X95199107Y-102596166D01*
X95252888Y-102555793D01*
X95309217Y-102528101D01*
X95370503Y-102508883D01*
X95417301Y-102498228D01*
X95465287Y-102490583D01*
X95515257Y-102485896D01*
X95566258Y-102484333D01*
X95646133Y-102488474D01*
G37*
D10*
G36*
X97161295Y-97499588D02*
G01*
X96974303Y-97499588D01*
X96950508Y-97447544D01*
X96933011Y-97396471D01*
X96922525Y-97350658D01*
X96916557Y-97303172D01*
X96914879Y-97258300D01*
X96917205Y-97210260D01*
X96924113Y-97165889D01*
X96934857Y-97127110D01*
X96949568Y-97091831D01*
X96967385Y-97061258D01*
X96988706Y-97034075D01*
X97004565Y-97018112D01*
X97064763Y-96975767D01*
X97144318Y-96943228D01*
X97246112Y-96922456D01*
X97353490Y-96916263D01*
X97420012Y-96918597D01*
X97481342Y-96925558D01*
X97534065Y-96936235D01*
X97582065Y-96950876D01*
X97622774Y-96968187D01*
X97659188Y-96988906D01*
X97689731Y-97011692D01*
X97716290Y-97037475D01*
X97738203Y-97065322D01*
X97756264Y-97095922D01*
X97780610Y-97165110D01*
X97789024Y-97246503D01*
X97786660Y-97290105D01*
X97779495Y-97329577D01*
X97768775Y-97361949D01*
X97753946Y-97391324D01*
X97737513Y-97414738D01*
X97715407Y-97439271D01*
X97689621Y-97458997D01*
X97627903Y-97486402D01*
X97615880Y-97490209D01*
X97695748Y-97837595D01*
X97759842Y-97813536D01*
X97812816Y-97787132D01*
X97881934Y-97737138D01*
X97919460Y-97703163D01*
X97953062Y-97666356D01*
X98007926Y-97585405D01*
X98047885Y-97492840D01*
X98073119Y-97386432D01*
X98082666Y-97263327D01*
X98082702Y-97254930D01*
X98080375Y-97189210D01*
X98073465Y-97126184D01*
X98062288Y-97066860D01*
X98046875Y-97010335D01*
X98027614Y-96957401D01*
X98004425Y-96907373D01*
X97977679Y-96860772D01*
X97947269Y-96817200D01*
X97913436Y-96776902D01*
X97876157Y-96739782D01*
X97791452Y-96675302D01*
X97693213Y-96624283D01*
X97581352Y-96587642D01*
X97455795Y-96566665D01*
X97358546Y-96562135D01*
X97287006Y-96564464D01*
X97217753Y-96571387D01*
X97151862Y-96582646D01*
X97088772Y-96598205D01*
X97030011Y-96617508D01*
X96974468Y-96640755D01*
X96923860Y-96667028D01*
X96876781Y-96696860D01*
X96799987Y-96760997D01*
X96765342Y-96798450D01*
X96734440Y-96838771D01*
X96683787Y-96927984D01*
X96647375Y-97030419D01*
X96625597Y-97148513D01*
X96619589Y-97261671D01*
X96628759Y-97407093D01*
X96640230Y-97479185D01*
X96656072Y-97549188D01*
X96676815Y-97618583D01*
X96703729Y-97690090D01*
X96738682Y-97759544D01*
X96783647Y-97833639D01*
X96869026Y-97825235D01*
X96963281Y-97822104D01*
X97034753Y-97821769D01*
X97222478Y-97821769D01*
X97349952Y-97824334D01*
X97446240Y-97832915D01*
X97453581Y-97833859D01*
X97447132Y-97738129D01*
X97445014Y-97639946D01*
X97444935Y-97609424D01*
X97444935Y-97475041D01*
X97446840Y-97344002D01*
X97455339Y-97252585D01*
X97152649Y-97252585D01*
X97159610Y-97325327D01*
X97161295Y-97421259D01*
X97161295Y-97499588D01*
G37*
G36*
X97679408Y-98710348D02*
G01*
X97577197Y-98719786D01*
X97476982Y-98723741D01*
X97426397Y-98724124D01*
X97084579Y-98724124D01*
X97045152Y-98697222D01*
X97010299Y-98667832D01*
X96980842Y-98636952D01*
X96956381Y-98604432D01*
X96937910Y-98572098D01*
X96924547Y-98538933D01*
X96916849Y-98507156D01*
X96914148Y-98475208D01*
X96914146Y-98474410D01*
X96916460Y-98444504D01*
X96923278Y-98418135D01*
X96933649Y-98396585D01*
X96947694Y-98378257D01*
X96960015Y-98367065D01*
X96981089Y-98354517D01*
X97006733Y-98346360D01*
X97083919Y-98340687D01*
X97426397Y-98340687D01*
X97554933Y-98343441D01*
X97670289Y-98353339D01*
X97679408Y-98354462D01*
X97679408Y-97999748D01*
X97586145Y-98008352D01*
X97481424Y-98012887D01*
X97426397Y-98013450D01*
X97007056Y-98013450D01*
X96945487Y-98015839D01*
X96891034Y-98023182D01*
X96849084Y-98033697D01*
X96811172Y-98048265D01*
X96778620Y-98065853D01*
X96748649Y-98087332D01*
X96723637Y-98109951D01*
X96678769Y-98169385D01*
X96647690Y-98241863D01*
X96631178Y-98328838D01*
X96628968Y-98378715D01*
X96631362Y-98435729D01*
X96638741Y-98488276D01*
X96649795Y-98532195D01*
X96665279Y-98573905D01*
X96709298Y-98651729D01*
X96769432Y-98724856D01*
X96730378Y-98724124D01*
X96655786Y-98724124D01*
X96655786Y-99063450D01*
X96728225Y-99055153D01*
X96811215Y-99050848D01*
X96910189Y-99049675D01*
X97426397Y-99049675D01*
X97556195Y-99052421D01*
X97670468Y-99062261D01*
X97679408Y-99063377D01*
X97679408Y-98710348D01*
G37*
G36*
X98054565Y-99238866D02*
G01*
X97797817Y-99238866D01*
X97797817Y-99584640D01*
X98054565Y-99584640D01*
X98054565Y-99238866D01*
G37*
G36*
X97679408Y-99233517D02*
G01*
X97594261Y-99242355D01*
X97501816Y-99246538D01*
X97423979Y-99247292D01*
X96907771Y-99247292D01*
X96776056Y-99244546D01*
X96661704Y-99234706D01*
X96652415Y-99233590D01*
X96652415Y-99589989D01*
X96841864Y-99577096D01*
X96907771Y-99576214D01*
X97423979Y-99576214D01*
X97564436Y-99578976D01*
X97671528Y-99588931D01*
X97679408Y-99590062D01*
X97679408Y-99233517D01*
G37*
G36*
X97679408Y-99895317D02*
G01*
X97679408Y-99837212D01*
X97681812Y-99760372D01*
X97689260Y-99689340D01*
X97689812Y-99685317D01*
X97403902Y-99685317D01*
X97411742Y-99758672D01*
X97414307Y-99833841D01*
X97414307Y-99895317D01*
X96905353Y-99895317D01*
X96848509Y-99897758D01*
X96801040Y-99905470D01*
X96769040Y-99915678D01*
X96741020Y-99929830D01*
X96695993Y-99968354D01*
X96683483Y-99983611D01*
X96652105Y-100041249D01*
X96631993Y-100119313D01*
X96624279Y-100232006D01*
X96626707Y-100302782D01*
X96634325Y-100366703D01*
X96658497Y-100466332D01*
X96919055Y-100440614D01*
X96900630Y-100399419D01*
X96890652Y-100361591D01*
X96887621Y-100321032D01*
X96889894Y-100290379D01*
X96896426Y-100264245D01*
X96905646Y-100245048D01*
X96917577Y-100232104D01*
X96933445Y-100223198D01*
X96978705Y-100215955D01*
X96988884Y-100215812D01*
X97414307Y-100215812D01*
X97414307Y-100284030D01*
X97411929Y-100362528D01*
X97404666Y-100435151D01*
X97403902Y-100440980D01*
X97688054Y-100440980D01*
X97681204Y-100366859D01*
X97679412Y-100280177D01*
X97679408Y-100273991D01*
X97679408Y-100215812D01*
X97712307Y-100215812D01*
X97897866Y-100224514D01*
X97944802Y-100229588D01*
X97944802Y-99881615D01*
X97853661Y-99890775D01*
X97764559Y-99894811D01*
X97712307Y-99895317D01*
X97679408Y-99895317D01*
G37*
G36*
X97226973Y-100525645D02*
G01*
X97335561Y-100543593D01*
X97432030Y-100577609D01*
X97515871Y-100626299D01*
X97586594Y-100688564D01*
X97616868Y-100724552D01*
X97643570Y-100763603D01*
X97666673Y-100805799D01*
X97685911Y-100850832D01*
X97701261Y-100898977D01*
X97712417Y-100949745D01*
X97719291Y-101003553D01*
X97721613Y-101059769D01*
X97721585Y-101066078D01*
X97711801Y-101173855D01*
X97685543Y-101269259D01*
X97643986Y-101352744D01*
X97617628Y-101390154D01*
X97587626Y-101424606D01*
X97553752Y-101456258D01*
X97516322Y-101484708D01*
X97474669Y-101510265D01*
X97429490Y-101532305D01*
X97379696Y-101551108D01*
X97326379Y-101566011D01*
X97231756Y-101581811D01*
X97105755Y-101591290D01*
X97069778Y-101593196D01*
X97069778Y-101268450D01*
X97306302Y-101268450D01*
X97340703Y-101258558D01*
X97393602Y-101230205D01*
X97414666Y-101211346D01*
X97432236Y-101189337D01*
X97446702Y-101163222D01*
X97457281Y-101133782D01*
X97464219Y-101098641D01*
X97466550Y-101059769D01*
X97464355Y-101019950D01*
X97448810Y-100956842D01*
X97419204Y-100907747D01*
X97398282Y-100887121D01*
X97373514Y-100869692D01*
X97342197Y-100854326D01*
X97306302Y-100842662D01*
X97306302Y-101268450D01*
X97069778Y-101268450D01*
X97069778Y-100837240D01*
X97062914Y-100838147D01*
X96992201Y-100856372D01*
X96938739Y-100887027D01*
X96917442Y-100906978D01*
X96899709Y-100930015D01*
X96885131Y-100957131D01*
X96874491Y-100987488D01*
X96867534Y-101023472D01*
X96865200Y-101063066D01*
X96869814Y-101114858D01*
X96890615Y-101178274D01*
X96926969Y-101231154D01*
X96944808Y-101248247D01*
X96973153Y-101266340D01*
X97014163Y-101281639D01*
X96930193Y-101578688D01*
X96837533Y-101532519D01*
X96793433Y-101502201D01*
X96753605Y-101466287D01*
X96743052Y-101455169D01*
X96713414Y-101419353D01*
X96687444Y-101380521D01*
X96664729Y-101337792D01*
X96645912Y-101292057D01*
X96630608Y-101241750D01*
X96619534Y-101188394D01*
X96612548Y-101129816D01*
X96610210Y-101068122D01*
X96610812Y-101036307D01*
X96623573Y-100926147D01*
X96651747Y-100831221D01*
X96694816Y-100748742D01*
X96722264Y-100711355D01*
X96753605Y-100676699D01*
X96773012Y-100658635D01*
X96811020Y-100628368D01*
X96852108Y-100601764D01*
X96896972Y-100578494D01*
X96944658Y-100559189D01*
X96995955Y-100543678D01*
X97049782Y-100532453D01*
X97106861Y-100525522D01*
X97166131Y-100523192D01*
X97226973Y-100525645D01*
G37*
G36*
X97678748Y-102563475D02*
G01*
X97695968Y-102485612D01*
X97702240Y-102427146D01*
X97702855Y-102394288D01*
X97700486Y-102336783D01*
X97693284Y-102284186D01*
X97682499Y-102240558D01*
X97667543Y-102200344D01*
X97649341Y-102164991D01*
X97627175Y-102132233D01*
X97570309Y-102073298D01*
X97554478Y-102060603D01*
X97679408Y-102060603D01*
X97679408Y-101721277D01*
X97591102Y-101730716D01*
X97486701Y-101734670D01*
X97423979Y-101735052D01*
X96907771Y-101735052D01*
X96776010Y-101732306D01*
X96661871Y-101722466D01*
X96652415Y-101721350D01*
X96652415Y-102074378D01*
X96749898Y-102064815D01*
X96854259Y-102060922D01*
X96906086Y-102060603D01*
X97167450Y-102060603D01*
X97225324Y-102068605D01*
X97268920Y-102081974D01*
X97315242Y-102110502D01*
X97341881Y-102134147D01*
X97363902Y-102160199D01*
X97380643Y-102187359D01*
X97393300Y-102216889D01*
X97406619Y-102284010D01*
X97407492Y-102308632D01*
X97404934Y-102354687D01*
X97396402Y-102403279D01*
X97374959Y-102481556D01*
X97678748Y-102563475D01*
G37*
G36*
X98054565Y-103481950D02*
G01*
X98054565Y-103849926D01*
X98054546Y-103856170D01*
X98045352Y-103980010D01*
X98021137Y-104083186D01*
X97983885Y-104168190D01*
X97934586Y-104237246D01*
X97905375Y-104266356D01*
X97873111Y-104291899D01*
X97837236Y-104314155D01*
X97798283Y-104332635D01*
X97754830Y-104347718D01*
X97708172Y-104358665D01*
X97656036Y-104365630D01*
X97600493Y-104367965D01*
X97587348Y-104367840D01*
X97483514Y-104357119D01*
X97393357Y-104330393D01*
X97315906Y-104288852D01*
X97281655Y-104262606D01*
X97250504Y-104232813D01*
X97222148Y-104199048D01*
X97197136Y-104161788D01*
X97175037Y-104120028D01*
X97156621Y-104074758D01*
X97141561Y-104024437D01*
X97130605Y-103970558D01*
X97123689Y-103911202D01*
X97121362Y-103848241D01*
X97121362Y-103833073D01*
X97411595Y-103833073D01*
X97418367Y-103893789D01*
X97439598Y-103945315D01*
X97455241Y-103965949D01*
X97474191Y-103983251D01*
X97497178Y-103997524D01*
X97523534Y-104008012D01*
X97555185Y-104014886D01*
X97590454Y-104017208D01*
X97644311Y-104011654D01*
X97693884Y-103991874D01*
X97713827Y-103976687D01*
X97730484Y-103958037D01*
X97744588Y-103934414D01*
X97754920Y-103906968D01*
X97761918Y-103872283D01*
X97764258Y-103833073D01*
X97764258Y-103585118D01*
X97411595Y-103585118D01*
X97411595Y-103833073D01*
X97121362Y-103833073D01*
X97121362Y-103585118D01*
X96908504Y-103585118D01*
X96862595Y-103585494D01*
X96751465Y-103589924D01*
X96652415Y-103598820D01*
X96652415Y-103232309D01*
X96658443Y-103233120D01*
X96772701Y-103243292D01*
X96903521Y-103246085D01*
X97811958Y-103246085D01*
X97889053Y-103245113D01*
X98059401Y-103232309D01*
X98054565Y-103481950D01*
G37*
G36*
X98054565Y-104503960D02*
G01*
X97797817Y-104503960D01*
X97797817Y-104849734D01*
X98054565Y-104849734D01*
X98054565Y-104503960D01*
G37*
G36*
X97679408Y-104498611D02*
G01*
X97594261Y-104507449D01*
X97501816Y-104511633D01*
X97423979Y-104512386D01*
X96907771Y-104512386D01*
X96776056Y-104509640D01*
X96661704Y-104499800D01*
X96652415Y-104498684D01*
X96652415Y-104855083D01*
X96841864Y-104842190D01*
X96907771Y-104841308D01*
X97423979Y-104841308D01*
X97564436Y-104844070D01*
X97671528Y-104854025D01*
X97679408Y-104855157D01*
X97679408Y-104498611D01*
G37*
G36*
X97366606Y-106022393D02*
G01*
X97414921Y-106007980D01*
X97459995Y-105989633D01*
X97501018Y-105967903D01*
X97538778Y-105942593D01*
X97572894Y-105914098D01*
X97603672Y-105882294D01*
X97655017Y-105809037D01*
X97692532Y-105722555D01*
X97715215Y-105622300D01*
X97721613Y-105525603D01*
X97719289Y-105467646D01*
X97712402Y-105412320D01*
X97701282Y-105360527D01*
X97685978Y-105311530D01*
X97666895Y-105266042D01*
X97643972Y-105223510D01*
X97617586Y-105184399D01*
X97587656Y-105148417D01*
X97517868Y-105086479D01*
X97435046Y-105038187D01*
X97339369Y-105004435D01*
X97230958Y-104986541D01*
X97169062Y-104984043D01*
X97110433Y-104986370D01*
X97053586Y-104993281D01*
X96999337Y-105004556D01*
X96947580Y-105020131D01*
X96899739Y-105039416D01*
X96854975Y-105062614D01*
X96814953Y-105088665D01*
X96778436Y-105118195D01*
X96759980Y-105135865D01*
X96703628Y-105204182D01*
X96659777Y-105286732D01*
X96629861Y-105383261D01*
X96615751Y-105492987D01*
X96614900Y-105528974D01*
X96617228Y-105589756D01*
X96624145Y-105647531D01*
X96635193Y-105700703D01*
X96650404Y-105750650D01*
X96669056Y-105795861D01*
X96691456Y-105837694D01*
X96716723Y-105874935D01*
X96745368Y-105908674D01*
X96809073Y-105962749D01*
X96855230Y-105989746D01*
X96905447Y-106011818D01*
X96978333Y-106034263D01*
X97027646Y-105720289D01*
X96989768Y-105711214D01*
X96963352Y-105699160D01*
X96949244Y-105690027D01*
X96912332Y-105652503D01*
X96886838Y-105600468D01*
X96876606Y-105537162D01*
X96876557Y-105532344D01*
X96878873Y-105500506D01*
X96885708Y-105470761D01*
X96896721Y-105443570D01*
X96911806Y-105418649D01*
X96954198Y-105375580D01*
X97013656Y-105342287D01*
X97091277Y-105320965D01*
X97172433Y-105314651D01*
X97224707Y-105316972D01*
X97272221Y-105323842D01*
X97312439Y-105334337D01*
X97348163Y-105348618D01*
X97377497Y-105365373D01*
X97402636Y-105385268D01*
X97422590Y-105407063D01*
X97438534Y-105431540D01*
X97457826Y-105487192D01*
X97461494Y-105528974D01*
X97459160Y-105563183D01*
X97452199Y-105594139D01*
X97441506Y-105620281D01*
X97426841Y-105643627D01*
X97403682Y-105668339D01*
X97379507Y-105686018D01*
X97350378Y-105699950D01*
X97303738Y-105715526D01*
X97366606Y-106022393D01*
G37*
G36*
X98054565Y-106158681D02*
G01*
X97972470Y-106167036D01*
X97870868Y-106171665D01*
X97797011Y-106172456D01*
X96907771Y-106172456D01*
X96772371Y-106169702D01*
X96661006Y-106159804D01*
X96652415Y-106158681D01*
X96652415Y-106506873D01*
X96726256Y-106497000D01*
X96816684Y-106493413D01*
X96899418Y-106493025D01*
X96965437Y-106493025D01*
X97083333Y-106616123D01*
X96878023Y-106742372D01*
X96796581Y-106788789D01*
X96718784Y-106826866D01*
X96652415Y-106853527D01*
X96652415Y-107288548D01*
X96726275Y-107230476D01*
X96857094Y-107138603D01*
X96870549Y-107129253D01*
X97277872Y-106849863D01*
X97511100Y-107092030D01*
X97605640Y-107190225D01*
X97679408Y-107273087D01*
X97679408Y-106818649D01*
X97630389Y-106783333D01*
X97576660Y-106737131D01*
X97509415Y-106672103D01*
X97330702Y-106491339D01*
X97797011Y-106491339D01*
X97937995Y-106494132D01*
X98048898Y-106504304D01*
X98054565Y-106505115D01*
X98054565Y-106158681D01*
G37*
G36*
X97679408Y-108096308D02*
G01*
X97577197Y-108105746D01*
X97476982Y-108109701D01*
X97426397Y-108110083D01*
X97084579Y-108110083D01*
X97045152Y-108083182D01*
X97010299Y-108053791D01*
X96980842Y-108022912D01*
X96956381Y-107990392D01*
X96937910Y-107958058D01*
X96924547Y-107924892D01*
X96916849Y-107893115D01*
X96914148Y-107861167D01*
X96914146Y-107860369D01*
X96916460Y-107830464D01*
X96923278Y-107804094D01*
X96933649Y-107782544D01*
X96947694Y-107764216D01*
X96960015Y-107753025D01*
X96981089Y-107740476D01*
X97006733Y-107732319D01*
X97083919Y-107726646D01*
X97426397Y-107726646D01*
X97554933Y-107729400D01*
X97670289Y-107739298D01*
X97679408Y-107740422D01*
X97679408Y-107385708D01*
X97586145Y-107394311D01*
X97481424Y-107398847D01*
X97426397Y-107399410D01*
X97007056Y-107399410D01*
X96945487Y-107401799D01*
X96891034Y-107409141D01*
X96849084Y-107419657D01*
X96811172Y-107434225D01*
X96778620Y-107451813D01*
X96748649Y-107473292D01*
X96723637Y-107495910D01*
X96678769Y-107555344D01*
X96647690Y-107627823D01*
X96631178Y-107714798D01*
X96628968Y-107764675D01*
X96631362Y-107821689D01*
X96638741Y-107874235D01*
X96649795Y-107918155D01*
X96665279Y-107959865D01*
X96709298Y-108037688D01*
X96769432Y-108110816D01*
X96730378Y-108110083D01*
X96655786Y-108110083D01*
X96655786Y-108449410D01*
X96728225Y-108441113D01*
X96811215Y-108436807D01*
X96910189Y-108435635D01*
X97426397Y-108435635D01*
X97556195Y-108438380D01*
X97670468Y-108448221D01*
X97679408Y-108449337D01*
X97679408Y-108096308D01*
G37*
G36*
X97679408Y-108955432D02*
G01*
X97622475Y-108955432D01*
X97602423Y-108954297D01*
X97595584Y-108953820D01*
X97633180Y-109004455D01*
X97676102Y-109086698D01*
X97691541Y-109132103D01*
X97702600Y-109180050D01*
X97709857Y-109235926D01*
X97712234Y-109295858D01*
X97712213Y-109301481D01*
X97702749Y-109409394D01*
X97677304Y-109503250D01*
X97637044Y-109584335D01*
X97582175Y-109653649D01*
X97575719Y-109659956D01*
X97542578Y-109688224D01*
X97506056Y-109713031D01*
X97464709Y-109735070D01*
X97419882Y-109753356D01*
X97369255Y-109768469D01*
X97314980Y-109779418D01*
X97253982Y-109786424D01*
X97189139Y-109788764D01*
X97146411Y-109787687D01*
X97033527Y-109773175D01*
X96935486Y-109743212D01*
X96851564Y-109699224D01*
X96781083Y-109641926D01*
X96726572Y-109574772D01*
X96703203Y-109534688D01*
X96683789Y-109491839D01*
X96668227Y-109445776D01*
X96656958Y-109397426D01*
X96650052Y-109346671D01*
X96647726Y-109294173D01*
X96648663Y-109261211D01*
X96654473Y-109220240D01*
X96906086Y-109220240D01*
X96910708Y-109269619D01*
X96931750Y-109330931D01*
X96948435Y-109358295D01*
X96969174Y-109383272D01*
X96971272Y-109385408D01*
X96994981Y-109405423D01*
X97022949Y-109422356D01*
X97056884Y-109436756D01*
X97094953Y-109447359D01*
X97138528Y-109454160D01*
X97185842Y-109456472D01*
X97258184Y-109450391D01*
X97326696Y-109429510D01*
X97379844Y-109395613D01*
X97401284Y-109373805D01*
X97419183Y-109348859D01*
X97433849Y-109319911D01*
X97444564Y-109287782D01*
X97451474Y-109250625D01*
X97453801Y-109210129D01*
X97446651Y-109152661D01*
X97435931Y-109120388D01*
X97420797Y-109090107D01*
X97401151Y-109061596D01*
X97377616Y-109035847D01*
X97320320Y-108994037D01*
X97253103Y-108967779D01*
X97179907Y-108958803D01*
X97106821Y-108967365D01*
X97071804Y-108978267D01*
X97039334Y-108993232D01*
X96983356Y-109034128D01*
X96941348Y-109087326D01*
X96915125Y-109150128D01*
X96908388Y-109184288D01*
X96906086Y-109220240D01*
X96654473Y-109220240D01*
X96664083Y-109152473D01*
X96691616Y-109066441D01*
X96721805Y-109009828D01*
X96765842Y-108953820D01*
X96710594Y-108955432D01*
X96594603Y-108955432D01*
X96501860Y-108956818D01*
X96348626Y-108969281D01*
X96348626Y-108619549D01*
X96397780Y-108624585D01*
X96596288Y-108633251D01*
X97414233Y-108633251D01*
X97468944Y-108632909D01*
X97576720Y-108629006D01*
X97679408Y-108619549D01*
X97679408Y-108955432D01*
G37*
G36*
X96652415Y-111870593D02*
G01*
X96764965Y-111893679D01*
X96837210Y-111912798D01*
X97843319Y-112181636D01*
X97962213Y-112214709D01*
X98054565Y-112244870D01*
X98054565Y-111857843D01*
X97987305Y-111853328D01*
X97917036Y-111842656D01*
X97867939Y-111832637D01*
X97367412Y-111726831D01*
X97222698Y-111703237D01*
X97119969Y-111692100D01*
X97264018Y-111669264D01*
X97351945Y-111650801D01*
X97365800Y-111647404D01*
X97883106Y-111511263D01*
X97981310Y-111486258D01*
X98054565Y-111472355D01*
X98054565Y-111169298D01*
X97976227Y-111155633D01*
X97878050Y-111132076D01*
X97357374Y-110997693D01*
X97203725Y-110966798D01*
X97119969Y-110952923D01*
X97357227Y-110918265D01*
X97867866Y-110810774D01*
X97964155Y-110794617D01*
X98054565Y-110787254D01*
X98054565Y-110398541D01*
X97843319Y-110463461D01*
X96835524Y-110732299D01*
X96652415Y-110774577D01*
X96652415Y-111112951D01*
X96714006Y-111122414D01*
X96791293Y-111139714D01*
X96832154Y-111150101D01*
X97327698Y-111274445D01*
X97508425Y-111312058D01*
X97581882Y-111322512D01*
X97442116Y-111343269D01*
X97334742Y-111365503D01*
X97327698Y-111367281D01*
X96833839Y-111494996D01*
X96738841Y-111516410D01*
X96652415Y-111530460D01*
X96652415Y-111870593D01*
G37*
G36*
X98054565Y-112345914D02*
G01*
X97797817Y-112345914D01*
X97797817Y-112691688D01*
X98054565Y-112691688D01*
X98054565Y-112345914D01*
G37*
G36*
X97679408Y-112340565D02*
G01*
X97594261Y-112349403D01*
X97501816Y-112353587D01*
X97423979Y-112354340D01*
X96907771Y-112354340D01*
X96776056Y-112351594D01*
X96661704Y-112341754D01*
X96652415Y-112340638D01*
X96652415Y-112697037D01*
X96841864Y-112684144D01*
X96907771Y-112683262D01*
X97423979Y-112683262D01*
X97564436Y-112686024D01*
X97671528Y-112695979D01*
X97679408Y-112697110D01*
X97679408Y-112340565D01*
G37*
G36*
X96652415Y-113222404D02*
G01*
X96755166Y-113212973D01*
X96856638Y-113209015D01*
X96908577Y-113208628D01*
X97247464Y-113208628D01*
X97292796Y-113239207D01*
X97331323Y-113271088D01*
X97360713Y-113301497D01*
X97384380Y-113332977D01*
X97401327Y-113363350D01*
X97413288Y-113394638D01*
X97422293Y-113456657D01*
X97419981Y-113487496D01*
X97413170Y-113514608D01*
X97402937Y-113536311D01*
X97389115Y-113554351D01*
X97376131Y-113565614D01*
X97352603Y-113578935D01*
X97324533Y-113587237D01*
X97253180Y-113592065D01*
X96908577Y-113592065D01*
X96777801Y-113589311D01*
X96661583Y-113579413D01*
X96652415Y-113578290D01*
X96652415Y-113933004D01*
X96746071Y-113924408D01*
X96851272Y-113919870D01*
X96906892Y-113919302D01*
X97328797Y-113919302D01*
X97390610Y-113916913D01*
X97445229Y-113909573D01*
X97487251Y-113899068D01*
X97525202Y-113884518D01*
X97557765Y-113866957D01*
X97587732Y-113845516D01*
X97612803Y-113822875D01*
X97656653Y-113765815D01*
X97687713Y-113694393D01*
X97704850Y-113607030D01*
X97707545Y-113550666D01*
X97705169Y-113496239D01*
X97697918Y-113445160D01*
X97686750Y-113400586D01*
X97671132Y-113358031D01*
X97626945Y-113278799D01*
X97567886Y-113206943D01*
X97584045Y-113207628D01*
X97609432Y-113208628D01*
X97679408Y-113208628D01*
X97679408Y-112869302D01*
X97608033Y-112877489D01*
X97526347Y-112881810D01*
X97423979Y-112883077D01*
X96907771Y-112883077D01*
X96776150Y-112880331D01*
X96661371Y-112870491D01*
X96652415Y-112869375D01*
X96652415Y-113222404D01*
G37*
G36*
X97209928Y-114059109D02*
G01*
X97324889Y-114073254D01*
X97424294Y-114102812D01*
X97509194Y-114146361D01*
X97580489Y-114203234D01*
X97633712Y-114268162D01*
X97656990Y-114307360D01*
X97676280Y-114349194D01*
X97691757Y-114394361D01*
X97702956Y-114441947D01*
X97709902Y-114492882D01*
X97712234Y-114546004D01*
X97709328Y-114609945D01*
X97691732Y-114703176D01*
X97676078Y-114747753D01*
X97655645Y-114791032D01*
X97626539Y-114839242D01*
X97590748Y-114887676D01*
X97649366Y-114886357D01*
X97788731Y-114886357D01*
X97883420Y-114885349D01*
X97973780Y-114881080D01*
X98054565Y-114872581D01*
X98054565Y-115222386D01*
X98046443Y-115221255D01*
X97931562Y-115211300D01*
X97788731Y-115208538D01*
X96918542Y-115208538D01*
X96852638Y-115209021D01*
X96749010Y-115213057D01*
X96652415Y-115222313D01*
X96652415Y-114886357D01*
X96705905Y-114886357D01*
X96737412Y-114887456D01*
X96701271Y-114839017D01*
X96656404Y-114758823D01*
X96640858Y-114716753D01*
X96629835Y-114672542D01*
X96623609Y-114626605D01*
X96881247Y-114626605D01*
X96890068Y-114693263D01*
X96901331Y-114725206D01*
X96916817Y-114754859D01*
X96936709Y-114782537D01*
X96960447Y-114807358D01*
X96988187Y-114829386D01*
X97019308Y-114847977D01*
X97053698Y-114862946D01*
X97090908Y-114873940D01*
X97130457Y-114880683D01*
X97172213Y-114882986D01*
X97249563Y-114874311D01*
X97317980Y-114849008D01*
X97373768Y-114809394D01*
X97415367Y-114757680D01*
X97430408Y-114727922D01*
X97441435Y-114695703D01*
X97448197Y-114661334D01*
X97450503Y-114624919D01*
X97444706Y-114569342D01*
X97422523Y-114510272D01*
X97405308Y-114484361D01*
X97384246Y-114461270D01*
X97358645Y-114440548D01*
X97329252Y-114423102D01*
X97294796Y-114408573D01*
X97256567Y-114397903D01*
X97213050Y-114391076D01*
X97165838Y-114388761D01*
X97142890Y-114389283D01*
X97060004Y-114401456D01*
X96994442Y-114427470D01*
X96944774Y-114465258D01*
X96916869Y-114500252D01*
X96901528Y-114529147D01*
X96890312Y-114560498D01*
X96881247Y-114626605D01*
X96623609Y-114626605D01*
X96622042Y-114615045D01*
X96619589Y-114550987D01*
X96620298Y-114520207D01*
X96633857Y-114418807D01*
X96663447Y-114330003D01*
X96708116Y-114253088D01*
X96736113Y-114218864D01*
X96767706Y-114187714D01*
X96803443Y-114159266D01*
X96842726Y-114134162D01*
X96886617Y-114111969D01*
X96934051Y-114093472D01*
X96986530Y-114078373D01*
X97042566Y-114067390D01*
X97103928Y-114060481D01*
X97168842Y-114058154D01*
X97209928Y-114059109D01*
G37*
G36*
X97226973Y-115352554D02*
G01*
X97335561Y-115370502D01*
X97432030Y-115404518D01*
X97515871Y-115453208D01*
X97586594Y-115515472D01*
X97616868Y-115551461D01*
X97643570Y-115590511D01*
X97666673Y-115632708D01*
X97685911Y-115677741D01*
X97701261Y-115725886D01*
X97712417Y-115776654D01*
X97719291Y-115830462D01*
X97721613Y-115886678D01*
X97721585Y-115892986D01*
X97711801Y-116000764D01*
X97685543Y-116096167D01*
X97643986Y-116179653D01*
X97617628Y-116217063D01*
X97587626Y-116251514D01*
X97553752Y-116283167D01*
X97516322Y-116311616D01*
X97474669Y-116337174D01*
X97429490Y-116359214D01*
X97379696Y-116378017D01*
X97326379Y-116392920D01*
X97231756Y-116408719D01*
X97105755Y-116418199D01*
X97069778Y-116420104D01*
X97069778Y-116095359D01*
X97306302Y-116095359D01*
X97340703Y-116085467D01*
X97393602Y-116057114D01*
X97414666Y-116038254D01*
X97432236Y-116016245D01*
X97446702Y-115990130D01*
X97457281Y-115960690D01*
X97464219Y-115925550D01*
X97466550Y-115886678D01*
X97464355Y-115846858D01*
X97448810Y-115783750D01*
X97419204Y-115734655D01*
X97398282Y-115714030D01*
X97373514Y-115696600D01*
X97342197Y-115681235D01*
X97306302Y-115669570D01*
X97306302Y-116095359D01*
X97069778Y-116095359D01*
X97069778Y-115664148D01*
X97062914Y-115665056D01*
X96992201Y-115683281D01*
X96938739Y-115713935D01*
X96917442Y-115733887D01*
X96899709Y-115756924D01*
X96885131Y-115784039D01*
X96874491Y-115814397D01*
X96867534Y-115850381D01*
X96865200Y-115889975D01*
X96869814Y-115941766D01*
X96890615Y-116005182D01*
X96926969Y-116058063D01*
X96944808Y-116075155D01*
X96973153Y-116093249D01*
X97014163Y-116108548D01*
X96930193Y-116405596D01*
X96837533Y-116359428D01*
X96793433Y-116329109D01*
X96753605Y-116293196D01*
X96743052Y-116282078D01*
X96713414Y-116246262D01*
X96687444Y-116207429D01*
X96664729Y-116164701D01*
X96645912Y-116118966D01*
X96630608Y-116068659D01*
X96619534Y-116015302D01*
X96612548Y-115956724D01*
X96610210Y-115895031D01*
X96610812Y-115863215D01*
X96623573Y-115753056D01*
X96651747Y-115658130D01*
X96694816Y-115575651D01*
X96722264Y-115538263D01*
X96753605Y-115503607D01*
X96773012Y-115485544D01*
X96811020Y-115455276D01*
X96852108Y-115428672D01*
X96896972Y-115405402D01*
X96944658Y-115386098D01*
X96995955Y-115370587D01*
X97049782Y-115359361D01*
X97106861Y-115352431D01*
X97166131Y-115350101D01*
X97226973Y-115352554D01*
G37*
G36*
X97678748Y-117390383D02*
G01*
X97695968Y-117312521D01*
X97702240Y-117254054D01*
X97702855Y-117221196D01*
X97700486Y-117163692D01*
X97693284Y-117111095D01*
X97682499Y-117067466D01*
X97667543Y-117027252D01*
X97649341Y-116991900D01*
X97627175Y-116959142D01*
X97570309Y-116900207D01*
X97554478Y-116887512D01*
X97679408Y-116887512D01*
X97679408Y-116548185D01*
X97591102Y-116557625D01*
X97486701Y-116561579D01*
X97423979Y-116561960D01*
X96907771Y-116561960D01*
X96776010Y-116559215D01*
X96661871Y-116549374D01*
X96652415Y-116548258D01*
X96652415Y-116901287D01*
X96749898Y-116891723D01*
X96854259Y-116887830D01*
X96906086Y-116887512D01*
X97167450Y-116887512D01*
X97225324Y-116895514D01*
X97268920Y-116908882D01*
X97315242Y-116937411D01*
X97341881Y-116961055D01*
X97363902Y-116987107D01*
X97380643Y-117014267D01*
X97393300Y-117043798D01*
X97406619Y-117110918D01*
X97407492Y-117135540D01*
X97404934Y-117181596D01*
X97396402Y-117230187D01*
X97374959Y-117308464D01*
X97678748Y-117390383D01*
G37*
D12*
%TO.P,C3,1*%
%TO.N,+5V*%
X138000000Y-77000000D03*
%TO.P,C3,2*%
%TO.N,GND*%
X138000000Y-75000000D03*
%TD*%
D13*
%TO.P,RE_R1,1*%
%TO.N,/+3.3V*%
X130500000Y-131500000D03*
%TO.P,RE_R1,2*%
%TO.N,/GPIO_25*%
X132500000Y-131500000D03*
%TD*%
D14*
%TO.P,IO_12_R1,1*%
%TO.N,Net-(ESP1-12)*%
X121000000Y-96000000D03*
%TO.P,IO_12_R1,2*%
%TO.N,GND*%
X121000000Y-94000000D03*
%TD*%
D15*
%TO.P,2LED1,1,GND*%
%TO.N,GND*%
X96000000Y-134000000D03*
D16*
%TO.P,2LED1,2,FW_LED*%
%TO.N,/GPIO_4*%
X96000000Y-132000000D03*
%TO.P,2LED1,3,REV_LED*%
%TO.N,/GPIO_5*%
X96000000Y-130000000D03*
%TD*%
D17*
%TO.P,RE_R2,1*%
%TO.N,/GPIO_26*%
X132500000Y-134500000D03*
%TO.P,RE_R2,2*%
%TO.N,/+3.3V*%
X130500000Y-134500000D03*
%TD*%
D13*
%TO.P,IO_2_R1,1*%
%TO.N,Net-(ESP1-2)*%
X113000000Y-90950000D03*
%TO.P,IO_2_R1,2*%
%TO.N,/+3.3V*%
X115000000Y-90950000D03*
%TD*%
D18*
%TO.P,RS_B1,1,GND*%
%TO.N,GND*%
X138000000Y-102000000D03*
D16*
%TO.P,RS_B1,2,VCC*%
%TO.N,/+3.3V*%
X138000000Y-104000000D03*
%TO.P,RS_B1,3,DO*%
%TO.N,/GPIO_35*%
X138000000Y-106000000D03*
%TD*%
D19*
%TO.P,C4,1*%
%TO.N,+5V*%
X133000000Y-76955000D03*
%TO.P,C4,2*%
%TO.N,GND*%
X133000000Y-75000000D03*
%TD*%
D20*
%TO.P,BZ1,1,+*%
%TO.N,/+3.3V*%
X120370785Y-145000000D03*
D21*
%TO.P,BZ1,2,-*%
%TO.N,Net-(BZ1--)*%
X115370785Y-145000000D03*
%TD*%
D22*
%TO.P,FAN_D1,1,K*%
%TO.N,+12V*%
X114020000Y-60870000D03*
%TO.P,FAN_D1,2,A*%
%TO.N,Net-(FAN1--)*%
X110020000Y-60870000D03*
%TD*%
D18*
%TO.P,RS_A1,1,GND*%
%TO.N,GND*%
X138000000Y-111500000D03*
D16*
%TO.P,RS_A1,2,VCC*%
%TO.N,/+3.3V*%
X138000000Y-113500000D03*
%TO.P,RS_A1,3,DO*%
%TO.N,/GPIO_34*%
X138000000Y-115500000D03*
%TD*%
D23*
%TO.P,ESP1,1,GND*%
%TO.N,GND*%
X129000000Y-93060000D03*
X103600000Y-126080000D03*
X103600000Y-110840000D03*
X103600000Y-100680000D03*
X103600000Y-98140000D03*
X103600000Y-85440000D03*
X103600000Y-82900000D03*
X103600000Y-80360000D03*
X103600000Y-77820000D03*
%TO.P,ESP1,2,5V*%
%TO.N,+5V*%
X129000000Y-80360000D03*
X129000000Y-77820000D03*
%TO.P,ESP1,3,3.3V*%
%TO.N,/+3.3V*%
X129000000Y-126080000D03*
X129000000Y-87980000D03*
X129000000Y-85440000D03*
X129000000Y-82900000D03*
%TO.P,ESP1,4,EN*%
%TO.N,Net-(ESP1-EN)*%
X129000000Y-123540000D03*
%TO.P,ESP1,5,34*%
%TO.N,/GPIO_34*%
X129000000Y-115920000D03*
%TO.P,ESP1,6,35*%
%TO.N,/GPIO_35*%
X129000000Y-113380000D03*
%TO.P,ESP1,7,32*%
%TO.N,/GPIO_32*%
X129000000Y-110840000D03*
%TO.P,ESP1,8,33*%
%TO.N,/GPIO_33*%
X129000000Y-108300000D03*
%TO.P,ESP1,9,25*%
%TO.N,/GPIO_25*%
X129000000Y-105760000D03*
%TO.P,ESP1,10,26*%
%TO.N,/GPIO_26*%
X129000000Y-103220000D03*
%TO.P,ESP1,11,27*%
%TO.N,unconnected-(ESP1-27-Pad11)*%
X129000000Y-100680000D03*
%TO.P,ESP1,12,14*%
%TO.N,/GPIO_14*%
X129000000Y-98140000D03*
%TO.P,ESP1,13,12*%
%TO.N,Net-(ESP1-12)*%
X129000000Y-95600000D03*
%TO.P,ESP1,14,13*%
%TO.N,unconnected-(ESP1-13-Pad14)*%
X129000000Y-90520000D03*
%TO.P,ESP1,15,36(VP)*%
%TO.N,unconnected-(ESP1-36(VP)-Pad15)*%
X129000000Y-121000000D03*
%TO.P,ESP1,16,39(VN)*%
%TO.N,unconnected-(ESP1-39(VN)-Pad16)*%
X129000000Y-118460000D03*
%TO.P,ESP1,17,1(TX)*%
%TO.N,unconnected-(ESP1-1(TX)-Pad17)*%
X103600000Y-118460000D03*
%TO.P,ESP1,18,3(RX)*%
%TO.N,unconnected-(ESP1-3(RX)-Pad18)*%
X103600000Y-115920000D03*
%TO.P,ESP1,19,23*%
%TO.N,unconnected-(ESP1-23-Pad19)*%
X103600000Y-123540000D03*
%TO.P,ESP1,20,22/I2C(SCL)*%
%TO.N,/GPIO_22*%
X103600000Y-121000000D03*
%TO.P,ESP1,21,21/I2C(SDA)*%
%TO.N,/GPIO_21*%
X103600000Y-113380000D03*
%TO.P,ESP1,22,19*%
%TO.N,/GPIO_19*%
X103600000Y-108300000D03*
%TO.P,ESP1,23,18*%
%TO.N,/GPIO_18*%
X103600000Y-105760000D03*
%TO.P,ESP1,24,5*%
%TO.N,/GPIO_5*%
X103600000Y-103220000D03*
%TO.P,ESP1,25,4*%
%TO.N,/GPIO_4*%
X103600000Y-95600000D03*
%TO.P,ESP1,26,0/Boot*%
%TO.N,Net-(ESP1-0{slash}Boot)*%
X103600000Y-93060000D03*
%TO.P,ESP1,27,2*%
%TO.N,Net-(ESP1-2)*%
X103600000Y-90520000D03*
%TO.P,ESP1,28,15*%
%TO.N,Net-(ESP1-15)*%
X103600000Y-87980000D03*
%TD*%
D24*
%TO.P,FAN1,1,-*%
%TO.N,Net-(FAN1--)*%
X110600000Y-54000000D03*
D25*
%TO.P,FAN1,2,+*%
%TO.N,+12V*%
X113100000Y-54000000D03*
%TD*%
D26*
%TO.P,OLED1,1,GND*%
%TO.N,GND*%
X103000000Y-149000000D03*
D27*
%TO.P,OLED1,2,VCC*%
%TO.N,/+3.3V*%
X101000000Y-149000000D03*
%TO.P,OLED1,3,SCL*%
%TO.N,/GPIO_22*%
X99000000Y-149000000D03*
%TO.P,OLED1,4,SDA*%
%TO.N,/GPIO_21*%
X97000000Y-149000000D03*
%TD*%
D28*
%TO.P,IO_EN_R1,1*%
%TO.N,Net-(ESP1-EN)*%
X123000000Y-122000000D03*
%TO.P,IO_EN_R1,2*%
%TO.N,/+3.3V*%
X123000000Y-124000000D03*
%TD*%
D29*
%TO.P,BZ_FET1,1,G*%
%TO.N,Net-(BZ_FET1-G)*%
X109125000Y-136050000D03*
%TO.P,BZ_FET1,2,S*%
%TO.N,Net-(BZ1--)*%
X109125000Y-137950000D03*
%TO.P,BZ_FET1,3,D*%
%TO.N,GND*%
X111000000Y-137000000D03*
%TD*%
D14*
%TO.P,BZ_R1,1*%
%TO.N,Net-(BZ_FET1-G)*%
X106000000Y-132000000D03*
%TO.P,BZ_R1,2*%
%TO.N,/GPIO_19*%
X106000000Y-130000000D03*
%TD*%
D13*
%TO.P,FAN_R2,1*%
%TO.N,Net-(FAN_FET1-G)*%
X122000000Y-62000000D03*
%TO.P,FAN_R2,2*%
%TO.N,GND*%
X124000000Y-62000000D03*
%TD*%
D30*
%TO.P,C2,1*%
%TO.N,+12V*%
X103000000Y-61000000D03*
%TO.P,C2,2*%
%TO.N,GND*%
X101045000Y-61000000D03*
%TD*%
D12*
%TO.P,C5,1*%
%TO.N,/+3.3V*%
X138000000Y-89000000D03*
%TO.P,C5,2*%
%TO.N,GND*%
X138000000Y-91000000D03*
%TD*%
D31*
%TO.P,DCC1,1,V_IN-*%
%TO.N,GND*%
X127460000Y-52500000D03*
X130000000Y-52500000D03*
%TO.P,DCC1,2,V_IN+*%
%TO.N,+12V*%
X138255000Y-52500000D03*
X140795000Y-52500000D03*
%TO.P,DCC1,3,V_OUT-*%
%TO.N,GND*%
X127460000Y-71550000D03*
X130000000Y-71550000D03*
%TO.P,DCC1,4,V_OUT+*%
%TO.N,+5V*%
X138255000Y-71550000D03*
X140795000Y-71550000D03*
%TD*%
D24*
%TO.P,J1,1,Pin_1*%
%TO.N,GND*%
X101000000Y-54000000D03*
D25*
%TO.P,J1,2,Pin_2*%
%TO.N,+12V*%
X103500000Y-54000000D03*
%TD*%
D17*
%TO.P,RE_R3,1*%
%TO.N,/GPIO_18*%
X132500000Y-137500000D03*
%TO.P,RE_R3,2*%
%TO.N,/+3.3V*%
X130500000Y-137500000D03*
%TD*%
D32*
%TO.P,C1,1*%
%TO.N,+12V*%
X106000000Y-69000000D03*
D21*
%TO.P,C1,2*%
%TO.N,GND*%
X101000000Y-69000000D03*
%TD*%
D13*
%TO.P,IO_0_R1,1*%
%TO.N,Net-(ESP1-0{slash}Boot)*%
X113000000Y-94100000D03*
%TO.P,IO_0_R1,2*%
%TO.N,/+3.3V*%
X115000000Y-94100000D03*
%TD*%
D26*
%TO.P,MD1,1,GND*%
%TO.N,GND*%
X139000000Y-149000000D03*
D27*
%TO.P,MD1,2,VCC*%
%TO.N,+5V*%
X137000000Y-149000000D03*
%TO.P,MD1,3,R_EN*%
X135000000Y-149000000D03*
%TO.P,MD1,4,L_EN*%
X133000000Y-149000000D03*
%TO.P,MD1,5,R_PWM*%
%TO.N,/GPIO_32*%
X131000000Y-149000000D03*
%TO.P,MD1,6,L_PWM*%
%TO.N,/GPIO_33*%
X129000000Y-149000000D03*
%TD*%
D14*
%TO.P,IO_15_R1,1*%
%TO.N,Net-(ESP1-15)*%
X113000000Y-85500000D03*
%TO.P,IO_15_R1,2*%
%TO.N,GND*%
X113000000Y-83500000D03*
%TD*%
D33*
%TO.P,C6,1*%
%TO.N,/+3.3V*%
X133000000Y-89045000D03*
%TO.P,C6,2*%
%TO.N,GND*%
X133000000Y-91000000D03*
%TD*%
D17*
%TO.P,FAN_R1,1*%
%TO.N,/GPIO_14*%
X123000000Y-67000000D03*
%TO.P,FAN_R1,2*%
%TO.N,Net-(FAN_FET1-G)*%
X121000000Y-67000000D03*
%TD*%
D18*
%TO.P,RE1,1,C*%
%TO.N,GND*%
X138000000Y-122000000D03*
D16*
%TO.P,RE1,2,A*%
%TO.N,/GPIO_25*%
X138000000Y-124000000D03*
%TO.P,RE1,3,B*%
%TO.N,/GPIO_26*%
X138000000Y-126000000D03*
%TO.P,RE1,4,S1*%
%TO.N,/GPIO_18*%
X138000000Y-128000000D03*
%TO.P,RE1,5,S2*%
%TO.N,GND*%
X138000000Y-130000000D03*
%TD*%
D17*
%TO.P,BZ_R2,1*%
%TO.N,GND*%
X112000000Y-132000000D03*
%TO.P,BZ_R2,2*%
%TO.N,Net-(BZ_FET1-G)*%
X110000000Y-132000000D03*
%TD*%
D34*
%TO.P,FAN_FET1,1,G*%
%TO.N,Net-(FAN_FET1-G)*%
X113054774Y-65579999D03*
%TO.P,FAN_FET1,2,S*%
%TO.N,Net-(FAN1--)*%
X111154774Y-65579999D03*
%TO.P,FAN_FET1,3,D*%
%TO.N,GND*%
X112104774Y-67454999D03*
%TD*%
D35*
%TO.N,GND*%
X98000000Y-66000000D02*
X101000000Y-69000000D01*
D36*
X112104774Y-68335226D02*
X112104774Y-67454999D01*
D35*
X98000000Y-63000000D02*
X98000000Y-66000000D01*
D37*
X134550000Y-71550000D02*
X138000000Y-75000000D01*
D35*
X101000000Y-54000000D02*
X97500000Y-54000000D01*
D36*
X110500000Y-69940000D02*
X110500000Y-72500000D01*
D37*
X133000000Y-91000000D02*
X130940000Y-93060000D01*
D38*
X103600000Y-135100000D02*
X104500000Y-136000000D01*
X104500000Y-138000000D02*
X103500000Y-139000000D01*
D37*
X103600000Y-82900000D02*
X112400000Y-82900000D01*
D38*
X112000000Y-136000000D02*
X111000000Y-137000000D01*
D36*
X108000000Y-75000000D02*
X106420000Y-75000000D01*
D37*
X130000000Y-71550000D02*
X134550000Y-71550000D01*
D38*
X104500000Y-137000000D02*
X104500000Y-138000000D01*
D36*
X106420000Y-75000000D02*
X103600000Y-77820000D01*
X127460000Y-58540000D02*
X124000000Y-62000000D01*
X110500000Y-72500000D02*
X109930000Y-73070000D01*
D35*
X99000000Y-61000000D02*
X101045000Y-61000000D01*
D38*
X103500000Y-139000000D02*
X103500000Y-148500000D01*
D37*
X138000000Y-75000000D02*
X133000000Y-75000000D01*
D35*
X97500000Y-54000000D02*
X97000000Y-54500000D01*
D36*
X110500000Y-72500000D02*
X126510000Y-72500000D01*
D38*
X103500000Y-148500000D02*
X103000000Y-149000000D01*
D35*
X101045000Y-61000000D02*
X100000000Y-61000000D01*
D37*
X112400000Y-82900000D02*
X113000000Y-83500000D01*
D38*
X103600000Y-126080000D02*
X103600000Y-135100000D01*
D36*
X127460000Y-52500000D02*
X127460000Y-58540000D01*
D35*
X97000000Y-59000000D02*
X99000000Y-61000000D01*
D36*
X126510000Y-72500000D02*
X127460000Y-71550000D01*
D38*
X112000000Y-132000000D02*
X112000000Y-136000000D01*
D36*
X109930000Y-73070000D02*
X108000000Y-75000000D01*
D37*
X138000000Y-91000000D02*
X133000000Y-91000000D01*
D35*
X100000000Y-61000000D02*
X98000000Y-63000000D01*
D37*
X130940000Y-93060000D02*
X129000000Y-93060000D01*
D36*
X112104774Y-68335226D02*
X110500000Y-69940000D01*
D35*
X97000000Y-54500000D02*
X97000000Y-59000000D01*
D38*
X104500000Y-137000000D02*
X111000000Y-137000000D01*
D37*
X129000000Y-93060000D02*
X121940000Y-93060000D01*
D38*
X104500000Y-136000000D02*
X104500000Y-137000000D01*
D37*
X121940000Y-93060000D02*
X121000000Y-94000000D01*
D38*
%TO.N,/GPIO_5*%
X98538702Y-105461298D02*
X100780000Y-103220000D01*
X100780000Y-103220000D02*
X103600000Y-103220000D01*
X98538702Y-127461298D02*
X98538702Y-105461298D01*
X96000000Y-130000000D02*
X98538702Y-127461298D01*
%TO.N,/GPIO_4*%
X94464040Y-130464040D02*
X94464040Y-97035960D01*
X95900000Y-95600000D02*
X103600000Y-95600000D01*
X96000000Y-132000000D02*
X94464040Y-130464040D01*
X94464040Y-97035960D02*
X95900000Y-95600000D01*
D37*
%TO.N,/+3.3V*%
X125080000Y-126080000D02*
X123000000Y-124000000D01*
X117500000Y-98000000D02*
X115000000Y-95500000D01*
D38*
X138000000Y-89000000D02*
X133045000Y-89000000D01*
D37*
X115000000Y-95500000D02*
X115000000Y-94100000D01*
D38*
X130065000Y-89045000D02*
X129000000Y-87980000D01*
D37*
X114948000Y-94152000D02*
X115000000Y-94100000D01*
X117500000Y-87000000D02*
X123000000Y-87000000D01*
X120370785Y-145000000D02*
X114301000Y-138930215D01*
X123000000Y-87000000D02*
X124500000Y-88500000D01*
X128020000Y-87980000D02*
X127500000Y-88500000D01*
X130020000Y-89000000D02*
X129000000Y-87980000D01*
X115000000Y-89500000D02*
X117500000Y-87000000D01*
X124500000Y-88500000D02*
X127500000Y-88500000D01*
X117500000Y-117000000D02*
X117500000Y-98000000D01*
X130500000Y-127580000D02*
X130500000Y-137500000D01*
X114301000Y-120199000D02*
X117500000Y-117000000D01*
D38*
X133045000Y-89000000D02*
X133000000Y-89045000D01*
D37*
X129000000Y-82900000D02*
X129000000Y-87980000D01*
X129000000Y-126080000D02*
X125080000Y-126080000D01*
X115000000Y-90950000D02*
X115000000Y-89500000D01*
X129000000Y-87980000D02*
X128020000Y-87980000D01*
X138000000Y-89000000D02*
X130020000Y-89000000D01*
X115000000Y-90950000D02*
X115000000Y-94100000D01*
X129000000Y-126080000D02*
X130500000Y-127580000D01*
X114301000Y-138930215D02*
X114301000Y-120199000D01*
D38*
X133000000Y-89045000D02*
X130065000Y-89045000D01*
D37*
%TO.N,Net-(BZ1--)*%
X115370785Y-145000000D02*
X112000000Y-145000000D01*
X108500000Y-141500000D02*
X108500000Y-138575000D01*
X112000000Y-145000000D02*
X108500000Y-141500000D01*
X108500000Y-138575000D02*
X109125000Y-137950000D01*
D38*
%TO.N,Net-(BZ_FET1-G)*%
X110000000Y-132000000D02*
X109500000Y-132000000D01*
X108500000Y-135425000D02*
X109125000Y-136050000D01*
X106000000Y-132000000D02*
X110000000Y-132000000D01*
X110000000Y-132000000D02*
X108500000Y-133500000D01*
X108500000Y-133500000D02*
X108500000Y-135425000D01*
%TO.N,/GPIO_19*%
X106000000Y-110700000D02*
X103600000Y-108300000D01*
X106000000Y-130000000D02*
X106000000Y-110700000D01*
D35*
%TO.N,+12V*%
X103500000Y-66500000D02*
X106000000Y-69000000D01*
D36*
X114020000Y-60870000D02*
X114020000Y-54920000D01*
X114020000Y-54920000D02*
X113100000Y-54000000D01*
D35*
X103500000Y-54000000D02*
X103500000Y-66500000D01*
D37*
%TO.N,+5V*%
X140795000Y-75336370D02*
X140795000Y-71550000D01*
X137955000Y-76955000D02*
X138000000Y-77000000D01*
X140795000Y-71550000D02*
X138255000Y-71550000D01*
X133000000Y-76955000D02*
X137955000Y-76955000D01*
X138000000Y-77000000D02*
X139131370Y-77000000D01*
X139131370Y-77000000D02*
X140795000Y-75336370D01*
X133000000Y-76955000D02*
X129865000Y-76955000D01*
X129865000Y-76955000D02*
X129000000Y-77820000D01*
D38*
%TO.N,Net-(ESP1-12)*%
X121000000Y-96000000D02*
X128600000Y-96000000D01*
X128600000Y-96000000D02*
X129000000Y-95600000D01*
%TO.N,Net-(ESP1-EN)*%
X127460000Y-122000000D02*
X129000000Y-123540000D01*
X123000000Y-122000000D02*
X127460000Y-122000000D01*
%TO.N,/GPIO_32*%
X121000000Y-116000000D02*
X126160000Y-110840000D01*
X121000000Y-136000000D02*
X121000000Y-116000000D01*
X131000000Y-146000000D02*
X121000000Y-136000000D01*
X126160000Y-110840000D02*
X129000000Y-110840000D01*
X131000000Y-149000000D02*
X131000000Y-146000000D01*
%TO.N,/GPIO_34*%
X138000000Y-115500000D02*
X129420000Y-115500000D01*
X129420000Y-115500000D02*
X129000000Y-115920000D01*
%TO.N,/GPIO_14*%
X138860000Y-98140000D02*
X129000000Y-98140000D01*
X142000000Y-70000000D02*
X142000000Y-95000000D01*
X123000000Y-67000000D02*
X139000000Y-67000000D01*
X142000000Y-95000000D02*
X138860000Y-98140000D01*
X139000000Y-67000000D02*
X142000000Y-70000000D01*
%TO.N,/GPIO_26*%
X142000000Y-122000000D02*
X142000000Y-102500000D01*
X139000000Y-99500000D02*
X132720000Y-99500000D01*
X132720000Y-99500000D02*
X129000000Y-103220000D01*
X133551000Y-133449000D02*
X132500000Y-134500000D01*
X142000000Y-102500000D02*
X139000000Y-99500000D01*
X133551000Y-130449000D02*
X133551000Y-133449000D01*
X138000000Y-126000000D02*
X142000000Y-122000000D01*
X138000000Y-126000000D02*
X133551000Y-130449000D01*
%TO.N,/GPIO_18*%
X138000000Y-128000000D02*
X137500000Y-128500000D01*
X124062500Y-151500000D02*
X113051000Y-140488500D01*
X134750000Y-131250000D02*
X134750000Y-135250000D01*
X140000000Y-151500000D02*
X124062500Y-151500000D01*
X137500000Y-128500000D02*
X138261338Y-128500000D01*
X138261338Y-128500000D02*
X142000000Y-132238662D01*
X142000000Y-149500000D02*
X140000000Y-151500000D01*
X113051000Y-140488500D02*
X113051000Y-115211000D01*
X113051000Y-115211000D02*
X103600000Y-105760000D01*
X142000000Y-132238662D02*
X142000000Y-149500000D01*
X134750000Y-135250000D02*
X132500000Y-137500000D01*
X137500000Y-128500000D02*
X134750000Y-131250000D01*
%TO.N,Net-(ESP1-15)*%
X110520000Y-87980000D02*
X113000000Y-85500000D01*
X103600000Y-87980000D02*
X110520000Y-87980000D01*
%TO.N,/GPIO_21*%
X101620000Y-113380000D02*
X103600000Y-113380000D01*
X100000000Y-137000000D02*
X100000000Y-115000000D01*
X101500000Y-144500000D02*
X101500000Y-138500000D01*
X100000000Y-115000000D02*
X101620000Y-113380000D01*
X101500000Y-138500000D02*
X100000000Y-137000000D01*
X97000000Y-149000000D02*
X101500000Y-144500000D01*
%TO.N,/GPIO_22*%
X102500000Y-138002159D02*
X102500000Y-145000000D01*
X103600000Y-121000000D02*
X102500000Y-121000000D01*
X102500000Y-121000000D02*
X101000000Y-122500000D01*
X102500000Y-145000000D02*
X99000000Y-148500000D01*
X101000000Y-136500000D02*
X102497841Y-137997841D01*
X102497841Y-138000000D02*
X102500000Y-138002159D01*
X102497841Y-137997841D02*
X102497841Y-138000000D01*
X99000000Y-148500000D02*
X99000000Y-149000000D01*
X101000000Y-122500000D02*
X101000000Y-136500000D01*
%TO.N,/GPIO_25*%
X141000000Y-121000000D02*
X141000000Y-103026708D01*
X132500000Y-129500000D02*
X132500000Y-131500000D01*
X138473292Y-100500000D02*
X134260000Y-100500000D01*
X141000000Y-103026708D02*
X138473292Y-100500000D01*
X134260000Y-100500000D02*
X129000000Y-105760000D01*
X138000000Y-124000000D02*
X132500000Y-129500000D01*
X138000000Y-124000000D02*
X141000000Y-121000000D01*
%TO.N,Net-(ESP1-0{slash}Boot)*%
X111960000Y-93060000D02*
X113000000Y-94100000D01*
X103600000Y-93060000D02*
X111960000Y-93060000D01*
%TO.N,/GPIO_35*%
X138000000Y-106000000D02*
X130620000Y-113380000D01*
X130620000Y-113380000D02*
X129000000Y-113380000D01*
%TO.N,/GPIO_33*%
X129000000Y-149000000D02*
X129000000Y-145500000D01*
X127200000Y-108300000D02*
X129000000Y-108300000D01*
X120000000Y-115500000D02*
X127200000Y-108300000D01*
X129000000Y-145500000D02*
X120000000Y-136500000D01*
X120000000Y-136500000D02*
X120000000Y-115500000D01*
%TO.N,Net-(ESP1-2)*%
X103600000Y-90520000D02*
X112570000Y-90520000D01*
X112570000Y-90520000D02*
X113000000Y-90950000D01*
D36*
%TO.N,Net-(FAN1--)*%
X111154774Y-65579999D02*
X110020000Y-64445225D01*
X110020000Y-60870000D02*
X110600000Y-60290000D01*
X110020000Y-64445225D02*
X110020000Y-60870000D01*
X110600000Y-60290000D02*
X110600000Y-54000000D01*
%TO.N,Net-(FAN_FET1-G)*%
X121000000Y-63000000D02*
X122000000Y-62000000D01*
X121000000Y-67000000D02*
X121000000Y-63000000D01*
X115204775Y-67730000D02*
X120270000Y-67730000D01*
X120270000Y-67730000D02*
X121000000Y-67000000D01*
X113054774Y-65579999D02*
X115204775Y-67730000D01*
%TD*%
M02*
