%TF.GenerationSoftware,KiCad,Pcbnew,9.0.6*%
%TF.CreationDate,2025-12-21T18:03:19+09:00*%
%TF.ProjectId,re_winder_pcb,72655f77-696e-4646-9572-5f7063622e6b,rev?*%
%TF.SameCoordinates,Original*%
%TF.FileFunction,Soldermask,Top*%
%TF.FilePolarity,Negative*%
%FSLAX46Y46*%
G04 Gerber Fmt 4.6, Leading zero omitted, Abs format (unit mm)*
G04 Created by KiCad (PCBNEW 9.0.6) date 2025-12-21 18:03:19*
%MOMM*%
%LPD*%
G01*
G04 APERTURE LIST*
G04 Aperture macros list*
%AMRoundRect*
0 Rectangle with rounded corners*
0 $1 Rounding radius*
0 $2 $3 $4 $5 $6 $7 $8 $9 X,Y pos of 4 corners*
0 Add a 4 corners polygon primitive as box body*
4,1,4,$2,$3,$4,$5,$6,$7,$8,$9,$2,$3,0*
0 Add four circle primitives for the rounded corners*
1,1,$1+$1,$2,$3*
1,1,$1+$1,$4,$5*
1,1,$1+$1,$6,$7*
1,1,$1+$1,$8,$9*
0 Add four rect primitives between the rounded corners*
20,1,$1+$1,$2,$3,$4,$5,0*
20,1,$1+$1,$4,$5,$6,$7,0*
20,1,$1+$1,$6,$7,$8,$9,0*
20,1,$1+$1,$8,$9,$2,$3,0*%
G04 Aperture macros list end*
%ADD10C,1.600000*%
%ADD11RoundRect,0.250000X-0.350000X-0.450000X0.350000X-0.450000X0.350000X0.450000X-0.350000X0.450000X0*%
%ADD12RoundRect,0.250000X0.450000X-0.350000X0.450000X0.350000X-0.450000X0.350000X-0.450000X-0.350000X0*%
%ADD13RoundRect,0.250000X0.625000X-0.350000X0.625000X0.350000X-0.625000X0.350000X-0.625000X-0.350000X0*%
%ADD14O,1.750000X1.200000*%
%ADD15RoundRect,0.250000X0.350000X0.450000X-0.350000X0.450000X-0.350000X-0.450000X0.350000X-0.450000X0*%
%ADD16RoundRect,0.250000X-0.625000X0.350000X-0.625000X-0.350000X0.625000X-0.350000X0.625000X0.350000X0*%
%ADD17RoundRect,0.250000X0.295000X-0.407500X0.295000X0.407500X-0.295000X0.407500X-0.295000X-0.407500X0*%
%ADD18R,2.000000X2.000000*%
%ADD19C,2.000000*%
%ADD20RoundRect,0.250000X1.000000X0.650000X-1.000000X0.650000X-1.000000X-0.650000X1.000000X-0.650000X0*%
%ADD21C,3.200000*%
%ADD22RoundRect,0.190500X1.079500X0.444500X-1.079500X0.444500X-1.079500X-0.444500X1.079500X-0.444500X0*%
%ADD23C,1.200000*%
%ADD24RoundRect,0.250000X-0.600000X-0.750000X0.600000X-0.750000X0.600000X0.750000X-0.600000X0.750000X0*%
%ADD25O,1.700000X2.000000*%
%ADD26RoundRect,0.250000X0.350000X0.625000X-0.350000X0.625000X-0.350000X-0.625000X0.350000X-0.625000X0*%
%ADD27O,1.200000X1.750000*%
%ADD28RoundRect,0.250000X-0.450000X0.350000X-0.450000X-0.350000X0.450000X-0.350000X0.450000X0.350000X0*%
%ADD29RoundRect,0.150000X-0.587500X-0.150000X0.587500X-0.150000X0.587500X0.150000X-0.587500X0.150000X0*%
%ADD30RoundRect,0.250000X0.407500X0.295000X-0.407500X0.295000X-0.407500X-0.295000X0.407500X-0.295000X0*%
%ADD31RoundRect,0.190500X0.444500X-0.762000X0.444500X0.762000X-0.444500X0.762000X-0.444500X-0.762000X0*%
%ADD32RoundRect,0.250000X0.750000X0.750000X-0.750000X0.750000X-0.750000X-0.750000X0.750000X-0.750000X0*%
%ADD33RoundRect,0.250000X-0.295000X0.407500X-0.295000X-0.407500X0.295000X-0.407500X0.295000X0.407500X0*%
%ADD34RoundRect,0.150000X-0.150000X0.587500X-0.150000X-0.587500X0.150000X-0.587500X0.150000X0.587500X0*%
G04 APERTURE END LIST*
D10*
%TO.C,C3*%
X138000000Y-77000000D03*
X138000000Y-75000000D03*
%TD*%
D11*
%TO.C,RE_R1*%
X130500000Y-131500000D03*
X132500000Y-131500000D03*
%TD*%
D12*
%TO.C,IO_12_R1*%
X121000000Y-96000000D03*
X121000000Y-94000000D03*
%TD*%
D13*
%TO.C,2LED1*%
X96000000Y-134000000D03*
D14*
X96000000Y-132000000D03*
X96000000Y-130000000D03*
%TD*%
D15*
%TO.C,RE_R2*%
X132500000Y-134500000D03*
X130500000Y-134500000D03*
%TD*%
D11*
%TO.C,IO_2_R1*%
X113000000Y-90950000D03*
X115000000Y-90950000D03*
%TD*%
D16*
%TO.C,RS_B1*%
X138000000Y-102000000D03*
D14*
X138000000Y-104000000D03*
X138000000Y-106000000D03*
%TD*%
D17*
%TO.C,C4*%
X133000000Y-76955000D03*
X133000000Y-75000000D03*
%TD*%
D18*
%TO.C,BZ1*%
X120370785Y-145000000D03*
D19*
X115370785Y-145000000D03*
%TD*%
D20*
%TO.C,FAN_D1*%
X114020000Y-60870000D03*
X110020000Y-60870000D03*
%TD*%
D16*
%TO.C,RS_A1*%
X138000000Y-111500000D03*
D14*
X138000000Y-113500000D03*
X138000000Y-115500000D03*
%TD*%
D21*
%TO.C,M3*%
X125500000Y-134000000D03*
%TD*%
D22*
%TO.C,ESP1*%
X129000000Y-93060000D03*
X103600000Y-126080000D03*
X103600000Y-110840000D03*
X103600000Y-100680000D03*
X103600000Y-98140000D03*
X103600000Y-85440000D03*
X103600000Y-82900000D03*
X103600000Y-80360000D03*
X103600000Y-77820000D03*
X129000000Y-80360000D03*
X129000000Y-77820000D03*
X129000000Y-126080000D03*
X129000000Y-87980000D03*
X129000000Y-85440000D03*
X129000000Y-82900000D03*
X129000000Y-123540000D03*
X129000000Y-115920000D03*
X129000000Y-113380000D03*
X129000000Y-110840000D03*
X129000000Y-108300000D03*
X129000000Y-105760000D03*
X129000000Y-103220000D03*
X129000000Y-100680000D03*
X129000000Y-98140000D03*
X129000000Y-95600000D03*
X129000000Y-90520000D03*
X129000000Y-121000000D03*
X129000000Y-118460000D03*
X103600000Y-118460000D03*
X103600000Y-115920000D03*
X103600000Y-123540000D03*
X103600000Y-121000000D03*
X103600000Y-113380000D03*
X103600000Y-108300000D03*
X103600000Y-105760000D03*
X103600000Y-103220000D03*
X103600000Y-95600000D03*
X103600000Y-93060000D03*
X103600000Y-90520000D03*
X103600000Y-87980000D03*
%TD*%
D23*
%TO.C,FAN1*%
X109000000Y-56000000D03*
D24*
X110600000Y-54000000D03*
D25*
X113100000Y-54000000D03*
%TD*%
D26*
%TO.C,OLED1*%
X103000000Y-149000000D03*
D27*
X101000000Y-149000000D03*
X99000000Y-149000000D03*
X97000000Y-149000000D03*
%TD*%
D28*
%TO.C,IO_EN_R1*%
X123000000Y-122000000D03*
X123000000Y-124000000D03*
%TD*%
D29*
%TO.C,BZ_FET1*%
X109125000Y-136050000D03*
X109125000Y-137950000D03*
X111000000Y-137000000D03*
%TD*%
D21*
%TO.C,M3*%
X97500000Y-83000000D03*
%TD*%
D12*
%TO.C,BZ_R1*%
X106000000Y-132000000D03*
X106000000Y-130000000D03*
%TD*%
D11*
%TO.C,FAN_R2*%
X122000000Y-62000000D03*
X124000000Y-62000000D03*
%TD*%
D21*
%TO.C,M3*%
X138000000Y-83000000D03*
%TD*%
D30*
%TO.C,C2*%
X103000000Y-61000000D03*
X101045000Y-61000000D03*
%TD*%
D10*
%TO.C,C5*%
X138000000Y-89000000D03*
X138000000Y-91000000D03*
%TD*%
D31*
%TO.C,DCC1*%
X127460000Y-52500000D03*
X130000000Y-52500000D03*
X138255000Y-52500000D03*
X140795000Y-52500000D03*
X127460000Y-71550000D03*
X130000000Y-71550000D03*
X138255000Y-71550000D03*
X140795000Y-71550000D03*
%TD*%
D23*
%TO.C,J1*%
X99400000Y-56000000D03*
D24*
X101000000Y-54000000D03*
D25*
X103500000Y-54000000D03*
%TD*%
D15*
%TO.C,RE_R3*%
X132500000Y-137500000D03*
X130500000Y-137500000D03*
%TD*%
D21*
%TO.C,M3*%
X134500000Y-61000000D03*
%TD*%
D32*
%TO.C,C1*%
X106000000Y-69000000D03*
D19*
X101000000Y-69000000D03*
%TD*%
D21*
%TO.C,M3*%
X97500000Y-141500000D03*
%TD*%
D11*
%TO.C,IO_0_R1*%
X113000000Y-94100000D03*
X115000000Y-94100000D03*
%TD*%
D26*
%TO.C,MD1*%
X139000000Y-149000000D03*
D27*
X137000000Y-149000000D03*
X135000000Y-149000000D03*
X133000000Y-149000000D03*
X131000000Y-149000000D03*
X129000000Y-149000000D03*
%TD*%
D12*
%TO.C,IO_15_R1*%
X113000000Y-85500000D03*
X113000000Y-83500000D03*
%TD*%
D33*
%TO.C,C6*%
X133000000Y-89045000D03*
X133000000Y-91000000D03*
%TD*%
D15*
%TO.C,FAN_R1*%
X123000000Y-67000000D03*
X121000000Y-67000000D03*
%TD*%
D16*
%TO.C,RE1*%
X138000000Y-122000000D03*
D14*
X138000000Y-124000000D03*
X138000000Y-126000000D03*
X138000000Y-128000000D03*
X138000000Y-130000000D03*
%TD*%
D15*
%TO.C,BZ_R2*%
X112000000Y-132000000D03*
X110000000Y-132000000D03*
%TD*%
D34*
%TO.C,FAN_FET1*%
X113054774Y-65579999D03*
X111154774Y-65579999D03*
X112104774Y-67454999D03*
%TD*%
M02*
