M48
; DRILL file {KiCad 9.0.6} date 2025-12-21T18:03:24+0900
; FORMAT={-:-/ absolute / metric / decimal}
; #@! TF.CreationDate,2025-12-21T18:03:24+09:00
; #@! TF.GenerationSoftware,Kicad,Pcbnew,9.0.6
; #@! TF.FileFunction,MixedPlating,1,2
FMAT,2
METRIC
; #@! TA.AperFunction,Plated,PTH,ComponentDrill
T1C0.750
; #@! TA.AperFunction,Plated,PTH,ComponentDrill
T2C0.800
; #@! TA.AperFunction,Plated,PTH,ComponentDrill
T3C1.000
; #@! TA.AperFunction,NonPlated,NPTH,ComponentDrill
T4C1.200
; #@! TA.AperFunction,NonPlated,NPTH,ComponentDrill
T5C3.200
%
G90
G05
T1
X96.0Y-130.0
X96.0Y-132.0
X96.0Y-134.0
X97.0Y-149.0
X99.0Y-149.0
X101.0Y-149.0
X103.0Y-149.0
X129.0Y-149.0
X131.0Y-149.0
X133.0Y-149.0
X135.0Y-149.0
X137.0Y-149.0
X138.0Y-102.0
X138.0Y-104.0
X138.0Y-106.0
X138.0Y-111.5
X138.0Y-113.5
X138.0Y-115.5
X138.0Y-122.0
X138.0Y-124.0
X138.0Y-126.0
X138.0Y-128.0
X138.0Y-130.0
X139.0Y-149.0
T2
X103.6Y-77.82
X103.6Y-80.36
X103.6Y-82.9
X103.6Y-85.44
X103.6Y-87.98
X103.6Y-90.52
X103.6Y-93.06
X103.6Y-95.6
X103.6Y-98.14
X103.6Y-100.68
X103.6Y-103.22
X103.6Y-105.76
X103.6Y-108.3
X103.6Y-110.84
X103.6Y-113.38
X103.6Y-115.92
X103.6Y-118.46
X103.6Y-121.0
X103.6Y-123.54
X103.6Y-126.08
X127.46Y-52.5
X127.46Y-71.55
X129.0Y-77.82
X129.0Y-80.36
X129.0Y-82.9
X129.0Y-85.44
X129.0Y-87.98
X129.0Y-90.52
X129.0Y-93.06
X129.0Y-95.6
X129.0Y-98.14
X129.0Y-100.68
X129.0Y-103.22
X129.0Y-105.76
X129.0Y-108.3
X129.0Y-110.84
X129.0Y-113.38
X129.0Y-115.92
X129.0Y-118.46
X129.0Y-121.0
X129.0Y-123.54
X129.0Y-126.08
X130.0Y-52.5
X130.0Y-71.55
X138.0Y-75.0
X138.0Y-77.0
X138.0Y-89.0
X138.0Y-91.0
X138.255Y-52.5
X138.255Y-71.55
X140.795Y-52.5
X140.795Y-71.55
T3
X101.0Y-54.0
X101.0Y-69.0
X103.5Y-54.0
X106.0Y-69.0
X110.6Y-54.0
X113.1Y-54.0
X115.371Y-145.0
X120.371Y-145.0
T4
X99.4Y-56.0
X109.0Y-56.0
T5
X97.5Y-83.0
X97.5Y-141.5
X125.5Y-134.0
X134.5Y-61.0
X138.0Y-83.0
M30
