%TF.GenerationSoftware,KiCad,Pcbnew,9.0.6*%
%TF.CreationDate,2025-12-21T18:01:26+09:00*%
%TF.ProjectId,Untitled,556e7469-746c-4656-942e-6b696361645f,rev?*%
%TF.SameCoordinates,Original*%
%TF.FileFunction,Legend,Top*%
%TF.FilePolarity,Positive*%
%FSLAX46Y46*%
G04 Gerber Fmt 4.6, Leading zero omitted, Abs format (unit mm)*
G04 Created by KiCad (PCBNEW 9.0.6) date 2025-12-21 18:01:26*
%MOMM*%
%LPD*%
G01*
G04 APERTURE LIST*
%ADD10C,0.150000*%
%ADD11C,0.120000*%
G04 APERTURE END LIST*
D10*
X123624819Y-75116666D02*
X123148628Y-75449999D01*
X123624819Y-75688094D02*
X122624819Y-75688094D01*
X122624819Y-75688094D02*
X122624819Y-75307142D01*
X122624819Y-75307142D02*
X122672438Y-75211904D01*
X122672438Y-75211904D02*
X122720057Y-75164285D01*
X122720057Y-75164285D02*
X122815295Y-75116666D01*
X122815295Y-75116666D02*
X122958152Y-75116666D01*
X122958152Y-75116666D02*
X123053390Y-75164285D01*
X123053390Y-75164285D02*
X123101009Y-75211904D01*
X123101009Y-75211904D02*
X123148628Y-75307142D01*
X123148628Y-75307142D02*
X123148628Y-75688094D01*
X123624819Y-74164285D02*
X123624819Y-74735713D01*
X123624819Y-74449999D02*
X122624819Y-74449999D01*
X122624819Y-74449999D02*
X122767676Y-74545237D01*
X122767676Y-74545237D02*
X122862914Y-74640475D01*
X122862914Y-74640475D02*
X122910533Y-74735713D01*
X124166666Y-94931009D02*
X123833333Y-94931009D01*
X123833333Y-95454819D02*
X123833333Y-94454819D01*
X123833333Y-94454819D02*
X124309523Y-94454819D01*
X124642857Y-94550057D02*
X124690476Y-94502438D01*
X124690476Y-94502438D02*
X124785714Y-94454819D01*
X124785714Y-94454819D02*
X125023809Y-94454819D01*
X125023809Y-94454819D02*
X125119047Y-94502438D01*
X125119047Y-94502438D02*
X125166666Y-94550057D01*
X125166666Y-94550057D02*
X125214285Y-94645295D01*
X125214285Y-94645295D02*
X125214285Y-94740533D01*
X125214285Y-94740533D02*
X125166666Y-94883390D01*
X125166666Y-94883390D02*
X124595238Y-95454819D01*
X124595238Y-95454819D02*
X125214285Y-95454819D01*
X158190476Y-107454819D02*
X158190476Y-106454819D01*
X158190476Y-106454819D02*
X158523809Y-107169104D01*
X158523809Y-107169104D02*
X158857142Y-106454819D01*
X158857142Y-106454819D02*
X158857142Y-107454819D01*
X159238095Y-106454819D02*
X159857142Y-106454819D01*
X159857142Y-106454819D02*
X159523809Y-106835771D01*
X159523809Y-106835771D02*
X159666666Y-106835771D01*
X159666666Y-106835771D02*
X159761904Y-106883390D01*
X159761904Y-106883390D02*
X159809523Y-106931009D01*
X159809523Y-106931009D02*
X159857142Y-107026247D01*
X159857142Y-107026247D02*
X159857142Y-107264342D01*
X159857142Y-107264342D02*
X159809523Y-107359580D01*
X159809523Y-107359580D02*
X159761904Y-107407200D01*
X159761904Y-107407200D02*
X159666666Y-107454819D01*
X159666666Y-107454819D02*
X159380952Y-107454819D01*
X159380952Y-107454819D02*
X159285714Y-107407200D01*
X159285714Y-107407200D02*
X159238095Y-107359580D01*
X141761905Y-89454819D02*
X141761905Y-88454819D01*
X141761905Y-88454819D02*
X142000000Y-88454819D01*
X142000000Y-88454819D02*
X142142857Y-88502438D01*
X142142857Y-88502438D02*
X142238095Y-88597676D01*
X142238095Y-88597676D02*
X142285714Y-88692914D01*
X142285714Y-88692914D02*
X142333333Y-88883390D01*
X142333333Y-88883390D02*
X142333333Y-89026247D01*
X142333333Y-89026247D02*
X142285714Y-89216723D01*
X142285714Y-89216723D02*
X142238095Y-89311961D01*
X142238095Y-89311961D02*
X142142857Y-89407200D01*
X142142857Y-89407200D02*
X142000000Y-89454819D01*
X142000000Y-89454819D02*
X141761905Y-89454819D01*
X142666667Y-88454819D02*
X143285714Y-88454819D01*
X143285714Y-88454819D02*
X142952381Y-88835771D01*
X142952381Y-88835771D02*
X143095238Y-88835771D01*
X143095238Y-88835771D02*
X143190476Y-88883390D01*
X143190476Y-88883390D02*
X143238095Y-88931009D01*
X143238095Y-88931009D02*
X143285714Y-89026247D01*
X143285714Y-89026247D02*
X143285714Y-89264342D01*
X143285714Y-89264342D02*
X143238095Y-89359580D01*
X143238095Y-89359580D02*
X143190476Y-89407200D01*
X143190476Y-89407200D02*
X143095238Y-89454819D01*
X143095238Y-89454819D02*
X142809524Y-89454819D01*
X142809524Y-89454819D02*
X142714286Y-89407200D01*
X142714286Y-89407200D02*
X142666667Y-89359580D01*
X120690476Y-107454819D02*
X120690476Y-106454819D01*
X120690476Y-106454819D02*
X121023809Y-107169104D01*
X121023809Y-107169104D02*
X121357142Y-106454819D01*
X121357142Y-106454819D02*
X121357142Y-107454819D01*
X121738095Y-106454819D02*
X122357142Y-106454819D01*
X122357142Y-106454819D02*
X122023809Y-106835771D01*
X122023809Y-106835771D02*
X122166666Y-106835771D01*
X122166666Y-106835771D02*
X122261904Y-106883390D01*
X122261904Y-106883390D02*
X122309523Y-106931009D01*
X122309523Y-106931009D02*
X122357142Y-107026247D01*
X122357142Y-107026247D02*
X122357142Y-107264342D01*
X122357142Y-107264342D02*
X122309523Y-107359580D01*
X122309523Y-107359580D02*
X122261904Y-107407200D01*
X122261904Y-107407200D02*
X122166666Y-107454819D01*
X122166666Y-107454819D02*
X121880952Y-107454819D01*
X121880952Y-107454819D02*
X121785714Y-107407200D01*
X121785714Y-107407200D02*
X121738095Y-107359580D01*
X121761905Y-69954819D02*
X121761905Y-68954819D01*
X121761905Y-68954819D02*
X122000000Y-68954819D01*
X122000000Y-68954819D02*
X122142857Y-69002438D01*
X122142857Y-69002438D02*
X122238095Y-69097676D01*
X122238095Y-69097676D02*
X122285714Y-69192914D01*
X122285714Y-69192914D02*
X122333333Y-69383390D01*
X122333333Y-69383390D02*
X122333333Y-69526247D01*
X122333333Y-69526247D02*
X122285714Y-69716723D01*
X122285714Y-69716723D02*
X122238095Y-69811961D01*
X122238095Y-69811961D02*
X122142857Y-69907200D01*
X122142857Y-69907200D02*
X122000000Y-69954819D01*
X122000000Y-69954819D02*
X121761905Y-69954819D01*
X123285714Y-69954819D02*
X122714286Y-69954819D01*
X123000000Y-69954819D02*
X123000000Y-68954819D01*
X123000000Y-68954819D02*
X122904762Y-69097676D01*
X122904762Y-69097676D02*
X122809524Y-69192914D01*
X122809524Y-69192914D02*
X122714286Y-69240533D01*
X121190476Y-58454819D02*
X121190476Y-57454819D01*
X121190476Y-57454819D02*
X121523809Y-58169104D01*
X121523809Y-58169104D02*
X121857142Y-57454819D01*
X121857142Y-57454819D02*
X121857142Y-58454819D01*
X122238095Y-57454819D02*
X122857142Y-57454819D01*
X122857142Y-57454819D02*
X122523809Y-57835771D01*
X122523809Y-57835771D02*
X122666666Y-57835771D01*
X122666666Y-57835771D02*
X122761904Y-57883390D01*
X122761904Y-57883390D02*
X122809523Y-57931009D01*
X122809523Y-57931009D02*
X122857142Y-58026247D01*
X122857142Y-58026247D02*
X122857142Y-58264342D01*
X122857142Y-58264342D02*
X122809523Y-58359580D01*
X122809523Y-58359580D02*
X122761904Y-58407200D01*
X122761904Y-58407200D02*
X122666666Y-58454819D01*
X122666666Y-58454819D02*
X122380952Y-58454819D01*
X122380952Y-58454819D02*
X122285714Y-58407200D01*
X122285714Y-58407200D02*
X122238095Y-58359580D01*
X135454819Y-93166666D02*
X134978628Y-93499999D01*
X135454819Y-93738094D02*
X134454819Y-93738094D01*
X134454819Y-93738094D02*
X134454819Y-93357142D01*
X134454819Y-93357142D02*
X134502438Y-93261904D01*
X134502438Y-93261904D02*
X134550057Y-93214285D01*
X134550057Y-93214285D02*
X134645295Y-93166666D01*
X134645295Y-93166666D02*
X134788152Y-93166666D01*
X134788152Y-93166666D02*
X134883390Y-93214285D01*
X134883390Y-93214285D02*
X134931009Y-93261904D01*
X134931009Y-93261904D02*
X134978628Y-93357142D01*
X134978628Y-93357142D02*
X134978628Y-93738094D01*
X134454819Y-92833332D02*
X134454819Y-92214285D01*
X134454819Y-92214285D02*
X134835771Y-92547618D01*
X134835771Y-92547618D02*
X134835771Y-92404761D01*
X134835771Y-92404761D02*
X134883390Y-92309523D01*
X134883390Y-92309523D02*
X134931009Y-92261904D01*
X134931009Y-92261904D02*
X135026247Y-92214285D01*
X135026247Y-92214285D02*
X135264342Y-92214285D01*
X135264342Y-92214285D02*
X135359580Y-92261904D01*
X135359580Y-92261904D02*
X135407200Y-92309523D01*
X135407200Y-92309523D02*
X135454819Y-92404761D01*
X135454819Y-92404761D02*
X135454819Y-92690475D01*
X135454819Y-92690475D02*
X135407200Y-92785713D01*
X135407200Y-92785713D02*
X135359580Y-92833332D01*
X151309523Y-99359580D02*
X151261904Y-99407200D01*
X151261904Y-99407200D02*
X151119047Y-99454819D01*
X151119047Y-99454819D02*
X151023809Y-99454819D01*
X151023809Y-99454819D02*
X150880952Y-99407200D01*
X150880952Y-99407200D02*
X150785714Y-99311961D01*
X150785714Y-99311961D02*
X150738095Y-99216723D01*
X150738095Y-99216723D02*
X150690476Y-99026247D01*
X150690476Y-99026247D02*
X150690476Y-98883390D01*
X150690476Y-98883390D02*
X150738095Y-98692914D01*
X150738095Y-98692914D02*
X150785714Y-98597676D01*
X150785714Y-98597676D02*
X150880952Y-98502438D01*
X150880952Y-98502438D02*
X151023809Y-98454819D01*
X151023809Y-98454819D02*
X151119047Y-98454819D01*
X151119047Y-98454819D02*
X151261904Y-98502438D01*
X151261904Y-98502438D02*
X151309523Y-98550057D01*
X151738095Y-99454819D02*
X151738095Y-98454819D01*
X151738095Y-98454819D02*
X152309523Y-99454819D01*
X152309523Y-99454819D02*
X152309523Y-98454819D01*
X152738095Y-98550057D02*
X152785714Y-98502438D01*
X152785714Y-98502438D02*
X152880952Y-98454819D01*
X152880952Y-98454819D02*
X153119047Y-98454819D01*
X153119047Y-98454819D02*
X153214285Y-98502438D01*
X153214285Y-98502438D02*
X153261904Y-98550057D01*
X153261904Y-98550057D02*
X153309523Y-98645295D01*
X153309523Y-98645295D02*
X153309523Y-98740533D01*
X153309523Y-98740533D02*
X153261904Y-98883390D01*
X153261904Y-98883390D02*
X152690476Y-99454819D01*
X152690476Y-99454819D02*
X153309523Y-99454819D01*
X133583333Y-82209580D02*
X133535714Y-82257200D01*
X133535714Y-82257200D02*
X133392857Y-82304819D01*
X133392857Y-82304819D02*
X133297619Y-82304819D01*
X133297619Y-82304819D02*
X133154762Y-82257200D01*
X133154762Y-82257200D02*
X133059524Y-82161961D01*
X133059524Y-82161961D02*
X133011905Y-82066723D01*
X133011905Y-82066723D02*
X132964286Y-81876247D01*
X132964286Y-81876247D02*
X132964286Y-81733390D01*
X132964286Y-81733390D02*
X133011905Y-81542914D01*
X133011905Y-81542914D02*
X133059524Y-81447676D01*
X133059524Y-81447676D02*
X133154762Y-81352438D01*
X133154762Y-81352438D02*
X133297619Y-81304819D01*
X133297619Y-81304819D02*
X133392857Y-81304819D01*
X133392857Y-81304819D02*
X133535714Y-81352438D01*
X133535714Y-81352438D02*
X133583333Y-81400057D01*
X133964286Y-81400057D02*
X134011905Y-81352438D01*
X134011905Y-81352438D02*
X134107143Y-81304819D01*
X134107143Y-81304819D02*
X134345238Y-81304819D01*
X134345238Y-81304819D02*
X134440476Y-81352438D01*
X134440476Y-81352438D02*
X134488095Y-81400057D01*
X134488095Y-81400057D02*
X134535714Y-81495295D01*
X134535714Y-81495295D02*
X134535714Y-81590533D01*
X134535714Y-81590533D02*
X134488095Y-81733390D01*
X134488095Y-81733390D02*
X133916667Y-82304819D01*
X133916667Y-82304819D02*
X134535714Y-82304819D01*
X125261905Y-79954819D02*
X125261905Y-78954819D01*
X125261905Y-78954819D02*
X125500000Y-78954819D01*
X125500000Y-78954819D02*
X125642857Y-79002438D01*
X125642857Y-79002438D02*
X125738095Y-79097676D01*
X125738095Y-79097676D02*
X125785714Y-79192914D01*
X125785714Y-79192914D02*
X125833333Y-79383390D01*
X125833333Y-79383390D02*
X125833333Y-79526247D01*
X125833333Y-79526247D02*
X125785714Y-79716723D01*
X125785714Y-79716723D02*
X125738095Y-79811961D01*
X125738095Y-79811961D02*
X125642857Y-79907200D01*
X125642857Y-79907200D02*
X125500000Y-79954819D01*
X125500000Y-79954819D02*
X125261905Y-79954819D01*
X126214286Y-79050057D02*
X126261905Y-79002438D01*
X126261905Y-79002438D02*
X126357143Y-78954819D01*
X126357143Y-78954819D02*
X126595238Y-78954819D01*
X126595238Y-78954819D02*
X126690476Y-79002438D01*
X126690476Y-79002438D02*
X126738095Y-79050057D01*
X126738095Y-79050057D02*
X126785714Y-79145295D01*
X126785714Y-79145295D02*
X126785714Y-79240533D01*
X126785714Y-79240533D02*
X126738095Y-79383390D01*
X126738095Y-79383390D02*
X126166667Y-79954819D01*
X126166667Y-79954819D02*
X126785714Y-79954819D01*
X158190476Y-58454819D02*
X158190476Y-57454819D01*
X158190476Y-57454819D02*
X158523809Y-58169104D01*
X158523809Y-58169104D02*
X158857142Y-57454819D01*
X158857142Y-57454819D02*
X158857142Y-58454819D01*
X159238095Y-57454819D02*
X159857142Y-57454819D01*
X159857142Y-57454819D02*
X159523809Y-57835771D01*
X159523809Y-57835771D02*
X159666666Y-57835771D01*
X159666666Y-57835771D02*
X159761904Y-57883390D01*
X159761904Y-57883390D02*
X159809523Y-57931009D01*
X159809523Y-57931009D02*
X159857142Y-58026247D01*
X159857142Y-58026247D02*
X159857142Y-58264342D01*
X159857142Y-58264342D02*
X159809523Y-58359580D01*
X159809523Y-58359580D02*
X159761904Y-58407200D01*
X159761904Y-58407200D02*
X159666666Y-58454819D01*
X159666666Y-58454819D02*
X159380952Y-58454819D01*
X159380952Y-58454819D02*
X159285714Y-58407200D01*
X159285714Y-58407200D02*
X159238095Y-58359580D01*
X137666666Y-78931009D02*
X137333333Y-78931009D01*
X137333333Y-79454819D02*
X137333333Y-78454819D01*
X137333333Y-78454819D02*
X137809523Y-78454819D01*
X138095238Y-78454819D02*
X138714285Y-78454819D01*
X138714285Y-78454819D02*
X138380952Y-78835771D01*
X138380952Y-78835771D02*
X138523809Y-78835771D01*
X138523809Y-78835771D02*
X138619047Y-78883390D01*
X138619047Y-78883390D02*
X138666666Y-78931009D01*
X138666666Y-78931009D02*
X138714285Y-79026247D01*
X138714285Y-79026247D02*
X138714285Y-79264342D01*
X138714285Y-79264342D02*
X138666666Y-79359580D01*
X138666666Y-79359580D02*
X138619047Y-79407200D01*
X138619047Y-79407200D02*
X138523809Y-79454819D01*
X138523809Y-79454819D02*
X138238095Y-79454819D01*
X138238095Y-79454819D02*
X138142857Y-79407200D01*
X138142857Y-79407200D02*
X138095238Y-79359580D01*
X139833333Y-96859580D02*
X139785714Y-96907200D01*
X139785714Y-96907200D02*
X139642857Y-96954819D01*
X139642857Y-96954819D02*
X139547619Y-96954819D01*
X139547619Y-96954819D02*
X139404762Y-96907200D01*
X139404762Y-96907200D02*
X139309524Y-96811961D01*
X139309524Y-96811961D02*
X139261905Y-96716723D01*
X139261905Y-96716723D02*
X139214286Y-96526247D01*
X139214286Y-96526247D02*
X139214286Y-96383390D01*
X139214286Y-96383390D02*
X139261905Y-96192914D01*
X139261905Y-96192914D02*
X139309524Y-96097676D01*
X139309524Y-96097676D02*
X139404762Y-96002438D01*
X139404762Y-96002438D02*
X139547619Y-95954819D01*
X139547619Y-95954819D02*
X139642857Y-95954819D01*
X139642857Y-95954819D02*
X139785714Y-96002438D01*
X139785714Y-96002438D02*
X139833333Y-96050057D01*
X140738095Y-95954819D02*
X140261905Y-95954819D01*
X140261905Y-95954819D02*
X140214286Y-96431009D01*
X140214286Y-96431009D02*
X140261905Y-96383390D01*
X140261905Y-96383390D02*
X140357143Y-96335771D01*
X140357143Y-96335771D02*
X140595238Y-96335771D01*
X140595238Y-96335771D02*
X140690476Y-96383390D01*
X140690476Y-96383390D02*
X140738095Y-96431009D01*
X140738095Y-96431009D02*
X140785714Y-96526247D01*
X140785714Y-96526247D02*
X140785714Y-96764342D01*
X140785714Y-96764342D02*
X140738095Y-96859580D01*
X140738095Y-96859580D02*
X140690476Y-96907200D01*
X140690476Y-96907200D02*
X140595238Y-96954819D01*
X140595238Y-96954819D02*
X140357143Y-96954819D01*
X140357143Y-96954819D02*
X140261905Y-96907200D01*
X140261905Y-96907200D02*
X140214286Y-96859580D01*
X131950057Y-73055238D02*
X131902438Y-73150476D01*
X131902438Y-73150476D02*
X131807200Y-73245714D01*
X131807200Y-73245714D02*
X131664342Y-73388571D01*
X131664342Y-73388571D02*
X131616723Y-73483809D01*
X131616723Y-73483809D02*
X131616723Y-73579047D01*
X131854819Y-73531428D02*
X131807200Y-73626666D01*
X131807200Y-73626666D02*
X131711961Y-73721904D01*
X131711961Y-73721904D02*
X131521485Y-73769523D01*
X131521485Y-73769523D02*
X131188152Y-73769523D01*
X131188152Y-73769523D02*
X130997676Y-73721904D01*
X130997676Y-73721904D02*
X130902438Y-73626666D01*
X130902438Y-73626666D02*
X130854819Y-73531428D01*
X130854819Y-73531428D02*
X130854819Y-73340952D01*
X130854819Y-73340952D02*
X130902438Y-73245714D01*
X130902438Y-73245714D02*
X130997676Y-73150476D01*
X130997676Y-73150476D02*
X131188152Y-73102857D01*
X131188152Y-73102857D02*
X131521485Y-73102857D01*
X131521485Y-73102857D02*
X131711961Y-73150476D01*
X131711961Y-73150476D02*
X131807200Y-73245714D01*
X131807200Y-73245714D02*
X131854819Y-73340952D01*
X131854819Y-73340952D02*
X131854819Y-73531428D01*
X131854819Y-72150476D02*
X131854819Y-72721904D01*
X131854819Y-72436190D02*
X130854819Y-72436190D01*
X130854819Y-72436190D02*
X130997676Y-72531428D01*
X130997676Y-72531428D02*
X131092914Y-72626666D01*
X131092914Y-72626666D02*
X131140533Y-72721904D01*
X139357142Y-65954819D02*
X138785714Y-65954819D01*
X139071428Y-65954819D02*
X139071428Y-64954819D01*
X139071428Y-64954819D02*
X138976190Y-65097676D01*
X138976190Y-65097676D02*
X138880952Y-65192914D01*
X138880952Y-65192914D02*
X138785714Y-65240533D01*
X139738095Y-65050057D02*
X139785714Y-65002438D01*
X139785714Y-65002438D02*
X139880952Y-64954819D01*
X139880952Y-64954819D02*
X140119047Y-64954819D01*
X140119047Y-64954819D02*
X140214285Y-65002438D01*
X140214285Y-65002438D02*
X140261904Y-65050057D01*
X140261904Y-65050057D02*
X140309523Y-65145295D01*
X140309523Y-65145295D02*
X140309523Y-65240533D01*
X140309523Y-65240533D02*
X140261904Y-65383390D01*
X140261904Y-65383390D02*
X139690476Y-65954819D01*
X139690476Y-65954819D02*
X140309523Y-65954819D01*
X140595238Y-64954819D02*
X140928571Y-65954819D01*
X140928571Y-65954819D02*
X141261904Y-64954819D01*
X142357143Y-65954819D02*
X142357143Y-64954819D01*
X142357143Y-64954819D02*
X142595238Y-64954819D01*
X142595238Y-64954819D02*
X142738095Y-65002438D01*
X142738095Y-65002438D02*
X142833333Y-65097676D01*
X142833333Y-65097676D02*
X142880952Y-65192914D01*
X142880952Y-65192914D02*
X142928571Y-65383390D01*
X142928571Y-65383390D02*
X142928571Y-65526247D01*
X142928571Y-65526247D02*
X142880952Y-65716723D01*
X142880952Y-65716723D02*
X142833333Y-65811961D01*
X142833333Y-65811961D02*
X142738095Y-65907200D01*
X142738095Y-65907200D02*
X142595238Y-65954819D01*
X142595238Y-65954819D02*
X142357143Y-65954819D01*
X143928571Y-65859580D02*
X143880952Y-65907200D01*
X143880952Y-65907200D02*
X143738095Y-65954819D01*
X143738095Y-65954819D02*
X143642857Y-65954819D01*
X143642857Y-65954819D02*
X143500000Y-65907200D01*
X143500000Y-65907200D02*
X143404762Y-65811961D01*
X143404762Y-65811961D02*
X143357143Y-65716723D01*
X143357143Y-65716723D02*
X143309524Y-65526247D01*
X143309524Y-65526247D02*
X143309524Y-65383390D01*
X143309524Y-65383390D02*
X143357143Y-65192914D01*
X143357143Y-65192914D02*
X143404762Y-65097676D01*
X143404762Y-65097676D02*
X143500000Y-65002438D01*
X143500000Y-65002438D02*
X143642857Y-64954819D01*
X143642857Y-64954819D02*
X143738095Y-64954819D01*
X143738095Y-64954819D02*
X143880952Y-65002438D01*
X143880952Y-65002438D02*
X143928571Y-65050057D01*
X145119048Y-65954819D02*
X145119048Y-64954819D01*
X145595238Y-65954819D02*
X145595238Y-64954819D01*
X145595238Y-64954819D02*
X146166666Y-65954819D01*
X146166666Y-65954819D02*
X146166666Y-64954819D01*
X135454819Y-87166666D02*
X134978628Y-87499999D01*
X135454819Y-87738094D02*
X134454819Y-87738094D01*
X134454819Y-87738094D02*
X134454819Y-87357142D01*
X134454819Y-87357142D02*
X134502438Y-87261904D01*
X134502438Y-87261904D02*
X134550057Y-87214285D01*
X134550057Y-87214285D02*
X134645295Y-87166666D01*
X134645295Y-87166666D02*
X134788152Y-87166666D01*
X134788152Y-87166666D02*
X134883390Y-87214285D01*
X134883390Y-87214285D02*
X134931009Y-87261904D01*
X134931009Y-87261904D02*
X134978628Y-87357142D01*
X134978628Y-87357142D02*
X134978628Y-87738094D01*
X134550057Y-86785713D02*
X134502438Y-86738094D01*
X134502438Y-86738094D02*
X134454819Y-86642856D01*
X134454819Y-86642856D02*
X134454819Y-86404761D01*
X134454819Y-86404761D02*
X134502438Y-86309523D01*
X134502438Y-86309523D02*
X134550057Y-86261904D01*
X134550057Y-86261904D02*
X134645295Y-86214285D01*
X134645295Y-86214285D02*
X134740533Y-86214285D01*
X134740533Y-86214285D02*
X134883390Y-86261904D01*
X134883390Y-86261904D02*
X135454819Y-86833332D01*
X135454819Y-86833332D02*
X135454819Y-86214285D01*
X122833333Y-91359580D02*
X122785714Y-91407200D01*
X122785714Y-91407200D02*
X122642857Y-91454819D01*
X122642857Y-91454819D02*
X122547619Y-91454819D01*
X122547619Y-91454819D02*
X122404762Y-91407200D01*
X122404762Y-91407200D02*
X122309524Y-91311961D01*
X122309524Y-91311961D02*
X122261905Y-91216723D01*
X122261905Y-91216723D02*
X122214286Y-91026247D01*
X122214286Y-91026247D02*
X122214286Y-90883390D01*
X122214286Y-90883390D02*
X122261905Y-90692914D01*
X122261905Y-90692914D02*
X122309524Y-90597676D01*
X122309524Y-90597676D02*
X122404762Y-90502438D01*
X122404762Y-90502438D02*
X122547619Y-90454819D01*
X122547619Y-90454819D02*
X122642857Y-90454819D01*
X122642857Y-90454819D02*
X122785714Y-90502438D01*
X122785714Y-90502438D02*
X122833333Y-90550057D01*
X123785714Y-91454819D02*
X123214286Y-91454819D01*
X123500000Y-91454819D02*
X123500000Y-90454819D01*
X123500000Y-90454819D02*
X123404762Y-90597676D01*
X123404762Y-90597676D02*
X123309524Y-90692914D01*
X123309524Y-90692914D02*
X123214286Y-90740533D01*
X143833333Y-96859580D02*
X143785714Y-96907200D01*
X143785714Y-96907200D02*
X143642857Y-96954819D01*
X143642857Y-96954819D02*
X143547619Y-96954819D01*
X143547619Y-96954819D02*
X143404762Y-96907200D01*
X143404762Y-96907200D02*
X143309524Y-96811961D01*
X143309524Y-96811961D02*
X143261905Y-96716723D01*
X143261905Y-96716723D02*
X143214286Y-96526247D01*
X143214286Y-96526247D02*
X143214286Y-96383390D01*
X143214286Y-96383390D02*
X143261905Y-96192914D01*
X143261905Y-96192914D02*
X143309524Y-96097676D01*
X143309524Y-96097676D02*
X143404762Y-96002438D01*
X143404762Y-96002438D02*
X143547619Y-95954819D01*
X143547619Y-95954819D02*
X143642857Y-95954819D01*
X143642857Y-95954819D02*
X143785714Y-96002438D01*
X143785714Y-96002438D02*
X143833333Y-96050057D01*
X144690476Y-96288152D02*
X144690476Y-96954819D01*
X144452381Y-95907200D02*
X144214286Y-96621485D01*
X144214286Y-96621485D02*
X144833333Y-96621485D01*
X135309523Y-99859580D02*
X135261904Y-99907200D01*
X135261904Y-99907200D02*
X135119047Y-99954819D01*
X135119047Y-99954819D02*
X135023809Y-99954819D01*
X135023809Y-99954819D02*
X134880952Y-99907200D01*
X134880952Y-99907200D02*
X134785714Y-99811961D01*
X134785714Y-99811961D02*
X134738095Y-99716723D01*
X134738095Y-99716723D02*
X134690476Y-99526247D01*
X134690476Y-99526247D02*
X134690476Y-99383390D01*
X134690476Y-99383390D02*
X134738095Y-99192914D01*
X134738095Y-99192914D02*
X134785714Y-99097676D01*
X134785714Y-99097676D02*
X134880952Y-99002438D01*
X134880952Y-99002438D02*
X135023809Y-98954819D01*
X135023809Y-98954819D02*
X135119047Y-98954819D01*
X135119047Y-98954819D02*
X135261904Y-99002438D01*
X135261904Y-99002438D02*
X135309523Y-99050057D01*
X135738095Y-99954819D02*
X135738095Y-98954819D01*
X135738095Y-98954819D02*
X136309523Y-99954819D01*
X136309523Y-99954819D02*
X136309523Y-98954819D01*
X137309523Y-99954819D02*
X136738095Y-99954819D01*
X137023809Y-99954819D02*
X137023809Y-98954819D01*
X137023809Y-98954819D02*
X136928571Y-99097676D01*
X136928571Y-99097676D02*
X136833333Y-99192914D01*
X136833333Y-99192914D02*
X136738095Y-99240533D01*
X137666666Y-70931009D02*
X137333333Y-70931009D01*
X137333333Y-71454819D02*
X137333333Y-70454819D01*
X137333333Y-70454819D02*
X137809523Y-70454819D01*
X138714285Y-71454819D02*
X138142857Y-71454819D01*
X138428571Y-71454819D02*
X138428571Y-70454819D01*
X138428571Y-70454819D02*
X138333333Y-70597676D01*
X138333333Y-70597676D02*
X138238095Y-70692914D01*
X138238095Y-70692914D02*
X138142857Y-70740533D01*
X158833333Y-84859580D02*
X158785714Y-84907200D01*
X158785714Y-84907200D02*
X158642857Y-84954819D01*
X158642857Y-84954819D02*
X158547619Y-84954819D01*
X158547619Y-84954819D02*
X158404762Y-84907200D01*
X158404762Y-84907200D02*
X158309524Y-84811961D01*
X158309524Y-84811961D02*
X158261905Y-84716723D01*
X158261905Y-84716723D02*
X158214286Y-84526247D01*
X158214286Y-84526247D02*
X158214286Y-84383390D01*
X158214286Y-84383390D02*
X158261905Y-84192914D01*
X158261905Y-84192914D02*
X158309524Y-84097676D01*
X158309524Y-84097676D02*
X158404762Y-84002438D01*
X158404762Y-84002438D02*
X158547619Y-83954819D01*
X158547619Y-83954819D02*
X158642857Y-83954819D01*
X158642857Y-83954819D02*
X158785714Y-84002438D01*
X158785714Y-84002438D02*
X158833333Y-84050057D01*
X159166667Y-83954819D02*
X159785714Y-83954819D01*
X159785714Y-83954819D02*
X159452381Y-84335771D01*
X159452381Y-84335771D02*
X159595238Y-84335771D01*
X159595238Y-84335771D02*
X159690476Y-84383390D01*
X159690476Y-84383390D02*
X159738095Y-84431009D01*
X159738095Y-84431009D02*
X159785714Y-84526247D01*
X159785714Y-84526247D02*
X159785714Y-84764342D01*
X159785714Y-84764342D02*
X159738095Y-84859580D01*
X159738095Y-84859580D02*
X159690476Y-84907200D01*
X159690476Y-84907200D02*
X159595238Y-84954819D01*
X159595238Y-84954819D02*
X159309524Y-84954819D01*
X159309524Y-84954819D02*
X159214286Y-84907200D01*
X159214286Y-84907200D02*
X159166667Y-84859580D01*
D11*
%TO.C,R1*%
X124090000Y-75677064D02*
X124090000Y-74222936D01*
X125910000Y-75677064D02*
X125910000Y-74222936D01*
%TO.C,F2*%
X125970000Y-93400000D02*
X126372000Y-93400000D01*
X125970000Y-93789000D02*
X125970000Y-93400000D01*
X125970000Y-96600000D02*
X125970000Y-95011000D01*
X127528000Y-93400000D02*
X133030000Y-93400000D01*
X131472000Y-96600000D02*
X125970000Y-96600000D01*
X133030000Y-93400000D02*
X133030000Y-94989000D01*
X133030000Y-96211000D02*
X133030000Y-96600000D01*
X133030000Y-96600000D02*
X132628000Y-96600000D01*
%TO.C,D3*%
X146010000Y-84850000D02*
X140500000Y-84850000D01*
X146010000Y-88150000D02*
X140500000Y-88150000D01*
X146010000Y-88150000D02*
X146010000Y-84850000D01*
%TO.C,D1*%
X127735000Y-70170000D02*
X127735000Y-71060000D01*
X127735000Y-71060000D02*
X125885000Y-71060000D01*
X127750000Y-67940000D02*
X125900000Y-67940000D01*
X127750000Y-67940000D02*
X127750000Y-68830000D01*
X125510000Y-67950000D02*
X125270000Y-67620000D01*
X125750000Y-67620000D01*
X125510000Y-67950000D01*
G36*
X125510000Y-67950000D02*
G01*
X125270000Y-67620000D01*
X125750000Y-67620000D01*
X125510000Y-67950000D01*
G37*
%TO.C,R3*%
X136090000Y-93727064D02*
X136090000Y-92272936D01*
X137910000Y-93727064D02*
X137910000Y-92272936D01*
%TO.C,CN2*%
X141940000Y-98090000D02*
X150020000Y-98090000D01*
X141940000Y-105110000D02*
X141940000Y-98090000D01*
X143140000Y-105110000D02*
X141940000Y-105110000D01*
X143140000Y-106810000D02*
X143140000Y-105110000D01*
X148820000Y-105110000D02*
X148820000Y-106810000D01*
X148820000Y-106810000D02*
X143140000Y-106810000D01*
X150020000Y-98090000D02*
X150020000Y-105110000D01*
X150020000Y-105110000D02*
X148820000Y-105110000D01*
X150220000Y-103000000D02*
X150820000Y-102700000D01*
X150820000Y-102700000D02*
X150820000Y-103300000D01*
X150820000Y-103300000D02*
X150220000Y-103000000D01*
%TO.C,C2*%
X134461252Y-79090000D02*
X133038748Y-79090000D01*
X134461252Y-80910000D02*
X133038748Y-80910000D01*
%TO.C,D2*%
X127350000Y-80010000D02*
X127350000Y-74500000D01*
X127350000Y-80010000D02*
X130650000Y-80010000D01*
X130650000Y-80010000D02*
X130650000Y-74500000D01*
%TO.C,F3*%
X139290000Y-75440000D02*
X159910000Y-75440000D01*
X139290000Y-82060000D02*
X139290000Y-75440000D01*
X159910000Y-75440000D02*
X159910000Y-82060000D01*
X159910000Y-82060000D02*
X139290000Y-82060000D01*
%TO.C,C5*%
X139090000Y-92288748D02*
X139090000Y-93711252D01*
X140910000Y-92288748D02*
X140910000Y-93711252D01*
%TO.C,Q1*%
X132240000Y-67850000D02*
X136860000Y-67850000D01*
X132240000Y-71110000D02*
X133620000Y-71110000D01*
X132240000Y-74810000D02*
X133620000Y-74810000D01*
X132240000Y-78070000D02*
X132240000Y-67850000D01*
X133620000Y-78070000D02*
X133620000Y-67850000D01*
X136860000Y-67850000D02*
X136860000Y-78070000D01*
X136860000Y-78070000D02*
X132240000Y-78070000D01*
%TO.C,12V DC IN*%
X129680000Y-61200000D02*
X130280000Y-61500000D01*
X129680000Y-61800000D02*
X129680000Y-61200000D01*
X130280000Y-61500000D02*
X129680000Y-61800000D01*
X130480000Y-59390000D02*
X131680000Y-59390000D01*
X130480000Y-66410000D02*
X130480000Y-59390000D01*
X131680000Y-57690000D02*
X137360000Y-57690000D01*
X131680000Y-59390000D02*
X131680000Y-57690000D01*
X137360000Y-57690000D02*
X137360000Y-59390000D01*
X137360000Y-59390000D02*
X138560000Y-59390000D01*
X138560000Y-59390000D02*
X138560000Y-66410000D01*
X138560000Y-66410000D02*
X130480000Y-66410000D01*
%TO.C,R2*%
X136090000Y-86272936D02*
X136090000Y-87727064D01*
X137910000Y-86272936D02*
X137910000Y-87727064D01*
%TO.C,C1*%
X122287677Y-86599000D02*
X122287677Y-85401000D01*
X122327677Y-86862000D02*
X122327677Y-85138000D01*
X122367677Y-87062000D02*
X122367677Y-84938000D01*
X122407677Y-87230000D02*
X122407677Y-84770000D01*
X122447677Y-87377000D02*
X122447677Y-84623000D01*
X122487677Y-87509000D02*
X122487677Y-84491000D01*
X122527677Y-87630000D02*
X122527677Y-84370000D01*
X122567677Y-87742000D02*
X122567677Y-84258000D01*
X122607677Y-87846000D02*
X122607677Y-84154000D01*
X122647677Y-87944000D02*
X122647677Y-84056000D01*
X122687677Y-88037000D02*
X122687677Y-83963000D01*
X122727677Y-88124000D02*
X122727677Y-83876000D01*
X122767677Y-88208000D02*
X122767677Y-83792000D01*
X122807677Y-88288000D02*
X122807677Y-83712000D01*
X122847677Y-88365000D02*
X122847677Y-83635000D01*
X122887677Y-88439000D02*
X122887677Y-83561000D01*
X122927677Y-88510000D02*
X122927677Y-83490000D01*
X122967677Y-88578000D02*
X122967677Y-83422000D01*
X123007677Y-88644000D02*
X123007677Y-83356000D01*
X123047677Y-88708000D02*
X123047677Y-83292000D01*
X123087677Y-88770000D02*
X123087677Y-83230000D01*
X123127677Y-88830000D02*
X123127677Y-83170000D01*
X123167677Y-88888000D02*
X123167677Y-83112000D01*
X123207677Y-88945000D02*
X123207677Y-83055000D01*
X123247677Y-89000000D02*
X123247677Y-83000000D01*
X123287677Y-89053000D02*
X123287677Y-82947000D01*
X123327677Y-89105000D02*
X123327677Y-82895000D01*
X123367677Y-89156000D02*
X123367677Y-82844000D01*
X123407677Y-89205000D02*
X123407677Y-82795000D01*
X123447677Y-89254000D02*
X123447677Y-82746000D01*
X123487677Y-89301000D02*
X123487677Y-82699000D01*
X123527677Y-89347000D02*
X123527677Y-82653000D01*
X123567677Y-89391000D02*
X123567677Y-82609000D01*
X123607677Y-89435000D02*
X123607677Y-82565000D01*
X123647677Y-84760000D02*
X123647677Y-82522000D01*
X123647677Y-89478000D02*
X123647677Y-87240000D01*
X123687677Y-84760000D02*
X123687677Y-82480000D01*
X123687677Y-89520000D02*
X123687677Y-87240000D01*
X123727677Y-84760000D02*
X123727677Y-82439000D01*
X123727677Y-89561000D02*
X123727677Y-87240000D01*
X123767677Y-84760000D02*
X123767677Y-82399000D01*
X123767677Y-89601000D02*
X123767677Y-87240000D01*
X123807677Y-84760000D02*
X123807677Y-82360000D01*
X123807677Y-89640000D02*
X123807677Y-87240000D01*
X123847677Y-84760000D02*
X123847677Y-82322000D01*
X123847677Y-89678000D02*
X123847677Y-87240000D01*
X123887677Y-84760000D02*
X123887677Y-82284000D01*
X123887677Y-89716000D02*
X123887677Y-87240000D01*
X123927677Y-84760000D02*
X123927677Y-82248000D01*
X123927677Y-89752000D02*
X123927677Y-87240000D01*
X123967677Y-84760000D02*
X123967677Y-82212000D01*
X123967677Y-89788000D02*
X123967677Y-87240000D01*
X124007677Y-84760000D02*
X124007677Y-82177000D01*
X124007677Y-89823000D02*
X124007677Y-87240000D01*
X124047677Y-84760000D02*
X124047677Y-82142000D01*
X124047677Y-89858000D02*
X124047677Y-87240000D01*
X124087677Y-84760000D02*
X124087677Y-82109000D01*
X124087677Y-89891000D02*
X124087677Y-87240000D01*
X124127677Y-84760000D02*
X124127677Y-82076000D01*
X124127677Y-89924000D02*
X124127677Y-87240000D01*
X124167677Y-84760000D02*
X124167677Y-82043000D01*
X124167677Y-89957000D02*
X124167677Y-87240000D01*
X124207677Y-84760000D02*
X124207677Y-82012000D01*
X124207677Y-89988000D02*
X124207677Y-87240000D01*
X124247677Y-84760000D02*
X124247677Y-81980000D01*
X124247677Y-90020000D02*
X124247677Y-87240000D01*
X124287677Y-84760000D02*
X124287677Y-81950000D01*
X124287677Y-90050000D02*
X124287677Y-87240000D01*
X124327677Y-84760000D02*
X124327677Y-81920000D01*
X124327677Y-90080000D02*
X124327677Y-87240000D01*
X124367677Y-84760000D02*
X124367677Y-81891000D01*
X124367677Y-90109000D02*
X124367677Y-87240000D01*
X124407677Y-84760000D02*
X124407677Y-81862000D01*
X124407677Y-90138000D02*
X124407677Y-87240000D01*
X124447677Y-84760000D02*
X124447677Y-81834000D01*
X124447677Y-90166000D02*
X124447677Y-87240000D01*
X124487677Y-84760000D02*
X124487677Y-81807000D01*
X124487677Y-90193000D02*
X124487677Y-87240000D01*
X124527677Y-84760000D02*
X124527677Y-81780000D01*
X124527677Y-90220000D02*
X124527677Y-87240000D01*
X124567677Y-84760000D02*
X124567677Y-81753000D01*
X124567677Y-90247000D02*
X124567677Y-87240000D01*
X124607677Y-84760000D02*
X124607677Y-81728000D01*
X124607677Y-90272000D02*
X124607677Y-87240000D01*
X124647677Y-84760000D02*
X124647677Y-81702000D01*
X124647677Y-90298000D02*
X124647677Y-87240000D01*
X124687677Y-84760000D02*
X124687677Y-81677000D01*
X124687677Y-90323000D02*
X124687677Y-87240000D01*
X124727677Y-84760000D02*
X124727677Y-81653000D01*
X124727677Y-90347000D02*
X124727677Y-87240000D01*
X124767677Y-84760000D02*
X124767677Y-81629000D01*
X124767677Y-90371000D02*
X124767677Y-87240000D01*
X124807677Y-84760000D02*
X124807677Y-81606000D01*
X124807677Y-90394000D02*
X124807677Y-87240000D01*
X124847677Y-84760000D02*
X124847677Y-81583000D01*
X124847677Y-90417000D02*
X124847677Y-87240000D01*
X124887677Y-84760000D02*
X124887677Y-81561000D01*
X124887677Y-90439000D02*
X124887677Y-87240000D01*
X124927677Y-84760000D02*
X124927677Y-81539000D01*
X124927677Y-90461000D02*
X124927677Y-87240000D01*
X124967677Y-84760000D02*
X124967677Y-81517000D01*
X124967677Y-90483000D02*
X124967677Y-87240000D01*
X125007677Y-84760000D02*
X125007677Y-81496000D01*
X125007677Y-90504000D02*
X125007677Y-87240000D01*
X125047677Y-84760000D02*
X125047677Y-81476000D01*
X125047677Y-90524000D02*
X125047677Y-87240000D01*
X125087677Y-84760000D02*
X125087677Y-81456000D01*
X125087677Y-90544000D02*
X125087677Y-87240000D01*
X125127677Y-84760000D02*
X125127677Y-81436000D01*
X125127677Y-90564000D02*
X125127677Y-87240000D01*
X125167677Y-84760000D02*
X125167677Y-81417000D01*
X125167677Y-90583000D02*
X125167677Y-87240000D01*
X125207677Y-84760000D02*
X125207677Y-81398000D01*
X125207677Y-90602000D02*
X125207677Y-87240000D01*
X125247677Y-84760000D02*
X125247677Y-81380000D01*
X125247677Y-90620000D02*
X125247677Y-87240000D01*
X125287677Y-84760000D02*
X125287677Y-81362000D01*
X125287677Y-90638000D02*
X125287677Y-87240000D01*
X125327677Y-84760000D02*
X125327677Y-81344000D01*
X125327677Y-90656000D02*
X125327677Y-87240000D01*
X125367677Y-84760000D02*
X125367677Y-81327000D01*
X125367677Y-90673000D02*
X125367677Y-87240000D01*
X125407677Y-84760000D02*
X125407677Y-81310000D01*
X125407677Y-90690000D02*
X125407677Y-87240000D01*
X125447677Y-84760000D02*
X125447677Y-81294000D01*
X125447677Y-90706000D02*
X125447677Y-87240000D01*
X125487677Y-84760000D02*
X125487677Y-81278000D01*
X125487677Y-90722000D02*
X125487677Y-87240000D01*
X125527677Y-84760000D02*
X125527677Y-81262000D01*
X125527677Y-90738000D02*
X125527677Y-87240000D01*
X125567677Y-84760000D02*
X125567677Y-81247000D01*
X125567677Y-90753000D02*
X125567677Y-87240000D01*
X125607677Y-84760000D02*
X125607677Y-81232000D01*
X125607677Y-90768000D02*
X125607677Y-87240000D01*
X125647677Y-84760000D02*
X125647677Y-81218000D01*
X125647677Y-90782000D02*
X125647677Y-87240000D01*
X125687677Y-84760000D02*
X125687677Y-81203000D01*
X125687677Y-90797000D02*
X125687677Y-87240000D01*
X125727677Y-84760000D02*
X125727677Y-81190000D01*
X125727677Y-90810000D02*
X125727677Y-87240000D01*
X125767677Y-84760000D02*
X125767677Y-81176000D01*
X125767677Y-90824000D02*
X125767677Y-87240000D01*
X125807677Y-84760000D02*
X125807677Y-81163000D01*
X125807677Y-90837000D02*
X125807677Y-87240000D01*
X125847677Y-84760000D02*
X125847677Y-81151000D01*
X125847677Y-90849000D02*
X125847677Y-87240000D01*
X125887677Y-84760000D02*
X125887677Y-81139000D01*
X125887677Y-90861000D02*
X125887677Y-87240000D01*
X125927677Y-84760000D02*
X125927677Y-81127000D01*
X125927677Y-90873000D02*
X125927677Y-87240000D01*
X125967677Y-84760000D02*
X125967677Y-81115000D01*
X125967677Y-90885000D02*
X125967677Y-87240000D01*
X126007677Y-84760000D02*
X126007677Y-81104000D01*
X126007677Y-90896000D02*
X126007677Y-87240000D01*
X126047677Y-84760000D02*
X126047677Y-81093000D01*
X126047677Y-90907000D02*
X126047677Y-87240000D01*
X126087677Y-84760000D02*
X126087677Y-81083000D01*
X126087677Y-90917000D02*
X126087677Y-87240000D01*
X126127677Y-90928000D02*
X126127677Y-81072000D01*
X126167677Y-90937000D02*
X126167677Y-81063000D01*
X126207677Y-90947000D02*
X126207677Y-81053000D01*
X126247677Y-90956000D02*
X126247677Y-81044000D01*
X126287677Y-90965000D02*
X126287677Y-81035000D01*
X126327677Y-90973000D02*
X126327677Y-81027000D01*
X126367677Y-90981000D02*
X126367677Y-81019000D01*
X126407677Y-90989000D02*
X126407677Y-81011000D01*
X126447677Y-90997000D02*
X126447677Y-81003000D01*
X126487677Y-91004000D02*
X126487677Y-80996000D01*
X126527677Y-91011000D02*
X126527677Y-80989000D01*
X126567677Y-91017000D02*
X126567677Y-80983000D01*
X126607677Y-91023000D02*
X126607677Y-80977000D01*
X126647677Y-91029000D02*
X126647677Y-80971000D01*
X126687677Y-91035000D02*
X126687677Y-80965000D01*
X126727677Y-91040000D02*
X126727677Y-80960000D01*
X126767677Y-91045000D02*
X126767677Y-80955000D01*
X126807677Y-91049000D02*
X126807677Y-80951000D01*
X126847677Y-91054000D02*
X126847677Y-80946000D01*
X126887677Y-91057000D02*
X126887677Y-80943000D01*
X126927677Y-91061000D02*
X126927677Y-80939000D01*
X126967677Y-91064000D02*
X126967677Y-80936000D01*
X127007677Y-91067000D02*
X127007677Y-80933000D01*
X127047677Y-91070000D02*
X127047677Y-80930000D01*
X127087677Y-91072000D02*
X127087677Y-80928000D01*
X127127677Y-91074000D02*
X127127677Y-80926000D01*
X127167677Y-91076000D02*
X127167677Y-80924000D01*
X127207677Y-91077000D02*
X127207677Y-80923000D01*
X127247677Y-91079000D02*
X127247677Y-80921000D01*
X127287677Y-91079000D02*
X127287677Y-80921000D01*
X127327677Y-91080000D02*
X127327677Y-80920000D01*
X127367677Y-91080000D02*
X127367677Y-80920000D01*
X132347323Y-89375000D02*
X132347323Y-88375000D01*
X132847323Y-88875000D02*
X131847323Y-88875000D01*
X132487677Y-86000000D02*
G75*
G02*
X122247677Y-86000000I-5120000J0D01*
G01*
X122247677Y-86000000D02*
G75*
G02*
X132487677Y-86000000I5120000J0D01*
G01*
%TO.C,C4*%
X143090000Y-93711252D02*
X143090000Y-92288748D01*
X144910000Y-93711252D02*
X144910000Y-92288748D01*
%TO.C,CN1*%
X131840000Y-100990000D02*
X131840000Y-106960000D01*
X131840000Y-106960000D02*
X139460000Y-106960000D01*
X131850000Y-104700000D02*
X132600000Y-104700000D01*
X131850000Y-106200000D02*
X131850000Y-106950000D01*
X131850000Y-106950000D02*
X133650000Y-106950000D01*
X132600000Y-101750000D02*
X135650000Y-101750000D01*
X132600000Y-104700000D02*
X132600000Y-101750000D01*
X133650000Y-106200000D02*
X131850000Y-106200000D01*
X133650000Y-106950000D02*
X133650000Y-106200000D01*
X135150000Y-106200000D02*
X135150000Y-106950000D01*
X135150000Y-106950000D02*
X136150000Y-106950000D01*
X135650000Y-101750000D02*
X137640000Y-101750000D01*
X136150000Y-106200000D02*
X135150000Y-106200000D01*
X136150000Y-106950000D02*
X136150000Y-106200000D01*
X137650000Y-106200000D02*
X137650000Y-106950000D01*
X137650000Y-106950000D02*
X139450000Y-106950000D01*
X138500000Y-107250000D02*
X139750000Y-107250000D01*
X138700000Y-104700000D02*
X138700000Y-103360000D01*
X139450000Y-104700000D02*
X138700000Y-104700000D01*
X139450000Y-106200000D02*
X137650000Y-106200000D01*
X139450000Y-106950000D02*
X139450000Y-106200000D01*
X139460000Y-100990000D02*
X131840000Y-100990000D01*
X139460000Y-106960000D02*
X139460000Y-100990000D01*
X139750000Y-107250000D02*
X139750000Y-106000000D01*
%TO.C,F1*%
X139190000Y-67690000D02*
X159810000Y-67690000D01*
X139190000Y-74310000D02*
X139190000Y-67690000D01*
X159810000Y-67690000D02*
X159810000Y-74310000D01*
X159810000Y-74310000D02*
X139190000Y-74310000D01*
%TO.C,C3*%
X146415431Y-86785000D02*
X147715431Y-86785000D01*
X147065431Y-86135000D02*
X147065431Y-87435000D01*
X153500000Y-83920000D02*
X153500000Y-97080000D01*
X153540000Y-83920000D02*
X153540000Y-97080000D01*
X153580000Y-83920000D02*
X153580000Y-97080000D01*
X153620000Y-83921000D02*
X153620000Y-97079000D01*
X153660000Y-83922000D02*
X153660000Y-97078000D01*
X153700000Y-83923000D02*
X153700000Y-97077000D01*
X153740000Y-83924000D02*
X153740000Y-97076000D01*
X153780000Y-83926000D02*
X153780000Y-97074000D01*
X153820000Y-83928000D02*
X153820000Y-97072000D01*
X153860000Y-83930000D02*
X153860000Y-97070000D01*
X153900000Y-83932000D02*
X153900000Y-97068000D01*
X153940000Y-83935000D02*
X153940000Y-97065000D01*
X153980000Y-83937000D02*
X153980000Y-97063000D01*
X154020000Y-83940000D02*
X154020000Y-97060000D01*
X154060000Y-83944000D02*
X154060000Y-97056000D01*
X154100000Y-83947000D02*
X154100000Y-97053000D01*
X154140000Y-83951000D02*
X154140000Y-97049000D01*
X154180000Y-83955000D02*
X154180000Y-97045000D01*
X154220000Y-83959000D02*
X154220000Y-97041000D01*
X154260000Y-83964000D02*
X154260000Y-97036000D01*
X154300000Y-83969000D02*
X154300000Y-97031000D01*
X154340000Y-83974000D02*
X154340000Y-97026000D01*
X154380000Y-83979000D02*
X154380000Y-97021000D01*
X154420000Y-83984000D02*
X154420000Y-97016000D01*
X154460000Y-83990000D02*
X154460000Y-97010000D01*
X154500000Y-83996000D02*
X154500000Y-97004000D01*
X154540000Y-84002000D02*
X154540000Y-96998000D01*
X154580000Y-84009000D02*
X154580000Y-89060000D01*
X154580000Y-91940000D02*
X154580000Y-96991000D01*
X154620000Y-84015000D02*
X154620000Y-89060000D01*
X154620000Y-91940000D02*
X154620000Y-96985000D01*
X154660000Y-84022000D02*
X154660000Y-89060000D01*
X154660000Y-91940000D02*
X154660000Y-96978000D01*
X154700000Y-84030000D02*
X154700000Y-89060000D01*
X154700000Y-91940000D02*
X154700000Y-96970000D01*
X154740000Y-84037000D02*
X154740000Y-89060000D01*
X154740000Y-91940000D02*
X154740000Y-96963000D01*
X154780000Y-84045000D02*
X154780000Y-89060000D01*
X154780000Y-91940000D02*
X154780000Y-96955000D01*
X154820000Y-84053000D02*
X154820000Y-89060000D01*
X154820000Y-91940000D02*
X154820000Y-96947000D01*
X154860000Y-84061000D02*
X154860000Y-89060000D01*
X154860000Y-91940000D02*
X154860000Y-96939000D01*
X154900000Y-84070000D02*
X154900000Y-89060000D01*
X154900000Y-91940000D02*
X154900000Y-96930000D01*
X154940000Y-84079000D02*
X154940000Y-89060000D01*
X154940000Y-91940000D02*
X154940000Y-96921000D01*
X154980000Y-84088000D02*
X154980000Y-89060000D01*
X154980000Y-91940000D02*
X154980000Y-96912000D01*
X155020000Y-84097000D02*
X155020000Y-89060000D01*
X155020000Y-91940000D02*
X155020000Y-96903000D01*
X155060000Y-84106000D02*
X155060000Y-89060000D01*
X155060000Y-91940000D02*
X155060000Y-96894000D01*
X155100000Y-84116000D02*
X155100000Y-89060000D01*
X155100000Y-91940000D02*
X155100000Y-96884000D01*
X155140000Y-84126000D02*
X155140000Y-89060000D01*
X155140000Y-91940000D02*
X155140000Y-96874000D01*
X155180000Y-84137000D02*
X155180000Y-89060000D01*
X155180000Y-91940000D02*
X155180000Y-96863000D01*
X155220000Y-84147000D02*
X155220000Y-89060000D01*
X155220000Y-91940000D02*
X155220000Y-96853000D01*
X155260000Y-84158000D02*
X155260000Y-89060000D01*
X155260000Y-91940000D02*
X155260000Y-96842000D01*
X155300000Y-84169000D02*
X155300000Y-89060000D01*
X155300000Y-91940000D02*
X155300000Y-96831000D01*
X155340000Y-84181000D02*
X155340000Y-89060000D01*
X155340000Y-91940000D02*
X155340000Y-96819000D01*
X155380000Y-84193000D02*
X155380000Y-89060000D01*
X155380000Y-91940000D02*
X155380000Y-96807000D01*
X155420000Y-84205000D02*
X155420000Y-89060000D01*
X155420000Y-91940000D02*
X155420000Y-96795000D01*
X155460000Y-84217000D02*
X155460000Y-89060000D01*
X155460000Y-91940000D02*
X155460000Y-96783000D01*
X155500000Y-84229000D02*
X155500000Y-89060000D01*
X155500000Y-91940000D02*
X155500000Y-96771000D01*
X155540000Y-84242000D02*
X155540000Y-89060000D01*
X155540000Y-91940000D02*
X155540000Y-96758000D01*
X155580000Y-84255000D02*
X155580000Y-89060000D01*
X155580000Y-91940000D02*
X155580000Y-96745000D01*
X155620000Y-84269000D02*
X155620000Y-89060000D01*
X155620000Y-91940000D02*
X155620000Y-96731000D01*
X155660000Y-84282000D02*
X155660000Y-89060000D01*
X155660000Y-91940000D02*
X155660000Y-96718000D01*
X155700000Y-84296000D02*
X155700000Y-89060000D01*
X155700000Y-91940000D02*
X155700000Y-96704000D01*
X155740000Y-84310000D02*
X155740000Y-89060000D01*
X155740000Y-91940000D02*
X155740000Y-96690000D01*
X155780000Y-84325000D02*
X155780000Y-89060000D01*
X155780000Y-91940000D02*
X155780000Y-96675000D01*
X155820000Y-84340000D02*
X155820000Y-89060000D01*
X155820000Y-91940000D02*
X155820000Y-96660000D01*
X155860000Y-84355000D02*
X155860000Y-89060000D01*
X155860000Y-91940000D02*
X155860000Y-96645000D01*
X155900000Y-84370000D02*
X155900000Y-89060000D01*
X155900000Y-91940000D02*
X155900000Y-96630000D01*
X155940000Y-84386000D02*
X155940000Y-89060000D01*
X155940000Y-91940000D02*
X155940000Y-96614000D01*
X155980000Y-84402000D02*
X155980000Y-89060000D01*
X155980000Y-91940000D02*
X155980000Y-96598000D01*
X156020000Y-84418000D02*
X156020000Y-89060000D01*
X156020000Y-91940000D02*
X156020000Y-96582000D01*
X156060000Y-84435000D02*
X156060000Y-89060000D01*
X156060000Y-91940000D02*
X156060000Y-96565000D01*
X156100000Y-84452000D02*
X156100000Y-89060000D01*
X156100000Y-91940000D02*
X156100000Y-96548000D01*
X156140000Y-84469000D02*
X156140000Y-89060000D01*
X156140000Y-91940000D02*
X156140000Y-96531000D01*
X156180000Y-84487000D02*
X156180000Y-89060000D01*
X156180000Y-91940000D02*
X156180000Y-96513000D01*
X156220000Y-84505000D02*
X156220000Y-89060000D01*
X156220000Y-91940000D02*
X156220000Y-96495000D01*
X156260000Y-84523000D02*
X156260000Y-89060000D01*
X156260000Y-91940000D02*
X156260000Y-96477000D01*
X156300000Y-84541000D02*
X156300000Y-89060000D01*
X156300000Y-91940000D02*
X156300000Y-96459000D01*
X156340000Y-84560000D02*
X156340000Y-89060000D01*
X156340000Y-91940000D02*
X156340000Y-96440000D01*
X156380000Y-84579000D02*
X156380000Y-89060000D01*
X156380000Y-91940000D02*
X156380000Y-96421000D01*
X156420000Y-84599000D02*
X156420000Y-89060000D01*
X156420000Y-91940000D02*
X156420000Y-96401000D01*
X156460000Y-84619000D02*
X156460000Y-89060000D01*
X156460000Y-91940000D02*
X156460000Y-96381000D01*
X156500000Y-84639000D02*
X156500000Y-89060000D01*
X156500000Y-91940000D02*
X156500000Y-96361000D01*
X156540000Y-84659000D02*
X156540000Y-89060000D01*
X156540000Y-91940000D02*
X156540000Y-96341000D01*
X156580000Y-84680000D02*
X156580000Y-89060000D01*
X156580000Y-91940000D02*
X156580000Y-96320000D01*
X156620000Y-84701000D02*
X156620000Y-89060000D01*
X156620000Y-91940000D02*
X156620000Y-96299000D01*
X156660000Y-84723000D02*
X156660000Y-89060000D01*
X156660000Y-91940000D02*
X156660000Y-96277000D01*
X156700000Y-84745000D02*
X156700000Y-89060000D01*
X156700000Y-91940000D02*
X156700000Y-96255000D01*
X156740000Y-84767000D02*
X156740000Y-89060000D01*
X156740000Y-91940000D02*
X156740000Y-96233000D01*
X156780000Y-84790000D02*
X156780000Y-89060000D01*
X156780000Y-91940000D02*
X156780000Y-96210000D01*
X156820000Y-84813000D02*
X156820000Y-89060000D01*
X156820000Y-91940000D02*
X156820000Y-96187000D01*
X156860000Y-84836000D02*
X156860000Y-89060000D01*
X156860000Y-91940000D02*
X156860000Y-96164000D01*
X156900000Y-84860000D02*
X156900000Y-89060000D01*
X156900000Y-91940000D02*
X156900000Y-96140000D01*
X156940000Y-84884000D02*
X156940000Y-89060000D01*
X156940000Y-91940000D02*
X156940000Y-96116000D01*
X156980000Y-84908000D02*
X156980000Y-89060000D01*
X156980000Y-91940000D02*
X156980000Y-96092000D01*
X157020000Y-84933000D02*
X157020000Y-89060000D01*
X157020000Y-91940000D02*
X157020000Y-96067000D01*
X157060000Y-84959000D02*
X157060000Y-89060000D01*
X157060000Y-91940000D02*
X157060000Y-96041000D01*
X157100000Y-84984000D02*
X157100000Y-89060000D01*
X157100000Y-91940000D02*
X157100000Y-96016000D01*
X157140000Y-85011000D02*
X157140000Y-89060000D01*
X157140000Y-91940000D02*
X157140000Y-95989000D01*
X157180000Y-85037000D02*
X157180000Y-89060000D01*
X157180000Y-91940000D02*
X157180000Y-95963000D01*
X157220000Y-85064000D02*
X157220000Y-89060000D01*
X157220000Y-91940000D02*
X157220000Y-95936000D01*
X157260000Y-85091000D02*
X157260000Y-89060000D01*
X157260000Y-91940000D02*
X157260000Y-95909000D01*
X157300000Y-85119000D02*
X157300000Y-89060000D01*
X157300000Y-91940000D02*
X157300000Y-95881000D01*
X157340000Y-85148000D02*
X157340000Y-89060000D01*
X157340000Y-91940000D02*
X157340000Y-95852000D01*
X157380000Y-85176000D02*
X157380000Y-89060000D01*
X157380000Y-91940000D02*
X157380000Y-95824000D01*
X157420000Y-85205000D02*
X157420000Y-89060000D01*
X157420000Y-91940000D02*
X157420000Y-95795000D01*
X157460000Y-85235000D02*
X157460000Y-95765000D01*
X157500000Y-85265000D02*
X157500000Y-95735000D01*
X157540000Y-85296000D02*
X157540000Y-95704000D01*
X157580000Y-85327000D02*
X157580000Y-95673000D01*
X157620000Y-85358000D02*
X157620000Y-95642000D01*
X157660000Y-85390000D02*
X157660000Y-95610000D01*
X157700000Y-85423000D02*
X157700000Y-95577000D01*
X157740000Y-85456000D02*
X157740000Y-95544000D01*
X157780000Y-85490000D02*
X157780000Y-95510000D01*
X157820000Y-85524000D02*
X157820000Y-95476000D01*
X157860000Y-85559000D02*
X157860000Y-95441000D01*
X157900000Y-85594000D02*
X157900000Y-95406000D01*
X157940000Y-85630000D02*
X157940000Y-95370000D01*
X157980000Y-85666000D02*
X157980000Y-95334000D01*
X158020000Y-85703000D02*
X158020000Y-95297000D01*
X158060000Y-85741000D02*
X158060000Y-95259000D01*
X158100000Y-85779000D02*
X158100000Y-95221000D01*
X158140000Y-85818000D02*
X158140000Y-95182000D01*
X158180000Y-85858000D02*
X158180000Y-95142000D01*
X158220000Y-85898000D02*
X158220000Y-95102000D01*
X158260000Y-85939000D02*
X158260000Y-95061000D01*
X158300000Y-85981000D02*
X158300000Y-95019000D01*
X158340000Y-86023000D02*
X158340000Y-94977000D01*
X158380000Y-86067000D02*
X158380000Y-94933000D01*
X158420000Y-86111000D02*
X158420000Y-94889000D01*
X158460000Y-86156000D02*
X158460000Y-94844000D01*
X158500000Y-86201000D02*
X158500000Y-94799000D01*
X158540000Y-86248000D02*
X158540000Y-94752000D01*
X158580000Y-86295000D02*
X158580000Y-94705000D01*
X158620000Y-86344000D02*
X158620000Y-94656000D01*
X158660000Y-86393000D02*
X158660000Y-94607000D01*
X158700000Y-86443000D02*
X158700000Y-94557000D01*
X158740000Y-86494000D02*
X158740000Y-94506000D01*
X158780000Y-86547000D02*
X158780000Y-94453000D01*
X158820000Y-86600000D02*
X158820000Y-94400000D01*
X158860000Y-86655000D02*
X158860000Y-94345000D01*
X158900000Y-86711000D02*
X158900000Y-94289000D01*
X158940000Y-86768000D02*
X158940000Y-94232000D01*
X158980000Y-86826000D02*
X158980000Y-94174000D01*
X159020000Y-86886000D02*
X159020000Y-94114000D01*
X159060000Y-86947000D02*
X159060000Y-94053000D01*
X159100000Y-87010000D02*
X159100000Y-93990000D01*
X159140000Y-87074000D02*
X159140000Y-93926000D01*
X159180000Y-87140000D02*
X159180000Y-93860000D01*
X159220000Y-87207000D02*
X159220000Y-93793000D01*
X159260000Y-87277000D02*
X159260000Y-93723000D01*
X159300000Y-87349000D02*
X159300000Y-93651000D01*
X159340000Y-87423000D02*
X159340000Y-93577000D01*
X159380000Y-87499000D02*
X159380000Y-93501000D01*
X159420000Y-87577000D02*
X159420000Y-93423000D01*
X159460000Y-87659000D02*
X159460000Y-93341000D01*
X159500000Y-87743000D02*
X159500000Y-93257000D01*
X159540000Y-87830000D02*
X159540000Y-93170000D01*
X159580000Y-87921000D02*
X159580000Y-93079000D01*
X159620000Y-88016000D02*
X159620000Y-92984000D01*
X159660000Y-88115000D02*
X159660000Y-92885000D01*
X159700000Y-88220000D02*
X159700000Y-92780000D01*
X159740000Y-88329000D02*
X159740000Y-92671000D01*
X159780000Y-88446000D02*
X159780000Y-92554000D01*
X159820000Y-88570000D02*
X159820000Y-92430000D01*
X159860000Y-88703000D02*
X159860000Y-92297000D01*
X159900000Y-88848000D02*
X159900000Y-92152000D01*
X159940000Y-89007000D02*
X159940000Y-91993000D01*
X159980000Y-89186000D02*
X159980000Y-91814000D01*
X160020000Y-89394000D02*
X160020000Y-91606000D01*
X160060000Y-89651000D02*
X160060000Y-91349000D01*
X160100000Y-90026000D02*
X160100000Y-90974000D01*
X160120000Y-90500000D02*
G75*
G02*
X146880000Y-90500000I-6620000J0D01*
G01*
X146880000Y-90500000D02*
G75*
G02*
X160120000Y-90500000I6620000J0D01*
G01*
%TD*%
M02*
