M48
; DRILL file {KiCad 9.0.6} date 2025-12-21T18:02:01+0900
; FORMAT={-:-/ absolute / metric / decimal}
; #@! TF.CreationDate,2025-12-21T18:02:01+09:00
; #@! TF.GenerationSoftware,Kicad,Pcbnew,9.0.6
; #@! TF.FileFunction,MixedPlating,1,2
FMAT,2
METRIC
; #@! TA.AperFunction,Plated,PTH,ComponentDrill
T1C0.710
; #@! TA.AperFunction,Plated,PTH,ComponentDrill
T2C1.000
; #@! TA.AperFunction,Plated,PTH,ComponentDrill
T3C1.100
; #@! TA.AperFunction,Plated,PTH,ComponentDrill
T4C1.200
; #@! TA.AperFunction,Plated,PTH,ComponentDrill
T5C1.400
; #@! TA.AperFunction,Plated,PTH,ComponentDrill
T6C1.700
; #@! TA.AperFunction,NonPlated,NPTH,ComponentDrill
T7C1.200
; #@! TA.AperFunction,NonPlated,NPTH,ComponentDrill
T8C2.400
; #@! TA.AperFunction,NonPlated,NPTH,ComponentDrill
T9C3.200
%
G90
G05
T1
X126.95Y-94.4
X132.05Y-95.6
T2
X124.868Y-86.0
X129.868Y-86.0
X134.4Y-104.5
X136.9Y-104.5
T3
X135.5Y-70.42
X135.5Y-72.96
X135.5Y-75.5
T4
X151.0Y-90.5
X156.0Y-90.5
T5
X143.1Y-69.75
X143.1Y-72.25
X143.2Y-77.5
X143.2Y-80.0
X146.6Y-69.75
X146.6Y-72.25
X146.7Y-77.5
X146.7Y-80.0
X152.4Y-69.75
X152.4Y-72.25
X152.5Y-77.5
X152.5Y-80.0
X155.9Y-69.75
X155.9Y-72.25
X156.0Y-77.5
X156.0Y-80.0
T6
X132.54Y-61.5
X136.5Y-61.5
X144.0Y-103.0
X147.96Y-103.0
T7
X138.5Y-102.5
T8
X149.5Y-71.0
X149.6Y-78.75
T9
X125.0Y-61.5
X125.0Y-103.5
X156.0Y-61.5
X156.0Y-103.5
M30
